<svg width="413" height="207" viewBox="0 0 413 207" fill="none" xmlns="http://www.w3.org/2000/svg">
<g filter="url(#filter0_d_9451_117866)">
<rect x="53" y="35.2275" width="307" height="100.722" rx="18.2059" fill="white" fill-opacity="0.85"/>
</g>
<ellipse cx="319.308" cy="102.107" rx="15.7126" ry="16.1155" fill="#D8F9ED"/>
<circle cx="111.822" cy="88.4087" r="24.979" fill="#D8F9ED"/>
<path d="M175.604 82.8922H180.953C182.126 82.8922 183.107 83.003 183.896 83.2247C184.691 83.4398 185.32 83.9124 185.783 84.6425C186.246 85.3662 186.477 86.1778 186.477 87.0774C186.477 88.5246 186.018 89.6231 185.099 90.3728C184.179 91.1225 182.85 91.4973 181.109 91.4973H177.501V97.2275H175.604V82.8922ZM177.501 89.7958H181.129C182.348 89.7958 183.215 89.5677 183.73 89.1113C184.251 88.655 184.512 87.9966 184.512 87.1361C184.512 86.5624 184.369 86.0539 184.082 85.6106C183.795 85.1673 183.43 84.887 182.986 84.7697C182.55 84.6523 181.917 84.5937 181.089 84.5937H177.501V89.7958ZM192.921 86.6178C194.401 86.6178 195.581 87.0904 196.461 88.0357C197.348 88.981 197.791 90.3174 197.791 92.0449C197.791 93.7659 197.348 95.1023 196.461 96.0541C195.581 96.9994 194.401 97.472 192.921 97.472C191.448 97.472 190.268 96.9994 189.382 96.0541C188.502 95.1023 188.062 93.7659 188.062 92.0449C188.062 90.3174 188.502 88.981 189.382 88.0357C190.268 87.0904 191.448 86.6178 192.921 86.6178ZM192.921 96.0248C193.802 96.0248 194.515 95.6923 195.063 95.0274C195.611 94.3559 195.884 93.3618 195.884 92.0449C195.884 90.7215 195.611 89.7274 195.063 89.0624C194.515 88.391 193.802 88.0553 192.921 88.0553C192.041 88.0553 191.328 88.391 190.78 89.0624C190.232 89.7274 189.959 90.7215 189.959 92.0449C189.959 93.3618 190.232 94.3559 190.78 95.0274C191.328 95.6923 192.041 96.0248 192.921 96.0248ZM208.44 97.2275H206.24L202.866 91.9569L201.712 93.101V97.2275H199.864V82.8922H201.712V91.0182L205.712 86.8525H208.039L204.108 90.715L208.44 97.2275ZM214.288 97.472C212.762 97.472 211.537 96.9961 210.611 96.0443C209.685 95.086 209.222 93.7529 209.222 92.0449C209.222 90.35 209.669 89.0233 210.562 88.065C211.462 87.1002 212.635 86.6178 214.082 86.6178C215.562 86.6178 216.742 87.0904 217.622 88.0357C218.509 88.981 218.952 90.3174 218.952 92.0449V92.4849H211.139C211.217 93.6844 211.546 94.5743 212.127 95.1545C212.713 95.7347 213.434 96.0248 214.288 96.0248C214.933 96.0248 215.513 95.8618 216.028 95.5358C216.55 95.2034 216.824 94.734 216.85 94.1277H218.756C218.613 95.1969 218.127 96.0215 217.299 96.6017C216.478 97.1819 215.474 97.472 214.288 97.472ZM217.006 91.0377C216.856 90.0403 216.52 89.2939 215.999 88.7984C215.477 88.303 214.838 88.0553 214.082 88.0553C213.346 88.0553 212.713 88.303 212.185 88.7984C211.657 89.2874 211.321 90.0338 211.178 91.0377H217.006ZM232.916 94.4993V92.2014H231.654C228.982 92.2014 227.645 92.9282 227.645 94.382C227.645 94.91 227.841 95.3175 228.232 95.6043C228.623 95.8846 229.151 96.0248 229.816 96.0248C230.422 96.0248 231.009 95.8879 231.576 95.6141C232.143 95.3403 232.59 94.9687 232.916 94.4993ZM232.916 96.1617C231.977 97.0352 230.768 97.472 229.288 97.472C228.258 97.472 227.41 97.1949 226.745 96.6408C226.081 96.0802 225.748 95.3598 225.748 94.4798C225.748 92.0547 227.837 90.8421 232.016 90.8421H232.916C232.916 90.099 232.877 89.5612 232.798 89.2287C232.72 88.8897 232.502 88.6094 232.143 88.3877C231.785 88.1661 231.214 88.0553 230.432 88.0553C228.789 88.0553 227.942 88.642 227.89 89.8154H226.051C226.188 87.6837 227.681 86.6178 230.53 86.6178C231.86 86.6178 232.896 86.8818 233.639 87.4099C234.383 87.9379 234.754 88.9744 234.754 90.5195V97.2275H232.916V96.1617ZM239.34 88.1726C240.259 87.1361 241.293 86.6178 242.44 86.6178C244.78 86.6178 245.951 87.8923 245.951 90.4412V97.2275H244.102V90.5195C244.102 89.672 243.949 89.0624 243.643 88.6909C243.343 88.3193 242.848 88.1335 242.156 88.1335C241.218 88.1335 240.279 88.6876 239.34 89.7958V97.2275H237.492V86.8525H239.34V88.1726ZM255.211 94.2451V89.3167C254.416 88.4757 253.506 88.0553 252.483 88.0553C251.694 88.0553 251.061 88.3975 250.586 89.082C250.116 89.76 249.882 90.7737 249.882 92.1231C249.882 93.4009 250.103 94.3722 250.546 95.0371C250.996 95.6956 251.616 96.0248 252.404 96.0248C253.434 96.0248 254.37 95.4315 255.211 94.2451ZM255.211 95.9857C254.389 96.9766 253.402 97.472 252.248 97.472C250.892 97.472 249.842 96.9896 249.099 96.0248C248.356 95.06 247.985 93.7594 247.985 92.1231C247.985 90.4282 248.398 89.0885 249.226 88.1042C250.061 87.1133 251.107 86.6178 252.365 86.6178C253.487 86.6178 254.435 86.9633 255.211 87.6543V82.8922H257.049V97.2275H255.211V95.9857ZM276.039 97.2275H265.351V82.8922H275.707V84.5937H267.248V88.9744H275.159V90.6759H267.248V95.5261H276.039V97.2275ZM286.981 97.2275H284.693L282.112 93.1792L279.53 97.2275H277.242L281.075 91.8396L277.545 86.8525H279.833L282.112 90.4803L284.39 86.8525H286.678L283.148 91.82L286.981 97.2275ZM292.888 97.472C291.362 97.472 290.137 96.9961 289.211 96.0443C288.285 95.086 287.822 93.7529 287.822 92.0449C287.822 90.35 288.269 89.0233 289.162 88.065C290.062 87.1002 291.235 86.6178 292.682 86.6178C294.162 86.6178 295.342 87.0904 296.222 88.0357C297.109 88.981 297.552 90.3174 297.552 92.0449V92.4849H289.739C289.817 93.6844 290.146 94.5743 290.727 95.1545C291.313 95.7347 292.034 96.0248 292.888 96.0248C293.533 96.0248 294.113 95.8618 294.628 95.5358C295.15 95.2034 295.424 94.734 295.45 94.1277H297.356C297.213 95.1969 296.727 96.0215 295.899 96.6017C295.078 97.1819 294.074 97.472 292.888 97.472ZM295.606 91.0377C295.456 90.0403 295.12 89.2939 294.599 88.7984C294.077 88.303 293.438 88.0553 292.682 88.0553C291.946 88.0553 291.313 88.303 290.785 88.7984C290.257 89.2874 289.921 90.0338 289.778 91.0377H295.606ZM313.647 97.2275H311.799V90.5195C311.799 89.6589 311.675 89.0462 311.428 88.6811C311.18 88.316 310.766 88.1335 310.186 88.1335C309.293 88.1335 308.416 88.6876 307.555 89.7958V97.2275H305.717V90.5195C305.717 89.6589 305.593 89.0462 305.345 88.6811C305.098 88.316 304.681 88.1335 304.094 88.1335C303.201 88.1335 302.327 88.6876 301.473 89.7958V97.2275H299.625V86.8525H301.473V88.1726C302.347 87.1361 303.315 86.6178 304.377 86.6178C305.896 86.6178 306.864 87.2436 307.282 88.4953C307.973 87.6804 308.559 87.1654 309.042 86.9503C309.524 86.7286 309.997 86.6178 310.46 86.6178C312.585 86.6178 313.647 87.8923 313.647 90.4412V97.2275ZM318.155 88.0944C318.977 87.11 319.964 86.6178 321.118 86.6178C322.474 86.6178 323.524 87.1002 324.267 88.065C325.01 89.0233 325.382 90.3206 325.382 91.9569C325.382 93.6584 324.965 95.0045 324.13 95.9954C323.302 96.9798 322.256 97.472 320.991 97.472C319.87 97.472 318.925 97.1232 318.155 96.4257V101.217H316.307V86.8525H318.155V88.0944ZM318.155 94.7633C318.944 95.6043 319.85 96.0248 320.874 96.0248C321.669 96.0248 322.301 95.6858 322.771 95.0078C323.24 94.3233 323.475 93.3063 323.475 91.9569C323.475 90.6792 323.253 89.7111 322.81 89.0527C322.367 88.3877 321.747 88.0553 320.952 88.0553C319.929 88.0553 318.996 88.6485 318.155 89.835V94.7633ZM331.484 97.2471C331.079 97.3253 330.639 97.3644 330.163 97.3644C329.407 97.3644 328.853 97.2308 328.501 96.9635C328.149 96.6897 327.931 96.341 327.846 95.9172C327.761 95.4935 327.719 94.9165 327.719 94.1864V88.2997H326.438V86.8525H327.719V84.271H329.557V86.8525H331.239V88.2997H329.557V94.2842C329.557 94.9948 329.645 95.4478 329.821 95.6434C330.004 95.8325 330.251 95.927 330.564 95.927C330.884 95.927 331.19 95.9009 331.484 95.8488V97.2471Z" fill="#41BE90"/>
<g clip-path="url(#clip0_9451_117866)">
<path d="M138.596 69.6164L103.499 72.2269C102.021 72.3368 100.753 73.2573 100.189 74.6287C99.6261 76.0003 99.8816 77.5465 100.856 78.6638L108.553 87.4883L121.198 81.1034C121.78 80.8096 122.49 81.0432 122.784 81.6251C123.078 82.207 122.844 82.917 122.263 83.2109L109.617 89.5957L112.148 101.028C112.469 102.476 113.561 103.599 114.999 103.96C116.44 104.322 117.932 103.845 118.897 102.723L141.835 76.0317C142.879 74.8164 143.079 73.173 142.357 71.7426C141.635 70.3122 140.194 69.4974 138.596 69.6164Z" fill="#41BE90"/>
</g>
<line x1="84.6767" y1="93.9201" x2="100.94" y2="85.7084" stroke="#41BE90" stroke-width="2.73088" stroke-linecap="round"/>
<line x1="92.6103" y1="95.3307" x2="103.12" y2="90.0244" stroke="#FBA333" stroke-width="2.73088" stroke-linecap="round"/>
<line x1="99.8242" y1="97.1037" x2="105.299" y2="94.3396" stroke="#41BE90" stroke-width="2.73088" stroke-linecap="round"/>
<defs>
<filter id="filter0_d_9451_117866" x="0.202942" y="0.636364" width="412.594" height="206.316" filterUnits="userSpaceOnUse" color-interpolation-filters="sRGB">
<feFlood flood-opacity="0" result="BackgroundImageFix"/>
<feColorMatrix in="SourceAlpha" type="matrix" values="0 0 0 0 0 0 0 0 0 0 0 0 0 0 0 0 0 0 127 0" result="hardAlpha"/>
<feOffset dy="18.2059"/>
<feGaussianBlur stdDeviation="26.3985"/>
<feColorMatrix type="matrix" values="0 0 0 0 0.156 0 0 0 0 0.167093 0 0 0 0 0.433333 0 0 0 0.08 0"/>
<feBlend mode="normal" in2="BackgroundImageFix" result="effect1_dropShadow_9451_117866"/>
<feBlend mode="normal" in="SourceGraphic" in2="effect1_dropShadow_9451_117866" result="shape"/>
</filter>
<clipPath id="clip0_9451_117866">
<rect width="40.2887" height="40.2887" fill="white" transform="translate(97.3135 71.9189) rotate(-26.7895)"/>
</clipPath>
</defs>
</svg>
