<svg width="277" height="118" viewBox="0 0 277 118" fill="none" xmlns="http://www.w3.org/2000/svg">
<g filter="url(#filter0_d_9064_31232)">
<mask id="path-1-inside-1_9064_31232" fill="white">
<path d="M12 6C12 2.68629 14.6863 0 18 0H271C274.314 0 277 2.68629 277 6V112C277 115.314 274.314 118 271 118H18C14.6863 118 12 115.314 12 112V6Z"/>
</mask>
<path d="M12 6C12 2.68629 14.6863 0 18 0H271C274.314 0 277 2.68629 277 6V112C277 115.314 274.314 118 271 118H18C14.6863 118 12 115.314 12 112V6Z" fill="white" shape-rendering="crispEdges"/>
<path d="M12 0H277H12ZM277 112C277 116.418 273.418 120 269 120H20C15.5817 120 12 116.418 12 112C12 114.209 14.6863 116 18 116H271C274.314 116 277 114.209 277 112ZM12 118V0V118ZM277 0V118V0Z" fill="#00BAD1" fill-opacity="0.38" mask="url(#path-1-inside-1_9064_31232)"/>
<path d="M31.44 45.2C30.1267 45.2 28.99 44.91 28.03 44.33C27.0767 43.7433 26.34 42.9 25.82 41.8C25.3067 40.6933 25.05 39.36 25.05 37.8C25.05 36.2267 25.31 34.8867 25.83 33.78C26.3567 32.6667 27.0967 31.8167 28.05 31.23C29.01 30.6367 30.14 30.34 31.44 30.34C32.7333 30.34 33.8533 30.6367 34.8 31.23C35.7533 31.8167 36.4867 32.6667 37 33.78C37.52 34.8867 37.78 36.2267 37.78 37.8C37.78 39.36 37.5233 40.69 37.01 41.79C36.4967 42.89 35.7633 43.7333 34.81 44.32C33.8633 44.9067 32.74 45.2 31.44 45.2ZM31.44 43.37C32.28 43.37 32.9967 43.1767 33.59 42.79C34.19 42.4033 34.6467 41.8 34.96 40.98C35.2733 40.16 35.43 39.11 35.43 37.83C35.43 36.5167 35.27 35.4433 34.95 34.61C34.6367 33.7767 34.18 33.1633 33.58 32.77C32.9867 32.37 32.2733 32.17 31.44 32.17C30.6067 32.17 29.8867 32.37 29.28 32.77C28.68 33.17 28.2167 33.7867 27.89 34.62C27.5633 35.4533 27.4 36.5233 27.4 37.83C27.4 39.1167 27.5633 40.17 27.89 40.99C28.2167 41.8033 28.68 42.4033 29.28 42.79C29.8867 43.1767 30.6067 43.37 31.44 43.37ZM41.5942 45V36.2H39.4842V34.66H41.5942V33.09C41.5942 32.2633 41.8109 31.6333 42.2442 31.2C42.6842 30.76 43.3309 30.54 44.1842 30.54H46.2542L46.2642 32.02H44.7642C44.3576 32.02 44.0776 32.13 43.9242 32.35C43.7776 32.5633 43.7042 32.8933 43.7042 33.34V34.66H46.1642V36.2H43.7442V45H41.5942ZM49.0942 45V36.2H46.9842V34.66H49.0942V33.09C49.0942 32.2633 49.3109 31.6333 49.7442 31.2C50.1842 30.76 50.8309 30.54 51.6842 30.54H53.7542L53.7642 32.02H52.2642C51.8576 32.02 51.5776 32.13 51.4242 32.35C51.2776 32.5633 51.2042 32.8933 51.2042 33.34V34.66H53.6642V36.2H51.2442V45H49.0942ZM60.0472 45.2C59.0672 45.2 58.2039 44.99 57.4572 44.57C56.7105 44.1433 56.1272 43.5367 55.7072 42.75C55.2939 41.9633 55.0872 41.0267 55.0872 39.94C55.0872 38.8667 55.2772 37.92 55.6572 37.1C56.0372 36.2733 56.5872 35.6267 57.3072 35.16C58.0272 34.6933 58.8939 34.46 59.9072 34.46C60.9005 34.46 61.7405 34.6733 62.4272 35.1C63.1139 35.5267 63.6339 36.1267 63.9872 36.9C64.3405 37.6667 64.5172 38.5733 64.5172 39.62V40.33H57.2372C57.2305 40.95 57.3305 41.5067 57.5372 42C57.7439 42.4867 58.0505 42.8733 58.4572 43.16C58.8705 43.44 59.3839 43.58 59.9972 43.58C60.6172 43.58 61.1505 43.44 61.5972 43.16C62.0505 42.88 62.3472 42.4633 62.4872 41.91H64.4672C64.3472 42.6167 64.0639 43.2167 63.6172 43.71C63.1705 44.2033 62.6339 44.5767 62.0072 44.83C61.3805 45.0767 60.7272 45.2 60.0472 45.2ZM57.2372 38.94H62.4772C62.4772 38.4 62.3839 37.91 62.1972 37.47C62.0105 37.0233 61.7239 36.6733 61.3372 36.42C60.9572 36.16 60.4772 36.03 59.8972 36.03C59.3039 36.03 58.8105 36.1733 58.4172 36.46C58.0239 36.7467 57.7272 37.1133 57.5272 37.56C57.3339 38.0067 57.2372 38.4667 57.2372 38.94ZM66.9539 45V34.66H69.0039V36.78C69.1772 36.2733 69.4172 35.85 69.7239 35.51C70.0372 35.1633 70.4006 34.9033 70.8139 34.73C71.2272 34.55 71.6639 34.46 72.1239 34.46C72.2639 34.46 72.3972 34.47 72.5239 34.49C72.6506 34.5033 72.7506 34.53 72.8239 34.57V36.63C72.7372 36.59 72.6239 36.5633 72.4839 36.55C72.3506 36.5367 72.2339 36.5267 72.1339 36.52C71.6806 36.4867 71.2672 36.51 70.8939 36.59C70.5206 36.67 70.1972 36.8033 69.9239 36.99C69.6572 37.1767 69.4506 37.42 69.3039 37.72C69.1639 38.02 69.0939 38.3733 69.0939 38.78V45H66.9539ZM85.0692 45.2C84.3626 45.2 83.6826 45.1133 83.0292 44.94C82.3826 44.7667 81.7926 44.51 81.2592 44.17C80.7326 43.8233 80.2959 43.3933 79.9492 42.88C79.6092 42.3667 79.3959 41.7667 79.3092 41.08H81.5392C81.6526 41.6 81.8759 42.0367 82.2092 42.39C82.5492 42.7433 82.9726 43.01 83.4792 43.19C83.9926 43.37 84.5592 43.46 85.1792 43.46C85.7526 43.46 86.2826 43.37 86.7692 43.19C87.2559 43.01 87.6492 42.75 87.9492 42.41C88.2492 42.07 88.3992 41.6533 88.3992 41.16C88.3992 40.6067 88.2126 40.17 87.8392 39.85C87.4726 39.5233 86.9192 39.2633 86.1792 39.07L83.2792 38.35C82.5792 38.1833 81.9626 37.9467 81.4292 37.64C80.8959 37.3267 80.4826 36.9167 80.1892 36.41C79.8959 35.8967 79.7492 35.2633 79.7492 34.51C79.7492 33.67 79.9792 32.94 80.4392 32.32C80.9059 31.6933 81.5359 31.21 82.3292 30.87C83.1292 30.53 84.0326 30.36 85.0392 30.36C86.1926 30.36 87.1626 30.5567 87.9492 30.95C88.7426 31.3433 89.3426 31.8633 89.7492 32.51C90.1626 33.15 90.3726 33.8467 90.3792 34.6H88.1992C88.1392 33.9867 87.9559 33.5 87.6492 33.14C87.3492 32.7733 86.9659 32.51 86.4992 32.35C86.0392 32.19 85.5292 32.11 84.9692 32.11C83.9826 32.11 83.2392 32.33 82.7392 32.77C82.2459 33.2033 81.9992 33.72 81.9992 34.32C81.9992 34.8733 82.1792 35.31 82.5392 35.63C82.9059 35.95 83.4459 36.1967 84.1592 36.37L86.9592 37.06C87.8392 37.2533 88.5426 37.5433 89.0692 37.93C89.6026 38.31 89.9859 38.76 90.2192 39.28C90.4526 39.7933 90.5692 40.3567 90.5692 40.97C90.5692 41.79 90.3392 42.52 89.8792 43.16C89.4192 43.7933 88.7759 44.2933 87.9492 44.66C87.1292 45.02 86.1692 45.2 85.0692 45.2ZM96.7638 45.07C95.9971 45.07 95.4038 44.9667 94.9838 44.76C94.5638 44.5533 94.2704 44.2567 94.1038 43.87C93.9371 43.4767 93.8538 43.0033 93.8538 42.45V36.2H92.1738V34.66H93.9238L94.4438 31.62H96.0038V34.65H98.3238V36.2H96.0038L96.0138 42.37C96.0138 42.71 96.0471 42.96 96.1138 43.12C96.1871 43.2733 96.3071 43.3733 96.4738 43.42C96.6471 43.46 96.8804 43.48 97.1738 43.48H98.3738V44.87C98.2471 44.9233 98.0504 44.97 97.7838 45.01C97.5238 45.05 97.1838 45.07 96.7638 45.07ZM103.615 45.2C102.948 45.2 102.355 45.08 101.835 44.84C101.322 44.6 100.918 44.2533 100.625 43.8C100.332 43.3467 100.185 42.8 100.185 42.16C100.185 41.0133 100.588 40.1567 101.395 39.59C102.208 39.0233 103.508 38.7233 105.295 38.69L106.995 38.64V37.89C106.995 37.2967 106.818 36.83 106.465 36.49C106.112 36.15 105.565 35.9833 104.825 35.99C104.278 35.99 103.788 36.1167 103.355 36.37C102.922 36.6233 102.638 37.04 102.505 37.62H100.655C100.695 36.9333 100.892 36.3567 101.245 35.89C101.605 35.4167 102.098 35.06 102.725 34.82C103.352 34.58 104.085 34.46 104.925 34.46C105.872 34.46 106.648 34.59 107.255 34.85C107.862 35.1033 108.312 35.4767 108.605 35.97C108.905 36.4633 109.055 37.0633 109.055 37.77V45H107.235L107.075 43.1C106.688 43.8933 106.198 44.4433 105.605 44.75C105.012 45.05 104.348 45.2 103.615 45.2ZM104.285 43.71C104.612 43.71 104.935 43.6533 105.255 43.54C105.575 43.42 105.865 43.26 106.125 43.06C106.385 42.8533 106.592 42.6233 106.745 42.37C106.905 42.1167 106.988 41.8567 106.995 41.59V39.88L105.595 39.91C104.882 39.9167 104.275 39.99 103.775 40.13C103.282 40.27 102.902 40.4867 102.635 40.78C102.375 41.0733 102.245 41.4633 102.245 41.95C102.245 42.5033 102.435 42.9367 102.815 43.25C103.202 43.5567 103.692 43.71 104.285 43.71ZM115.338 45.07C114.571 45.07 113.978 44.9667 113.558 44.76C113.138 44.5533 112.845 44.2567 112.678 43.87C112.511 43.4767 112.428 43.0033 112.428 42.45V36.2H110.748V34.66H112.498L113.018 31.62H114.578V34.65H116.898V36.2H114.578L114.588 42.37C114.588 42.71 114.621 42.96 114.688 43.12C114.761 43.2733 114.881 43.3733 115.048 43.42C115.221 43.46 115.455 43.48 115.748 43.48H116.948V44.87C116.821 44.9233 116.625 44.97 116.358 45.01C116.098 45.05 115.758 45.07 115.338 45.07ZM123 45.2C122.48 45.1933 121.983 45.1167 121.51 44.97C121.037 44.8233 120.613 44.6033 120.24 44.31C119.873 44.0167 119.58 43.6533 119.36 43.22C119.147 42.7867 119.04 42.2833 119.04 41.71V34.66H121.19V41.48C121.19 42.1 121.383 42.6033 121.77 42.99C122.157 43.3767 122.74 43.57 123.52 43.57C124.227 43.57 124.793 43.3867 125.22 43.02C125.647 42.6467 125.86 42.1033 125.86 41.39V34.66H127.99V45H126.33L126.09 43C125.97 43.54 125.753 43.9733 125.44 44.3C125.133 44.62 124.767 44.8533 124.34 45C123.92 45.14 123.473 45.2067 123 45.2ZM134.749 45.2C134.029 45.2 133.353 45.0867 132.719 44.86C132.093 44.6333 131.566 44.2767 131.139 43.79C130.719 43.3033 130.456 42.68 130.349 41.92H132.259C132.346 42.3133 132.509 42.64 132.749 42.9C132.996 43.1533 133.289 43.3433 133.629 43.47C133.976 43.59 134.346 43.65 134.739 43.65C135.393 43.65 135.923 43.5333 136.329 43.3C136.736 43.06 136.939 42.6933 136.939 42.2C136.939 41.8467 136.829 41.5633 136.609 41.35C136.389 41.1367 136.046 40.98 135.579 40.88L133.519 40.39C132.666 40.19 131.983 39.8733 131.469 39.44C130.956 39 130.696 38.3867 130.689 37.6C130.689 36.9933 130.839 36.4533 131.139 35.98C131.446 35.5067 131.899 35.1367 132.499 34.87C133.106 34.5967 133.853 34.46 134.739 34.46C135.906 34.46 136.843 34.72 137.549 35.24C138.263 35.76 138.629 36.5133 138.649 37.5H136.799C136.733 37.0267 136.516 36.6567 136.149 36.39C135.789 36.1167 135.313 35.98 134.719 35.98C134.106 35.98 133.603 36.1033 133.209 36.35C132.816 36.59 132.619 36.96 132.619 37.46C132.619 37.8 132.763 38.07 133.049 38.27C133.343 38.4633 133.773 38.6233 134.339 38.75L136.299 39.24C136.806 39.3733 137.223 39.55 137.549 39.77C137.876 39.9833 138.133 40.22 138.319 40.48C138.506 40.74 138.636 41.01 138.709 41.29C138.789 41.57 138.829 41.8333 138.829 42.08C138.829 42.7333 138.663 43.2933 138.329 43.76C138.003 44.22 137.536 44.5767 136.929 44.83C136.323 45.0767 135.596 45.2 134.749 45.2Z" fill="#2F2B3D" fill-opacity="0.9"/>
<path d="M206 30C206 27.7909 207.791 26 210 26H261C263.209 26 265 27.7909 265 30V46C265 48.2091 263.209 50 261 50H210C207.791 50 206 48.2091 206 46V30Z" fill="#28C76F" fill-opacity="0.16"/>
<path d="M216.875 43L220.268 33.601H221.802L225.188 43H223.784L222.9 40.5365H219.176L218.285 43H216.875ZM219.52 39.2755H222.536L221.028 34.953L219.52 39.2755ZM229.207 43.13C228.601 43.13 228.061 42.9978 227.589 42.7335C227.117 42.4648 226.746 42.0727 226.477 41.557C226.209 41.037 226.074 40.4065 226.074 39.6655C226.074 38.9678 226.198 38.3547 226.445 37.826C226.696 37.2973 227.056 36.8857 227.524 36.591C227.992 36.2963 228.553 36.149 229.207 36.149C229.714 36.149 230.163 36.2487 230.553 36.448C230.943 36.643 231.259 36.916 231.502 37.267C231.749 37.618 231.898 38.0275 231.95 38.4955H230.741C230.707 38.2745 230.624 38.0687 230.494 37.878C230.364 37.6873 230.193 37.5357 229.981 37.423C229.769 37.306 229.515 37.2475 229.22 37.2475C228.679 37.2475 228.239 37.4447 227.901 37.839C227.563 38.2333 227.394 38.8378 227.394 39.6525C227.394 40.3978 227.552 40.9915 227.868 41.4335C228.185 41.8755 228.642 42.0965 229.24 42.0965C229.535 42.0965 229.788 42.0358 230 41.9145C230.213 41.7932 230.382 41.6372 230.507 41.4465C230.637 41.2558 230.72 41.0587 230.754 40.855H231.937C231.885 41.3057 231.736 41.7022 231.489 42.0445C231.246 42.3868 230.93 42.6533 230.54 42.844C230.15 43.0347 229.706 43.13 229.207 43.13ZM235.83 43.0455C235.332 43.0455 234.946 42.9783 234.673 42.844C234.4 42.7097 234.209 42.5168 234.101 42.2655C233.993 42.0098 233.939 41.7022 233.939 41.3425V37.28H232.847V36.279H233.984L234.322 34.303H235.336V36.2725H236.844V37.28H235.336L235.343 41.2905C235.343 41.5115 235.364 41.674 235.408 41.778C235.455 41.8777 235.533 41.9427 235.642 41.973C235.754 41.999 235.906 42.012 236.097 42.012H236.877V42.9155C236.794 42.9502 236.666 42.9805 236.493 43.0065C236.324 43.0325 236.103 43.0455 235.83 43.0455ZM238.436 43V36.279H239.775V43H238.436ZM238.404 34.979V33.6075H239.801V34.979H238.404ZM243.48 43L241.023 36.279H242.31L244.013 41.2385H244.104L245.807 36.279H247.094L244.65 43H243.48ZM251.066 43.13C250.429 43.13 249.868 42.9935 249.382 42.7205C248.897 42.4432 248.518 42.0488 248.245 41.5375C247.976 41.0262 247.842 40.4173 247.842 39.711C247.842 39.0133 247.965 38.398 248.212 37.865C248.459 37.3277 248.817 36.9073 249.285 36.604C249.753 36.3007 250.316 36.149 250.975 36.149C251.621 36.149 252.167 36.2877 252.613 36.565C253.059 36.8423 253.397 37.2323 253.627 37.735C253.857 38.2333 253.971 38.8227 253.971 39.503V39.9645H249.239C249.235 40.3675 249.3 40.7293 249.434 41.05C249.569 41.3663 249.768 41.6177 250.032 41.804C250.301 41.986 250.635 42.077 251.033 42.077C251.436 42.077 251.783 41.986 252.073 41.804C252.368 41.622 252.561 41.3512 252.652 40.9915H253.939C253.861 41.4508 253.677 41.8408 253.386 42.1615C253.096 42.4822 252.747 42.7248 252.34 42.8895C251.933 43.0498 251.508 43.13 251.066 43.13ZM249.239 39.061H252.645C252.645 38.71 252.585 38.3915 252.463 38.1055C252.342 37.8152 252.156 37.5877 251.904 37.423C251.657 37.254 251.345 37.1695 250.968 37.1695C250.583 37.1695 250.262 37.2627 250.006 37.449C249.751 37.6353 249.558 37.8737 249.428 38.164C249.302 38.4543 249.239 38.7533 249.239 39.061Z" fill="#28C76F"/>
<g filter="url(#filter1_d_9064_31232)">
<path d="M24 75C24 74.1716 24.6716 73.5 25.5 73.5H113.5C114.328 73.5 115 74.1716 115 75C115 75.8284 114.328 76.5 113.5 76.5H25.5C24.6716 76.5 24 75.8284 24 75Z" fill="#4E71FF"/>
</g>
<path opacity="0.68" d="M24 75C24 74.1716 24.6716 73.5 25.5 73.5H217.5C218.328 73.5 219 74.1716 219 75C219 75.8284 218.328 76.5 217.5 76.5H25.5C24.6716 76.5 24 75.8284 24 75Z" fill="#2F2B3D" fill-opacity="0.08"/>
<path d="M227.787 80V79.2135V78.7975C227.787 78.3208 227.875 77.907 228.053 77.556C228.235 77.205 228.473 76.8995 228.768 76.6395C229.063 76.3752 229.386 76.1412 229.737 75.9375C230.092 75.7338 230.445 75.5388 230.796 75.3525C231.147 75.1662 231.47 74.9733 231.765 74.774C232.059 74.5703 232.295 74.3428 232.473 74.0915C232.655 73.8358 232.746 73.5368 232.746 73.1945C232.746 72.7438 232.588 72.3777 232.272 72.096C231.955 71.8143 231.526 71.6735 230.985 71.6735C230.408 71.6735 229.94 71.836 229.581 72.161C229.221 72.486 229.013 72.9345 228.957 73.5065H227.592C227.605 72.9475 227.741 72.4383 228.001 71.979C228.261 71.5197 228.645 71.1535 229.152 70.8805C229.659 70.6075 230.287 70.471 231.037 70.471C231.687 70.471 232.248 70.5858 232.72 70.8155C233.197 71.0408 233.565 71.3572 233.825 71.7645C234.085 72.1718 234.215 72.6463 234.215 73.188C234.215 73.669 234.126 74.0828 233.949 74.4295C233.771 74.7762 233.537 75.0752 233.247 75.3265C232.961 75.5778 232.644 75.801 232.298 75.996C231.951 76.1867 231.604 76.3708 231.258 76.5485C230.911 76.7218 230.592 76.906 230.302 77.101C230.012 77.2917 229.778 77.5083 229.6 77.751C229.422 77.9937 229.334 78.2862 229.334 78.6285V78.791H234.248V80H227.787ZM238.888 80.143C238.212 80.1387 237.622 80.0195 237.12 79.7855C236.617 79.5472 236.225 79.2113 235.943 78.778C235.662 78.3447 235.512 77.8333 235.495 77.244H236.866C236.957 77.8117 237.187 78.2428 237.555 78.5375C237.928 78.8278 238.385 78.973 238.927 78.973C239.369 78.973 239.75 78.9058 240.071 78.7715C240.396 78.6328 240.647 78.4443 240.825 78.206C241.002 77.9633 241.091 77.6817 241.091 77.361C241.091 77.0143 240.994 76.7197 240.799 76.477C240.608 76.2343 240.344 76.0502 240.006 75.9245C239.672 75.7945 239.297 75.7252 238.881 75.7165L238.017 75.697V74.54L238.823 74.514C239.217 74.5053 239.566 74.4317 239.869 74.293C240.177 74.15 240.417 73.9637 240.591 73.734C240.764 73.5043 240.851 73.2508 240.851 72.9735C240.851 72.7222 240.773 72.4925 240.617 72.2845C240.465 72.0765 240.244 71.9118 239.954 71.7905C239.668 71.6648 239.323 71.602 238.92 71.602C238.595 71.602 238.285 71.6627 237.991 71.784C237.7 71.9053 237.46 72.0982 237.269 72.3625C237.083 72.6225 236.981 72.9627 236.964 73.383H235.599C235.599 72.7547 235.748 72.226 236.047 71.797C236.351 71.3637 236.754 71.0343 237.256 70.809C237.763 70.5837 238.324 70.471 238.94 70.471C239.603 70.471 240.19 70.5642 240.701 70.7505C241.213 70.9368 241.613 71.212 241.904 71.576C242.198 71.94 242.346 72.3885 242.346 72.9215C242.346 73.3852 242.201 73.8033 241.91 74.176C241.624 74.5443 241.178 74.8325 240.571 75.0405C240.966 75.1488 241.314 75.3092 241.618 75.5215C241.921 75.7295 242.157 75.9895 242.326 76.3015C242.5 76.6135 242.586 76.9753 242.586 77.387C242.586 77.8247 242.493 78.2147 242.307 78.557C242.12 78.8993 241.86 79.1897 241.527 79.428C241.193 79.6663 240.801 79.8462 240.35 79.9675C239.9 80.0888 239.412 80.1473 238.888 80.143ZM243.368 80.429L246.631 70.601H247.671L244.408 80.429H243.368ZM251.875 80.143C251.199 80.1387 250.61 80.0195 250.107 79.7855C249.604 79.5472 249.212 79.2113 248.931 78.778C248.649 78.3447 248.499 77.8333 248.482 77.244H249.854C249.945 77.8117 250.174 78.2428 250.543 78.5375C250.915 78.8278 251.372 78.973 251.914 78.973C252.356 78.973 252.737 78.9058 253.058 78.7715C253.383 78.6328 253.634 78.4443 253.812 78.206C253.99 77.9633 254.079 77.6817 254.079 77.361C254.079 77.0143 253.981 76.7197 253.786 76.477C253.595 76.2343 253.331 76.0502 252.993 75.9245C252.659 75.7945 252.285 75.7252 251.869 75.7165L251.004 75.697V74.54L251.81 74.514C252.204 74.5053 252.553 74.4317 252.857 74.293C253.164 74.15 253.405 73.9637 253.578 73.734C253.751 73.5043 253.838 73.2508 253.838 72.9735C253.838 72.7222 253.76 72.4925 253.604 72.2845C253.452 72.0765 253.231 71.9118 252.941 71.7905C252.655 71.6648 252.311 71.602 251.908 71.602C251.583 71.602 251.273 71.6627 250.978 71.784C250.688 71.9053 250.447 72.0982 250.257 72.3625C250.07 72.6225 249.968 72.9627 249.951 73.383H248.586C248.586 72.7547 248.736 72.226 249.035 71.797C249.338 71.3637 249.741 71.0343 250.244 70.809C250.751 70.5837 251.312 70.471 251.927 70.471C252.59 70.471 253.177 70.5642 253.689 70.7505C254.2 70.9368 254.601 71.212 254.891 71.576C255.186 71.94 255.333 72.3885 255.333 72.9215C255.333 73.3852 255.188 73.8033 254.898 74.176C254.612 74.5443 254.165 74.8325 253.559 75.0405C253.953 75.1488 254.302 75.3092 254.605 75.5215C254.908 75.7295 255.145 75.9895 255.314 76.3015C255.487 76.6135 255.574 76.9753 255.574 77.387C255.574 77.8247 255.48 78.2147 255.294 78.557C255.108 78.8993 254.848 79.1897 254.514 79.428C254.18 79.6663 253.788 79.8462 253.338 79.9675C252.887 80.0888 252.399 80.1473 251.875 80.143ZM260.147 80.143C259.085 80.143 258.249 79.7378 257.638 78.9275C257.027 78.1128 256.721 76.9147 256.721 75.333C256.721 74.2713 256.862 73.3808 257.144 72.6615C257.426 71.9378 257.822 71.3918 258.333 71.0235C258.849 70.6552 259.456 70.471 260.153 70.471C261.198 70.471 262.028 70.8827 262.643 71.706C263.263 72.525 263.572 73.7297 263.572 75.32C263.572 76.9017 263.265 78.102 262.649 78.921C262.038 79.7357 261.204 80.143 260.147 80.143ZM260.153 78.96C260.795 78.96 261.276 78.6783 261.596 78.115C261.917 77.5473 262.077 76.6178 262.077 75.3265C262.077 74.0092 261.915 73.0623 261.59 72.486C261.265 71.9053 260.784 71.615 260.147 71.615C259.514 71.615 259.031 71.9075 258.697 72.4925C258.364 73.0732 258.197 74.0178 258.197 75.3265C258.197 76.6135 258.362 77.5408 258.691 78.1085C259.025 78.6762 259.512 78.96 260.153 78.96Z" fill="#2F2B3D" fill-opacity="0.7"/>
<path d="M114.849 102.606C114.489 101.999 114.177 101.399 113.913 100.805C113.653 100.211 113.449 99.596 113.302 98.959C113.159 98.322 113.088 97.6352 113.088 96.8985C113.088 95.8238 113.261 94.7925 113.608 93.8045C113.954 92.8122 114.401 91.9152 114.947 91.1135H115.772C115.33 91.9542 114.966 92.875 114.68 93.876C114.394 94.8727 114.251 95.8845 114.251 96.9115C114.251 97.8865 114.372 98.8377 114.615 99.765C114.858 100.688 115.209 101.635 115.668 102.606H114.849ZM117.361 101V91.601C117.391 91.601 117.482 91.6032 117.634 91.6075C117.79 91.6075 117.979 91.6075 118.2 91.6075C118.421 91.6032 118.65 91.6032 118.889 91.6075C119.127 91.6075 119.346 91.6097 119.545 91.614C120.698 91.6313 121.632 91.8198 122.347 92.1795C123.066 92.5348 123.592 93.0527 123.926 93.733C124.264 94.4133 124.433 95.2497 124.433 96.242C124.433 97.282 124.251 98.1552 123.887 98.8615C123.527 99.5678 122.977 100.101 122.236 100.46C121.499 100.82 120.561 101 119.422 101H117.361ZM118.596 99.9665H119.422C120.197 99.9665 120.865 99.8473 121.424 99.609C121.983 99.3663 122.412 98.9742 122.711 98.4325C123.014 97.8908 123.166 97.1672 123.166 96.2615C123.166 95.3558 123.018 94.6387 122.724 94.11C122.433 93.5813 122.013 93.2043 121.463 92.979C120.912 92.7493 120.249 92.6345 119.474 92.6345H118.596V99.9665ZM128.013 101.13C127.575 101.13 127.189 101.054 126.856 100.902C126.526 100.746 126.266 100.523 126.076 100.233C125.889 99.9427 125.796 99.5917 125.796 99.18C125.796 98.4347 126.056 97.88 126.576 97.516C127.096 97.152 127.93 96.957 129.079 96.931L130.275 96.8985V96.372C130.275 95.9603 130.151 95.6353 129.904 95.397C129.657 95.1543 129.276 95.033 128.76 95.033C128.375 95.0373 128.034 95.1283 127.74 95.306C127.445 95.4837 127.257 95.774 127.174 96.177H126.115C126.141 95.7393 126.262 95.371 126.479 95.072C126.7 94.7687 127.01 94.539 127.408 94.383C127.807 94.227 128.277 94.149 128.819 94.149C129.404 94.149 129.889 94.2313 130.275 94.396C130.665 94.5607 130.955 94.8033 131.146 95.124C131.341 95.4447 131.438 95.839 131.438 96.307V101H130.411L130.32 99.739C130.065 100.263 129.735 100.627 129.332 100.831C128.934 101.03 128.494 101.13 128.013 101.13ZM128.37 100.265C128.6 100.265 128.825 100.224 129.046 100.142C129.272 100.06 129.475 99.9492 129.657 99.8105C129.844 99.6675 129.993 99.5093 130.106 99.336C130.218 99.1583 130.275 98.9763 130.275 98.79V97.6395L129.28 97.659C128.765 97.6677 128.336 97.7197 127.993 97.815C127.651 97.9103 127.393 98.0598 127.22 98.2635C127.046 98.4672 126.96 98.7337 126.96 99.063C126.96 99.44 127.092 99.7347 127.356 99.947C127.621 100.159 127.959 100.265 128.37 100.265ZM133.767 103.145C133.373 103.145 133.102 103.117 132.955 103.061C132.807 103.004 132.734 102.976 132.734 102.976V102.196L133.423 102.209C133.67 102.218 133.875 102.2 134.04 102.157C134.205 102.114 134.337 102.055 134.437 101.982C134.536 101.908 134.612 101.826 134.664 101.735C134.72 101.644 134.766 101.557 134.801 101.475L135.035 100.837L132.409 94.279H133.624L135.607 99.466L137.576 94.279H138.753L135.925 101.507C135.747 101.932 135.55 102.263 135.334 102.502C135.121 102.74 134.883 102.907 134.619 103.002C134.359 103.097 134.075 103.145 133.767 103.145ZM142.346 101.13C141.878 101.13 141.442 101.059 141.039 100.915C140.64 100.768 140.309 100.541 140.045 100.233C139.78 99.921 139.616 99.5245 139.551 99.0435H140.643C140.699 99.3078 140.807 99.5288 140.968 99.7065C141.128 99.8798 141.325 100.012 141.559 100.103C141.797 100.19 142.057 100.233 142.339 100.233C142.794 100.233 143.16 100.148 143.438 99.9795C143.715 99.8105 143.854 99.5505 143.854 99.1995C143.854 98.9525 143.78 98.7553 143.633 98.608C143.49 98.4563 143.264 98.3458 142.957 98.2765L141.566 97.932C141.024 97.802 140.591 97.5983 140.266 97.321C139.945 97.0437 139.782 96.6558 139.778 96.1575C139.778 95.7632 139.873 95.4165 140.064 95.1175C140.255 94.8185 140.539 94.5823 140.916 94.409C141.297 94.2357 141.771 94.149 142.339 94.149C143.071 94.149 143.661 94.3137 144.107 94.643C144.553 94.968 144.787 95.4468 144.809 96.0795H143.743C143.7 95.7588 143.557 95.5053 143.314 95.319C143.071 95.1283 142.742 95.033 142.326 95.033C141.901 95.033 141.553 95.1197 141.28 95.293C141.011 95.462 140.877 95.7263 140.877 96.086C140.877 96.3243 140.972 96.5128 141.163 96.6515C141.358 96.7858 141.639 96.8985 142.008 96.9895L143.36 97.3275C143.667 97.4098 143.923 97.5182 144.127 97.6525C144.33 97.7868 144.491 97.9363 144.608 98.101C144.725 98.2657 144.807 98.439 144.855 98.621C144.907 98.7987 144.933 98.9698 144.933 99.1345C144.933 99.5462 144.831 99.9015 144.627 100.2C144.423 100.495 144.129 100.725 143.743 100.889C143.357 101.05 142.892 101.13 142.346 101.13ZM149.861 101L149.868 91.601H151.096V99.921H155.536V101H149.861ZM159.704 101.13C159.08 101.13 158.529 100.994 158.053 100.72C157.576 100.447 157.203 100.055 156.935 99.544C156.666 99.0327 156.532 98.4195 156.532 97.7045C156.532 96.9982 156.653 96.3785 156.896 95.8455C157.138 95.3125 157.489 94.8965 157.949 94.5975C158.412 94.2985 158.969 94.149 159.619 94.149C160.252 94.149 160.787 94.2855 161.225 94.5585C161.662 94.8315 161.994 95.2172 162.219 95.7155C162.449 96.2095 162.564 96.7967 162.564 97.477V97.919H157.747C157.747 98.3437 157.816 98.7293 157.955 99.076C158.098 99.4183 158.313 99.6913 158.599 99.895C158.885 100.099 159.246 100.2 159.684 100.2C160.113 100.2 160.481 100.101 160.789 99.9015C161.101 99.7022 161.3 99.414 161.387 99.037H162.518C162.44 99.492 162.258 99.8755 161.972 100.188C161.69 100.499 161.35 100.736 160.952 100.896C160.557 101.052 160.141 101.13 159.704 101.13ZM157.754 97.1065H161.407C161.407 96.7208 161.342 96.3742 161.212 96.0665C161.082 95.7545 160.882 95.5097 160.614 95.332C160.349 95.15 160.016 95.059 159.613 95.059C159.192 95.059 158.843 95.1608 158.566 95.3645C158.289 95.5638 158.083 95.8217 157.949 96.138C157.814 96.45 157.749 96.7728 157.754 97.1065ZM164.857 101V95.1565H163.433V94.279H164.857V93.239C164.857 92.706 164.991 92.3008 165.26 92.0235C165.533 91.7418 165.94 91.601 166.482 91.601H167.749L167.756 92.4525H166.755C166.477 92.4525 166.289 92.5262 166.189 92.6735C166.09 92.8208 166.04 93.044 166.04 93.343V94.279H167.691V95.1565H166.059V101H164.857ZM171.159 101.033C170.695 101.033 170.335 100.97 170.08 100.844C169.824 100.718 169.644 100.532 169.54 100.285C169.441 100.038 169.391 99.7347 169.391 99.375V95.1565H168.299V94.279H169.423L169.716 92.3225H170.6V94.2725H172.114V95.1565H170.6V99.336C170.6 99.5743 170.624 99.7498 170.671 99.8625C170.723 99.9708 170.808 100.04 170.925 100.07C171.042 100.101 171.206 100.116 171.419 100.116H172.153V100.922C172.071 100.952 171.945 100.978 171.776 101C171.612 101.022 171.406 101.033 171.159 101.033ZM173.162 102.606C173.621 101.635 173.972 100.688 174.215 99.765C174.457 98.8377 174.579 97.8865 174.579 96.9115C174.579 95.8845 174.436 94.8727 174.15 93.876C173.864 92.875 173.5 91.9542 173.058 91.1135H173.883C174.429 91.9152 174.873 92.8122 175.216 93.8045C175.562 94.7925 175.736 95.8238 175.736 96.8985C175.736 97.6352 175.664 98.322 175.521 98.959C175.378 99.596 175.175 100.211 174.91 100.805C174.646 101.399 174.336 101.999 173.981 102.606H173.162Z" fill="#2F2B3D" fill-opacity="0.7"/>
</g>
<defs>
<filter id="filter0_d_9064_31232" x="0" y="-9" width="289" height="142" filterUnits="userSpaceOnUse" color-interpolation-filters="sRGB">
<feFlood flood-opacity="0" result="BackgroundImageFix"/>
<feColorMatrix in="SourceAlpha" type="matrix" values="0 0 0 0 0 0 0 0 0 0 0 0 0 0 0 0 0 0 127 0" result="hardAlpha"/>
<feOffset dy="3"/>
<feGaussianBlur stdDeviation="6"/>
<feComposite in2="hardAlpha" operator="out"/>
<feColorMatrix type="matrix" values="0 0 0 0 0.184314 0 0 0 0 0.168627 0 0 0 0 0.239216 0 0 0 0.14 0"/>
<feBlend mode="normal" in2="BackgroundImageFix" result="effect1_dropShadow_9064_31232"/>
<feBlend mode="normal" in="SourceGraphic" in2="effect1_dropShadow_9064_31232" result="shape"/>
</filter>
<filter id="filter1_d_9064_31232" x="18" y="69.5" width="103" height="15" filterUnits="userSpaceOnUse" color-interpolation-filters="sRGB">
<feFlood flood-opacity="0" result="BackgroundImageFix"/>
<feColorMatrix in="SourceAlpha" type="matrix" values="0 0 0 0 0 0 0 0 0 0 0 0 0 0 0 0 0 0 127 0" result="hardAlpha"/>
<feOffset dy="2"/>
<feGaussianBlur stdDeviation="3"/>
<feComposite in2="hardAlpha" operator="out"/>
<feColorMatrix type="matrix" values="0 0 0 0 0.45098 0 0 0 0 0.403922 0 0 0 0 0.941176 0 0 0 0.3 0"/>
<feBlend mode="normal" in2="BackgroundImageFix" result="effect1_dropShadow_9064_31232"/>
<feBlend mode="normal" in="SourceGraphic" in2="effect1_dropShadow_9064_31232" result="shape"/>
</filter>
</defs>
</svg>
