<svg width="715" height="112" viewBox="0 0 715 112" fill="none" xmlns="http://www.w3.org/2000/svg">
<g filter="url(#filter0_d_9431_106461)">
<path d="M12 15C12 11.6863 14.6863 9 18 9H697C700.314 9 703 11.6863 703 15V91C703 94.3137 700.314 97 697 97H18C14.6863 97 12 94.3137 12 91V15Z" fill="white"/>
<path d="M58.3475 48.15C57.9775 48.15 57.62 48.11 57.275 48.03C56.93 47.95 56.6925 47.8875 56.5625 47.8425L56.645 46.3275C56.8 46.3775 56.975 46.44 57.17 46.515C57.37 46.585 57.6125 46.62 57.8975 46.62C58.3875 46.62 58.7225 46.485 58.9025 46.215C59.0825 45.945 59.1725 45.4975 59.1725 44.8725V37.155H60.785V45.315C60.785 45.925 60.715 46.4425 60.575 46.8675C60.44 47.2875 60.1975 47.6075 59.8475 47.8275C59.4975 48.0425 58.9975 48.15 58.3475 48.15ZM66.1415 48.15C65.4165 48.15 64.784 47.995 64.244 47.685C63.704 47.37 63.284 46.915 62.984 46.32C62.684 45.725 62.534 45.005 62.534 44.16C62.534 43.345 62.6765 42.6325 62.9615 42.0225C63.2465 41.4125 63.6565 40.94 64.1915 40.605C64.7315 40.265 65.384 40.095 66.149 40.095C66.879 40.095 67.5115 40.255 68.0465 40.575C68.5815 40.89 68.9965 41.3525 69.2915 41.9625C69.5865 42.5675 69.734 43.3 69.734 44.16C69.734 44.945 69.5965 45.6375 69.3215 46.2375C69.0465 46.8375 68.6415 47.3075 68.1065 47.6475C67.5765 47.9825 66.9215 48.15 66.1415 48.15ZM66.149 46.9125C66.594 46.9125 66.964 46.7975 67.259 46.5675C67.554 46.3325 67.7765 46.005 67.9265 45.585C68.0765 45.16 68.1515 44.67 68.1515 44.115C68.1515 43.6 68.084 43.1325 67.949 42.7125C67.819 42.2875 67.6065 41.95 67.3115 41.7C67.0215 41.45 66.634 41.325 66.149 41.325C65.704 41.325 65.329 41.44 65.024 41.67C64.724 41.895 64.499 42.2175 64.349 42.6375C64.199 43.0525 64.124 43.545 64.124 44.115C64.124 44.62 64.1915 45.085 64.3265 45.51C64.4615 45.935 64.6765 46.275 64.9715 46.53C65.2715 46.785 65.664 46.9125 66.149 46.9125ZM75.4544 48.15C75.0194 48.15 74.6494 48.0925 74.3444 47.9775C74.0394 47.8625 73.7869 47.715 73.5869 47.535C73.3919 47.355 73.2369 47.165 73.1219 46.965C73.0119 46.765 72.9269 46.58 72.8669 46.41L72.6944 48H71.4869V36.855H73.1069V41.4225C73.1769 41.2875 73.2794 41.1425 73.4144 40.9875C73.5544 40.8325 73.7269 40.6875 73.9319 40.5525C74.1419 40.4175 74.3844 40.3075 74.6594 40.2225C74.9344 40.1375 75.2444 40.095 75.5894 40.095C76.5544 40.095 77.3194 40.435 77.8844 41.115C78.4544 41.795 78.7394 42.785 78.7394 44.085C78.7394 44.905 78.6169 45.62 78.3719 46.23C78.1269 46.835 77.7594 47.3075 77.2694 47.6475C76.7844 47.9825 76.1794 48.15 75.4544 48.15ZM75.1394 46.9425C75.7294 46.9425 76.2094 46.7125 76.5794 46.2525C76.9544 45.7925 77.1419 45.0525 77.1419 44.0325C77.1419 43.1525 76.9669 42.48 76.6169 42.015C76.2719 41.55 75.7719 41.3175 75.1169 41.3175C74.6469 41.3175 74.2644 41.4225 73.9694 41.6325C73.6744 41.8375 73.4569 42.1425 73.3169 42.5475C73.1819 42.9525 73.1119 43.4475 73.1069 44.0325C73.1069 45.0675 73.2669 45.8125 73.5869 46.2675C73.9069 46.7175 74.4244 46.9425 75.1394 46.9425ZM86.6449 48V38.6175H83.2099V37.155H91.5424V38.6175H88.2649V48H86.6449ZM92.999 48V40.245H94.544V48H92.999ZM92.9615 38.745V37.1625H94.574V38.745H92.9615ZM99.733 48.0525C99.158 48.0525 98.713 47.975 98.398 47.82C98.083 47.665 97.863 47.4425 97.738 47.1525C97.613 46.8575 97.5505 46.5025 97.5505 46.0875V41.4H96.2905V40.245H97.603L97.993 37.965H99.163V40.2375H100.903V41.4H99.163L99.1705 46.0275C99.1705 46.2825 99.1955 46.47 99.2455 46.59C99.3005 46.705 99.3905 46.78 99.5155 46.815C99.6455 46.845 99.8205 46.86 100.04 46.86H100.94V47.9025C100.845 47.9425 100.698 47.9775 100.498 48.0075C100.303 48.0375 100.048 48.0525 99.733 48.0525ZM104.803 48.105C104.343 48.105 103.973 48.045 103.693 47.925C103.418 47.805 103.208 47.645 103.063 47.445C102.918 47.24 102.82 47.01 102.77 46.755C102.725 46.495 102.703 46.2275 102.703 45.9525V36.855H104.285V45.7875C104.285 46.1475 104.355 46.4225 104.495 46.6125C104.64 46.8025 104.86 46.91 105.155 46.935L105.56 46.95V47.97C105.435 48.01 105.305 48.0425 105.17 48.0675C105.04 48.0925 104.918 48.105 104.803 48.105ZM110.311 48.15C109.576 48.15 108.928 47.9925 108.368 47.6775C107.808 47.3575 107.371 46.9025 107.056 46.3125C106.746 45.7225 106.591 45.02 106.591 44.205C106.591 43.4 106.733 42.69 107.018 42.075C107.303 41.455 107.716 40.97 108.256 40.62C108.796 40.27 109.446 40.095 110.206 40.095C110.951 40.095 111.581 40.255 112.096 40.575C112.611 40.895 113.001 41.345 113.266 41.925C113.531 42.5 113.663 43.18 113.663 43.965V44.4975H108.203C108.198 44.9625 108.273 45.38 108.428 45.75C108.583 46.115 108.813 46.405 109.118 46.62C109.428 46.83 109.813 46.935 110.273 46.935C110.738 46.935 111.138 46.83 111.473 46.62C111.813 46.41 112.036 46.0975 112.141 45.6825H113.626C113.536 46.2125 113.323 46.6625 112.988 47.0325C112.653 47.4025 112.251 47.6825 111.781 47.8725C111.311 48.0575 110.821 48.15 110.311 48.15ZM108.203 43.455H112.133C112.133 43.05 112.063 42.6825 111.923 42.3525C111.783 42.0175 111.568 41.755 111.278 41.565C110.993 41.37 110.633 41.2725 110.198 41.2725C109.753 41.2725 109.383 41.38 109.088 41.595C108.793 41.81 108.571 42.085 108.421 42.42C108.276 42.755 108.203 43.1 108.203 43.455Z" fill="#2F2B3D" fill-opacity="0.9"/>
<path d="M58.0605 69.13C57.7268 69.13 57.4127 69.091 57.118 69.013C56.8277 68.935 56.6348 68.8765 56.5395 68.8375L56.624 67.687C56.7583 67.7347 56.9122 67.7953 57.0855 67.869C57.2632 67.9383 57.482 67.973 57.742 67.973C58.1667 67.973 58.457 67.856 58.613 67.622C58.7733 67.388 58.8535 66.9937 58.8535 66.439V59.601H60.056V66.7835C60.056 67.2818 59.9997 67.7065 59.887 68.0575C59.7743 68.4085 59.5728 68.675 59.2825 68.857C58.9965 69.039 58.5892 69.13 58.0605 69.13ZM64.7382 69.13C64.1186 69.13 63.5769 68.9978 63.1132 68.7335C62.6539 68.4648 62.2964 68.0727 62.0407 67.557C61.7851 67.0413 61.6572 66.4108 61.6572 65.6655C61.6572 64.9635 61.7764 64.3482 62.0147 63.8195C62.2531 63.2908 62.6019 62.8813 63.0612 62.591C63.5206 62.2963 64.0817 62.149 64.7447 62.149C65.3644 62.149 65.9017 62.2855 66.3567 62.5585C66.8117 62.8272 67.1649 63.2237 67.4162 63.748C67.6719 64.2723 67.7997 64.9115 67.7997 65.6655C67.7997 66.3502 67.6827 66.9525 67.4487 67.4725C67.2147 67.9925 66.8702 68.3998 66.4152 68.6945C65.9646 68.9848 65.4056 69.13 64.7382 69.13ZM64.7447 68.181C65.1434 68.181 65.4814 68.0792 65.7587 67.8755C66.0361 67.6718 66.2462 67.3793 66.3892 66.998C66.5366 66.6167 66.6102 66.1638 66.6102 65.6395C66.6102 65.1585 66.5452 64.7273 66.4152 64.346C66.2896 63.9603 66.0902 63.6548 65.8172 63.4295C65.5442 63.2042 65.1867 63.0915 64.7447 63.0915C64.3374 63.0915 63.9929 63.1933 63.7112 63.397C63.4296 63.5963 63.2151 63.8867 63.0677 64.268C62.9247 64.6493 62.8532 65.1065 62.8532 65.6395C62.8532 66.1118 62.9161 66.5408 63.0417 66.9265C63.1717 67.3122 63.3754 67.6177 63.6527 67.843C63.9344 68.0683 64.2984 68.181 64.7447 68.181ZM72.7193 69.13C72.325 69.13 71.9913 69.078 71.7183 68.974C71.4497 68.87 71.2287 68.7378 71.0553 68.5775C70.882 68.4128 70.7477 68.246 70.6523 68.077C70.557 67.9037 70.4877 67.752 70.4443 67.622L70.3143 69H69.3978V59.341H70.6068V63.345C70.6632 63.2323 70.7477 63.1088 70.8603 62.9745C70.9773 62.8402 71.1268 62.7102 71.3088 62.5845C71.4908 62.4588 71.7053 62.3548 71.9523 62.2725C72.2037 62.1902 72.4897 62.149 72.8103 62.149C73.651 62.149 74.3183 62.4415 74.8123 63.0265C75.3107 63.6115 75.5598 64.4738 75.5598 65.6135C75.5598 66.3198 75.4537 66.9373 75.2413 67.466C75.029 67.9903 74.7127 68.3998 74.2923 68.6945C73.872 68.9848 73.3477 69.13 72.7193 69.13ZM72.5048 68.207C73.0508 68.207 73.495 67.9968 73.8373 67.5765C74.1797 67.1518 74.3508 66.478 74.3508 65.555C74.3508 64.7707 74.1905 64.164 73.8698 63.735C73.5535 63.3017 73.0898 63.085 72.4788 63.085C72.0325 63.085 71.6728 63.1825 71.3998 63.3775C71.1312 63.5682 70.9318 63.8477 70.8018 64.216C70.6762 64.5843 70.6112 65.0307 70.6068 65.555C70.6068 66.4953 70.752 67.1735 71.0423 67.5895C71.337 68.0012 71.8245 68.207 72.5048 68.207ZM80.4866 69V59.601H81.6891V69H80.4866ZM84.1683 69V59.601C84.1986 59.601 84.2896 59.6032 84.4413 59.6075C84.5973 59.6075 84.7858 59.6075 85.0068 59.6075C85.2278 59.6032 85.4574 59.6032 85.6958 59.6075C85.9341 59.6075 86.1529 59.6097 86.3523 59.614C87.5049 59.6313 88.4388 59.8198 89.1538 60.1795C89.8731 60.5348 90.3996 61.0527 90.7333 61.733C91.0713 62.4133 91.2403 63.2497 91.2403 64.242C91.2403 65.282 91.0583 66.1552 90.6943 66.8615C90.3346 67.5678 89.7843 68.1008 89.0433 68.4605C88.3066 68.8202 87.3684 69 86.2288 69H84.1683ZM85.4033 67.9665H86.2288C87.0044 67.9665 87.6718 67.8473 88.2308 67.609C88.7898 67.3663 89.2188 66.9742 89.5178 66.4325C89.8211 65.8908 89.9728 65.1672 89.9728 64.2615C89.9728 63.3558 89.8254 62.6387 89.5308 62.11C89.2404 61.5813 88.8201 61.2043 88.2698 60.979C87.7194 60.7493 87.0564 60.6345 86.2808 60.6345H85.4033V67.9665Z" fill="#2F2B3D" fill-opacity="0.7"/>
<path d="M100.048 69.0195L99.3071 68.9155L100.724 59.5815L101.459 59.666L100.048 69.0195ZM95.5761 65.9515V65.217H102.005V65.9515H95.5761ZM97.3831 69.0195L96.6421 68.9155L98.0591 59.5815L98.7936 59.666L97.3831 69.0195ZM95.9921 63.2865V62.552H102.421V63.2865H95.9921ZM106.88 69.143C106.234 69.1387 105.665 69.0195 105.171 68.7855C104.681 68.5515 104.295 68.2243 104.014 67.804C103.732 67.3793 103.58 66.8767 103.559 66.296H104.761C104.852 66.881 105.09 67.3295 105.476 67.6415C105.862 67.9535 106.345 68.1095 106.926 68.1095C107.385 68.1095 107.786 68.038 108.128 67.895C108.47 67.7477 108.735 67.5462 108.921 67.2905C109.107 67.0348 109.201 66.7358 109.201 66.3935C109.201 66.0165 109.097 65.698 108.889 65.438C108.681 65.178 108.397 64.9808 108.037 64.8465C107.677 64.7078 107.277 64.6363 106.835 64.632L105.99 64.6125V63.592L106.796 63.5725C107.207 63.5638 107.576 63.4858 107.901 63.3385C108.226 63.1868 108.481 62.9897 108.668 62.747C108.858 62.5 108.954 62.2292 108.954 61.9345C108.954 61.6745 108.873 61.434 108.713 61.213C108.553 60.9877 108.321 60.8078 108.018 60.6735C107.719 60.5392 107.355 60.472 106.926 60.472C106.588 60.472 106.265 60.5392 105.957 60.6735C105.649 60.8035 105.396 61.005 105.197 61.278C104.997 61.551 104.891 61.9042 104.878 62.3375H103.682C103.682 61.7308 103.829 61.2152 104.124 60.7905C104.419 60.3615 104.811 60.0343 105.301 59.809C105.795 59.5837 106.338 59.471 106.932 59.471C107.582 59.471 108.156 59.5663 108.655 59.757C109.153 59.9433 109.543 60.2163 109.825 60.576C110.106 60.9357 110.247 61.3755 110.247 61.8955C110.247 62.3592 110.1 62.7795 109.805 63.1565C109.51 63.5292 109.06 63.8217 108.453 64.034C108.865 64.1467 109.224 64.3113 109.532 64.528C109.84 64.7447 110.078 65.0112 110.247 65.3275C110.416 65.6395 110.501 65.9992 110.501 66.4065C110.501 66.8355 110.41 67.2212 110.228 67.5635C110.05 67.9015 109.799 68.1897 109.474 68.428C109.149 68.662 108.765 68.8418 108.323 68.9675C107.881 69.0888 107.4 69.1473 106.88 69.143ZM114.992 69.143C114.347 69.1387 113.777 69.0195 113.283 68.7855C112.793 68.5515 112.408 68.2243 112.126 67.804C111.844 67.3793 111.693 66.8767 111.671 66.296H112.873C112.964 66.881 113.203 67.3295 113.588 67.6415C113.974 67.9535 114.457 68.1095 115.038 68.1095C115.497 68.1095 115.898 68.038 116.24 67.895C116.583 67.7477 116.847 67.5462 117.033 67.2905C117.22 67.0348 117.313 66.7358 117.313 66.3935C117.313 66.0165 117.209 65.698 117.001 65.438C116.793 65.178 116.509 64.9808 116.149 64.8465C115.79 64.7078 115.389 64.6363 114.947 64.632L114.102 64.6125V63.592L114.908 63.5725C115.32 63.5638 115.688 63.4858 116.013 63.3385C116.338 63.1868 116.594 62.9897 116.78 62.747C116.971 62.5 117.066 62.2292 117.066 61.9345C117.066 61.6745 116.986 61.434 116.825 61.213C116.665 60.9877 116.433 60.8078 116.13 60.6735C115.831 60.5392 115.467 60.472 115.038 60.472C114.7 60.472 114.377 60.5392 114.069 60.6735C113.762 60.8035 113.508 61.005 113.309 61.278C113.11 61.551 113.003 61.9042 112.99 62.3375H111.794C111.794 61.7308 111.942 61.2152 112.236 60.7905C112.531 60.3615 112.923 60.0343 113.413 59.809C113.907 59.5837 114.451 59.471 115.044 59.471C115.694 59.471 116.269 59.5663 116.767 59.757C117.265 59.9433 117.655 60.2163 117.937 60.576C118.219 60.9357 118.359 61.3755 118.359 61.8955C118.359 62.3592 118.212 62.7795 117.917 63.1565C117.623 63.5292 117.172 63.8217 116.565 64.034C116.977 64.1467 117.337 64.3113 117.644 64.528C117.952 64.7447 118.19 65.0112 118.359 65.3275C118.528 65.6395 118.613 65.9992 118.613 66.4065C118.613 66.8355 118.522 67.2212 118.34 67.5635C118.162 67.9015 117.911 68.1897 117.586 68.428C117.261 68.662 116.877 68.8418 116.435 68.9675C115.993 69.0888 115.512 69.1473 114.992 69.143ZM124.241 69V66.6015H119.814V65.503L124.195 59.601H125.417V65.542H126.977V66.6015H125.417V69H124.241ZM120.965 65.542H124.215V61.1805L120.965 65.542Z" fill="#4E71FF" fill-opacity="0.7"/>
<path d="M159.573 58V47.155H163.33C164.105 47.155 164.798 47.2875 165.408 47.5525C166.023 47.8175 166.505 48.2075 166.855 48.7225C167.21 49.2375 167.388 49.87 167.388 50.62C167.388 51.34 167.225 51.955 166.9 52.465C166.58 52.97 166.13 53.3575 165.55 53.6275C164.975 53.8925 164.308 54.025 163.548 54.025H161.208V58H159.573ZM161.2 52.7125H163.503C164.193 52.7125 164.755 52.515 165.19 52.12C165.625 51.72 165.843 51.19 165.843 50.53C165.843 49.86 165.618 49.3475 165.168 48.9925C164.718 48.6325 164.143 48.4525 163.443 48.4525H161.2V52.7125ZM170.948 58.15C170.448 58.15 170.003 58.06 169.613 57.88C169.228 57.7 168.926 57.44 168.706 57.1C168.486 56.76 168.376 56.35 168.376 55.87C168.376 55.01 168.678 54.3675 169.283 53.9425C169.893 53.5175 170.868 53.2925 172.208 53.2675L173.483 53.23V52.6675C173.483 52.2225 173.351 51.8725 173.086 51.6175C172.821 51.3625 172.411 51.2375 171.856 51.2425C171.446 51.2425 171.078 51.3375 170.753 51.5275C170.428 51.7175 170.216 52.03 170.116 52.465H168.728C168.758 51.95 168.906 51.5175 169.171 51.1675C169.441 50.8125 169.811 50.545 170.281 50.365C170.751 50.185 171.301 50.095 171.931 50.095C172.641 50.095 173.223 50.1925 173.678 50.3875C174.133 50.5775 174.471 50.8575 174.691 51.2275C174.916 51.5975 175.028 52.0475 175.028 52.5775V58H173.663L173.543 56.575C173.253 57.17 172.886 57.5825 172.441 57.8125C171.996 58.0375 171.498 58.15 170.948 58.15ZM171.451 57.0325C171.696 57.0325 171.938 56.99 172.178 56.905C172.418 56.815 172.636 56.695 172.831 56.545C173.026 56.39 173.181 56.2175 173.296 56.0275C173.416 55.8375 173.478 55.6425 173.483 55.4425V54.16L172.433 54.1825C171.898 54.1875 171.443 54.2425 171.068 54.3475C170.698 54.4525 170.413 54.615 170.213 54.835C170.018 55.055 169.921 55.3475 169.921 55.7125C169.921 56.1275 170.063 56.4525 170.348 56.6875C170.638 56.9175 171.006 57.0325 171.451 57.0325ZM177.123 58V50.245H178.668V58H177.123ZM177.085 48.745V47.1625H178.698V48.745H177.085ZM180.967 58V50.245H182.535V51.3625C182.66 51.1525 182.827 50.955 183.037 50.77C183.252 50.585 183.515 50.435 183.825 50.32C184.14 50.205 184.502 50.1475 184.912 50.1475C185.397 50.1475 185.845 50.245 186.255 50.44C186.67 50.63 187.002 50.93 187.252 51.34C187.502 51.745 187.627 52.27 187.627 52.915V58H186.022V53.0875C186.022 52.5325 185.872 52.12 185.572 51.85C185.277 51.58 184.895 51.445 184.425 51.445C184.11 51.445 183.81 51.4975 183.525 51.6025C183.24 51.7075 183.01 51.8675 182.835 52.0825C182.66 52.2925 182.572 52.5575 182.572 52.8775V58H180.967ZM192.338 58.0525C191.763 58.0525 191.318 57.975 191.003 57.82C190.688 57.665 190.468 57.4425 190.343 57.1525C190.218 56.8575 190.156 56.5025 190.156 56.0875V51.4H188.896V50.245H190.208L190.598 47.965H191.768V50.2375H193.508V51.4H191.768L191.776 56.0275C191.776 56.2825 191.801 56.47 191.851 56.59C191.906 56.705 191.996 56.78 192.121 56.815C192.251 56.845 192.426 56.86 192.646 56.86H193.546V57.9025C193.451 57.9425 193.303 57.9775 193.103 58.0075C192.908 58.0375 192.653 58.0525 192.338 58.0525ZM195.346 58V50.245H196.891V58H195.346ZM195.308 48.745V47.1625H196.921V48.745H195.308ZM199.19 58V50.245H200.757V51.3625C200.882 51.1525 201.05 50.955 201.26 50.77C201.475 50.585 201.737 50.435 202.047 50.32C202.362 50.205 202.725 50.1475 203.135 50.1475C203.62 50.1475 204.067 50.245 204.477 50.44C204.892 50.63 205.225 50.93 205.475 51.34C205.725 51.745 205.85 52.27 205.85 52.915V58H204.245V53.0875C204.245 52.5325 204.095 52.12 203.795 51.85C203.5 51.58 203.117 51.445 202.647 51.445C202.332 51.445 202.032 51.4975 201.747 51.6025C201.462 51.7075 201.232 51.8675 201.057 52.0825C200.882 52.2925 200.795 52.5575 200.795 52.8775V58H199.19ZM211.273 60.565C210.013 60.565 209.038 60.3875 208.348 60.0325C207.658 59.6825 207.313 59.1925 207.313 58.5625C207.313 58.2875 207.378 58.055 207.508 57.865C207.643 57.67 207.801 57.51 207.981 57.385C208.166 57.26 208.336 57.1625 208.491 57.0925C208.646 57.0175 208.746 56.965 208.791 56.935C208.706 56.885 208.596 56.8225 208.461 56.7475C208.331 56.6675 208.213 56.5625 208.108 56.4325C208.003 56.2975 207.951 56.1225 207.951 55.9075C207.951 55.6575 208.068 55.4275 208.303 55.2175C208.543 55.0025 208.903 54.845 209.383 54.745C208.913 54.515 208.548 54.205 208.288 53.815C208.028 53.425 207.898 53.01 207.898 52.57C207.898 52.065 208.041 51.63 208.326 51.265C208.611 50.895 209.011 50.6125 209.526 50.4175C210.046 50.2225 210.656 50.125 211.356 50.125C211.871 50.125 212.298 50.1825 212.638 50.2975C212.983 50.4125 213.301 50.5725 213.591 50.7775C213.686 50.7425 213.821 50.69 213.996 50.62C214.176 50.545 214.371 50.465 214.581 50.38C214.791 50.295 214.991 50.2125 215.181 50.1325C215.376 50.0525 215.533 49.9875 215.653 49.9375L215.646 51.3325L214.296 51.58C214.366 51.73 214.421 51.895 214.461 52.075C214.506 52.255 214.528 52.42 214.528 52.57C214.528 53.02 214.406 53.435 214.161 53.815C213.916 54.19 213.548 54.49 213.058 54.715C212.568 54.94 211.956 55.0525 211.221 55.0525C211.151 55.0525 211.061 55.0525 210.951 55.0525C210.841 55.0475 210.748 55.04 210.673 55.03C210.208 55.045 209.888 55.1 209.713 55.195C209.538 55.285 209.451 55.385 209.451 55.495C209.451 55.635 209.563 55.73 209.788 55.78C210.013 55.83 210.383 55.8725 210.898 55.9075C211.083 55.9225 211.318 55.9375 211.603 55.9525C211.893 55.9675 212.213 55.9875 212.563 56.0125C213.413 56.0625 214.061 56.275 214.506 56.65C214.956 57.025 215.181 57.5225 215.181 58.1425C215.181 58.8525 214.858 59.4325 214.213 59.8825C213.568 60.3375 212.588 60.565 211.273 60.565ZM211.551 59.5825C212.236 59.5825 212.753 59.4825 213.103 59.2825C213.453 59.0875 213.628 58.795 213.628 58.405C213.628 58.115 213.516 57.8775 213.291 57.6925C213.066 57.5075 212.728 57.4 212.278 57.37L210.208 57.235C210.003 57.225 209.798 57.27 209.593 57.37C209.393 57.47 209.228 57.61 209.098 57.79C208.968 57.965 208.903 58.16 208.903 58.375C208.903 58.765 209.118 59.0625 209.548 59.2675C209.978 59.4775 210.646 59.5825 211.551 59.5825ZM211.266 54.07C211.786 54.07 212.203 53.945 212.518 53.695C212.838 53.44 212.998 53.075 212.998 52.6C212.998 52.11 212.838 51.7325 212.518 51.4675C212.203 51.1975 211.786 51.0625 211.266 51.0625C210.741 51.0625 210.316 51.1975 209.991 51.4675C209.671 51.7375 209.511 52.115 209.511 52.6C209.511 53.06 209.663 53.42 209.968 53.68C210.278 53.94 210.711 54.07 211.266 54.07Z" fill="#2F2B3D" fill-opacity="0.9"/>
<path d="M246.773 50.5L246.78 39.655H248.408V49.09H253.418V50.5H246.773ZM258.061 50.65C257.336 50.65 256.704 50.495 256.164 50.185C255.624 49.87 255.204 49.415 254.904 48.82C254.604 48.225 254.454 47.505 254.454 46.66C254.454 45.845 254.596 45.1325 254.881 44.5225C255.166 43.9125 255.576 43.44 256.111 43.105C256.651 42.765 257.304 42.595 258.069 42.595C258.799 42.595 259.431 42.755 259.966 43.075C260.501 43.39 260.916 43.8525 261.211 44.4625C261.506 45.0675 261.654 45.8 261.654 46.66C261.654 47.445 261.516 48.1375 261.241 48.7375C260.966 49.3375 260.561 49.8075 260.026 50.1475C259.496 50.4825 258.841 50.65 258.061 50.65ZM258.069 49.4125C258.514 49.4125 258.884 49.2975 259.179 49.0675C259.474 48.8325 259.696 48.505 259.846 48.085C259.996 47.66 260.071 47.17 260.071 46.615C260.071 46.1 260.004 45.6325 259.869 45.2125C259.739 44.7875 259.526 44.45 259.231 44.2C258.941 43.95 258.554 43.825 258.069 43.825C257.624 43.825 257.249 43.94 256.944 44.17C256.644 44.395 256.419 44.7175 256.269 45.1375C256.119 45.5525 256.044 46.045 256.044 46.615C256.044 47.12 256.111 47.585 256.246 48.01C256.381 48.435 256.596 48.775 256.891 49.03C257.191 49.285 257.584 49.4125 258.069 49.4125ZM266.594 50.65C265.894 50.65 265.271 50.4975 264.726 50.1925C264.181 49.8825 263.754 49.43 263.444 48.835C263.134 48.235 262.979 47.5075 262.979 46.6525C262.979 45.8475 263.121 45.14 263.406 44.53C263.696 43.92 264.111 43.445 264.651 43.105C265.191 42.765 265.839 42.595 266.594 42.595C267.179 42.595 267.696 42.71 268.146 42.94C268.596 43.165 268.961 43.48 269.241 43.885C269.526 44.29 269.699 44.7625 269.759 45.3025H268.364C268.324 45.0475 268.229 44.81 268.079 44.59C267.929 44.37 267.731 44.195 267.486 44.065C267.241 43.93 266.949 43.8625 266.609 43.8625C265.984 43.8625 265.476 44.09 265.086 44.545C264.696 45 264.501 45.6975 264.501 46.6375C264.501 47.4975 264.684 48.1825 265.049 48.6925C265.414 49.2025 265.941 49.4575 266.631 49.4575C266.971 49.4575 267.264 49.3875 267.509 49.2475C267.754 49.1075 267.949 48.9275 268.094 48.7075C268.244 48.4875 268.339 48.26 268.379 48.025H269.744C269.684 48.545 269.511 49.0025 269.226 49.3975C268.946 49.7925 268.581 50.1 268.131 50.32C267.681 50.54 267.169 50.65 266.594 50.65ZM273.705 50.65C273.205 50.65 272.76 50.56 272.37 50.38C271.985 50.2 271.682 49.94 271.462 49.6C271.242 49.26 271.132 48.85 271.132 48.37C271.132 47.51 271.435 46.8675 272.04 46.4425C272.65 46.0175 273.625 45.7925 274.965 45.7675L276.24 45.73V45.1675C276.24 44.7225 276.107 44.3725 275.842 44.1175C275.577 43.8625 275.167 43.7375 274.612 43.7425C274.202 43.7425 273.835 43.8375 273.51 44.0275C273.185 44.2175 272.972 44.53 272.872 44.965H271.485C271.515 44.45 271.662 44.0175 271.927 43.6675C272.197 43.3125 272.567 43.045 273.037 42.865C273.507 42.685 274.057 42.595 274.687 42.595C275.397 42.595 275.98 42.6925 276.435 42.8875C276.89 43.0775 277.227 43.3575 277.447 43.7275C277.672 44.0975 277.785 44.5475 277.785 45.0775V50.5H276.42L276.3 49.075C276.01 49.67 275.642 50.0825 275.197 50.3125C274.752 50.5375 274.255 50.65 273.705 50.65ZM274.207 49.5325C274.452 49.5325 274.695 49.49 274.935 49.405C275.175 49.315 275.392 49.195 275.587 49.045C275.782 48.89 275.937 48.7175 276.052 48.5275C276.172 48.3375 276.235 48.1425 276.24 47.9425V46.66L275.19 46.6825C274.655 46.6875 274.2 46.7425 273.825 46.8475C273.455 46.9525 273.17 47.115 272.97 47.335C272.775 47.555 272.677 47.8475 272.677 48.2125C272.677 48.6275 272.82 48.9525 273.105 49.1875C273.395 49.4175 273.762 49.5325 274.207 49.5325ZM282.497 50.5525C281.922 50.5525 281.477 50.475 281.162 50.32C280.847 50.165 280.627 49.9425 280.502 49.6525C280.377 49.3575 280.315 49.0025 280.315 48.5875V43.9H279.055V42.745H280.367L280.757 40.465H281.927V42.7375H283.667V43.9H281.927L281.935 48.5275C281.935 48.7825 281.96 48.97 282.01 49.09C282.065 49.205 282.155 49.28 282.28 49.315C282.41 49.345 282.585 49.36 282.805 49.36H283.705V50.4025C283.61 50.4425 283.462 50.4775 283.262 50.5075C283.067 50.5375 282.812 50.5525 282.497 50.5525ZM285.505 50.5V42.745H287.05V50.5H285.505ZM285.467 41.245V39.6625H287.08V41.245H285.467ZM292.441 50.65C291.716 50.65 291.083 50.495 290.543 50.185C290.003 49.87 289.583 49.415 289.283 48.82C288.983 48.225 288.833 47.505 288.833 46.66C288.833 45.845 288.976 45.1325 289.261 44.5225C289.546 43.9125 289.956 43.44 290.491 43.105C291.031 42.765 291.683 42.595 292.448 42.595C293.178 42.595 293.811 42.755 294.346 43.075C294.881 43.39 295.296 43.8525 295.591 44.4625C295.886 45.0675 296.033 45.8 296.033 46.66C296.033 47.445 295.896 48.1375 295.621 48.7375C295.346 49.3375 294.941 49.8075 294.406 50.1475C293.876 50.4825 293.221 50.65 292.441 50.65ZM292.448 49.4125C292.893 49.4125 293.263 49.2975 293.558 49.0675C293.853 48.8325 294.076 48.505 294.226 48.085C294.376 47.66 294.451 47.17 294.451 46.615C294.451 46.1 294.383 45.6325 294.248 45.2125C294.118 44.7875 293.906 44.45 293.611 44.2C293.321 43.95 292.933 43.825 292.448 43.825C292.003 43.825 291.628 43.94 291.323 44.17C291.023 44.395 290.798 44.7175 290.648 45.1375C290.498 45.5525 290.423 46.045 290.423 46.615C290.423 47.12 290.491 47.585 290.626 48.01C290.761 48.435 290.976 48.775 291.271 49.03C291.571 49.285 291.963 49.4125 292.448 49.4125ZM297.786 50.5V42.745H299.354V43.8625C299.479 43.6525 299.646 43.455 299.856 43.27C300.071 43.085 300.334 42.935 300.644 42.82C300.959 42.705 301.321 42.6475 301.731 42.6475C302.216 42.6475 302.664 42.745 303.074 42.94C303.489 43.13 303.821 43.43 304.071 43.84C304.321 44.245 304.446 44.77 304.446 45.415V50.5H302.841V45.5875C302.841 45.0325 302.691 44.62 302.391 44.35C302.096 44.08 301.714 43.945 301.244 43.945C300.929 43.945 300.629 43.9975 300.344 44.1025C300.059 44.2075 299.829 44.3675 299.654 44.5825C299.479 44.7925 299.391 45.0575 299.391 45.3775V50.5H297.786Z" fill="#2F2B3D" fill-opacity="0.9"/>
<path d="M248.735 71.5V63.206H245.699V62.101H252.81V63.206H249.944V71.5H248.735ZM255.903 71.63C255.283 71.63 254.742 71.4978 254.278 71.2335C253.819 70.9648 253.461 70.5727 253.205 70.057C252.95 69.5413 252.822 68.9108 252.822 68.1655C252.822 67.4635 252.941 66.8482 253.179 66.3195C253.418 65.7908 253.767 65.3813 254.226 65.091C254.685 64.7963 255.246 64.649 255.909 64.649C256.529 64.649 257.066 64.7855 257.521 65.0585C257.976 65.3272 258.33 65.7237 258.581 66.248C258.837 66.7723 258.964 67.4115 258.964 68.1655C258.964 68.8502 258.847 69.4525 258.613 69.9725C258.379 70.4925 258.035 70.8998 257.58 71.1945C257.129 71.4848 256.57 71.63 255.903 71.63ZM255.909 70.681C256.308 70.681 256.646 70.5792 256.923 70.3755C257.201 70.1718 257.411 69.8793 257.554 69.498C257.701 69.1167 257.775 68.6638 257.775 68.1395C257.775 67.6585 257.71 67.2273 257.58 66.846C257.454 66.4603 257.255 66.1548 256.982 65.9295C256.709 65.7042 256.351 65.5915 255.909 65.5915C255.502 65.5915 255.158 65.6933 254.876 65.897C254.594 66.0963 254.38 66.3867 254.232 66.768C254.089 67.1493 254.018 67.6065 254.018 68.1395C254.018 68.6118 254.081 69.0408 254.206 69.4265C254.336 69.8122 254.54 70.1177 254.817 70.343C255.099 70.5683 255.463 70.681 255.909 70.681ZM260.562 71.5V64.779H261.706V66.0725C261.819 65.7518 261.977 65.4875 262.181 65.2795C262.385 65.0672 262.616 64.909 262.876 64.805C263.141 64.701 263.414 64.649 263.695 64.649C263.795 64.649 263.893 64.6555 263.988 64.6685C264.083 64.6815 264.157 64.7032 264.209 64.7335V65.897C264.144 65.8667 264.059 65.8472 263.955 65.8385C263.856 65.8255 263.771 65.819 263.702 65.819C263.433 65.8017 263.182 65.819 262.948 65.871C262.714 65.9187 262.508 66.0032 262.33 66.1245C262.153 66.2458 262.012 66.4062 261.908 66.6055C261.808 66.8005 261.758 67.0388 261.758 67.3205V71.5H260.562ZM268.23 71.63C267.61 71.63 267.069 71.4978 266.605 71.2335C266.146 70.9648 265.788 70.5727 265.533 70.057C265.277 69.5413 265.149 68.9108 265.149 68.1655C265.149 67.4635 265.268 66.8482 265.507 66.3195C265.745 65.7908 266.094 65.3813 266.553 65.091C267.012 64.7963 267.574 64.649 268.237 64.649C268.856 64.649 269.394 64.7855 269.849 65.0585C270.304 65.3272 270.657 65.7237 270.908 66.248C271.164 66.7723 271.292 67.4115 271.292 68.1655C271.292 68.8502 271.175 69.4525 270.941 69.9725C270.707 70.4925 270.362 70.8998 269.907 71.1945C269.456 71.4848 268.897 71.63 268.23 71.63ZM268.237 70.681C268.635 70.681 268.973 70.5792 269.251 70.3755C269.528 70.1718 269.738 69.8793 269.881 69.498C270.028 69.1167 270.102 68.6638 270.102 68.1395C270.102 67.6585 270.037 67.2273 269.907 66.846C269.781 66.4603 269.582 66.1548 269.309 65.9295C269.036 65.7042 268.679 65.5915 268.237 65.5915C267.829 65.5915 267.485 65.6933 267.203 65.897C266.921 66.0963 266.707 66.3867 266.56 66.768C266.417 67.1493 266.345 67.6065 266.345 68.1395C266.345 68.6118 266.408 69.0408 266.534 69.4265C266.664 69.8122 266.867 70.1177 267.145 70.343C267.426 70.5683 267.79 70.681 268.237 70.681ZM272.89 71.5V64.779H274.053V65.754C274.161 65.5677 274.311 65.3922 274.502 65.2275C274.697 65.0628 274.931 64.9307 275.204 64.831C275.481 64.7313 275.799 64.6815 276.159 64.6815C276.584 64.6815 276.974 64.766 277.329 64.935C277.689 65.104 277.975 65.3683 278.187 65.728C278.404 66.0833 278.512 66.5427 278.512 67.106V71.5H277.31V67.223C277.31 66.6987 277.171 66.3108 276.894 66.0595C276.621 65.8038 276.265 65.676 275.828 65.676C275.524 65.676 275.24 65.7258 274.976 65.8255C274.712 65.9208 274.497 66.0682 274.333 66.2675C274.168 66.4625 274.086 66.7095 274.086 67.0085V71.5H272.89ZM282.577 71.5325C282.113 71.5325 281.753 71.4697 281.498 71.344C281.242 71.2183 281.062 71.032 280.958 70.785C280.859 70.538 280.809 70.2347 280.809 69.875V65.6565H279.717V64.779H280.841L281.134 62.8225H282.018V64.7725H283.532V65.6565H282.018V69.836C282.018 70.0743 282.042 70.2498 282.089 70.3625C282.141 70.4708 282.226 70.5402 282.343 70.5705C282.46 70.6008 282.624 70.616 282.837 70.616H283.571V71.422C283.489 71.4523 283.363 71.4783 283.194 71.5C283.03 71.5217 282.824 71.5325 282.577 71.5325ZM287.679 71.63C287.06 71.63 286.518 71.4978 286.054 71.2335C285.595 70.9648 285.237 70.5727 284.982 70.057C284.726 69.5413 284.598 68.9108 284.598 68.1655C284.598 67.4635 284.717 66.8482 284.956 66.3195C285.194 65.7908 285.543 65.3813 286.002 65.091C286.462 64.7963 287.023 64.649 287.686 64.649C288.305 64.649 288.843 64.7855 289.298 65.0585C289.753 65.3272 290.106 65.7237 290.357 66.248C290.613 66.7723 290.741 67.4115 290.741 68.1655C290.741 68.8502 290.624 69.4525 290.39 69.9725C290.156 70.4925 289.811 70.8998 289.356 71.1945C288.906 71.4848 288.347 71.63 287.679 71.63ZM287.686 70.681C288.084 70.681 288.422 70.5792 288.7 70.3755C288.977 70.1718 289.187 69.8793 289.33 69.498C289.478 69.1167 289.551 68.6638 289.551 68.1395C289.551 67.6585 289.486 67.2273 289.356 66.846C289.231 66.4603 289.031 66.1548 288.758 65.9295C288.485 65.7042 288.128 65.5915 287.686 65.5915C287.278 65.5915 286.934 65.6933 286.652 65.897C286.371 66.0963 286.156 66.3867 286.009 66.768C285.866 67.1493 285.794 67.6065 285.794 68.1395C285.794 68.6118 285.857 69.0408 285.983 69.4265C286.113 69.8122 286.316 70.1177 286.594 70.343C286.875 70.5683 287.239 70.681 287.686 70.681Z" fill="#2F2B3D" fill-opacity="0.7"/>
<path d="M348.032 58V47.155H349.952L353.222 56.11L356.537 47.155H358.45V58H357.017V49.2325L353.875 58H352.577L349.457 49.315V58H348.032ZM363.165 58.15C362.66 58.15 362.215 58.0625 361.83 57.8875C361.45 57.7075 361.15 57.45 360.93 57.115C360.715 56.78 360.607 56.375 360.607 55.9C360.607 55.04 360.907 54.4 361.507 53.98C362.107 53.56 363.07 53.335 364.395 53.305L365.775 53.2675V52.66C365.775 52.185 365.632 51.81 365.347 51.535C365.062 51.255 364.622 51.115 364.027 51.115C363.582 51.12 363.19 51.225 362.85 51.43C362.51 51.635 362.292 51.97 362.197 52.435H360.975C361.005 51.93 361.145 51.505 361.395 51.16C361.65 50.81 362.007 50.545 362.467 50.365C362.927 50.185 363.47 50.095 364.095 50.095C364.77 50.095 365.33 50.19 365.775 50.38C366.225 50.57 366.56 50.85 366.78 51.22C367.005 51.59 367.117 52.045 367.117 52.585V58H365.932L365.827 56.545C365.532 57.15 365.152 57.57 364.687 57.805C364.227 58.035 363.72 58.15 363.165 58.15ZM363.577 57.1525C363.842 57.1525 364.102 57.105 364.357 57.01C364.617 56.915 364.852 56.7875 365.062 56.6275C365.277 56.4625 365.45 56.28 365.58 56.08C365.71 55.875 365.775 55.665 365.775 55.45V54.1225L364.627 54.145C364.032 54.155 363.537 54.215 363.142 54.325C362.747 54.435 362.45 54.6075 362.25 54.8425C362.05 55.0775 361.95 55.385 361.95 55.765C361.95 56.2 362.102 56.54 362.407 56.785C362.712 57.03 363.102 57.1525 363.577 57.1525ZM369.281 58V50.245H370.601V51.7375C370.731 51.3675 370.913 51.0625 371.148 50.8225C371.383 50.5775 371.651 50.395 371.951 50.275C372.256 50.155 372.571 50.095 372.896 50.095C373.011 50.095 373.123 50.1025 373.233 50.1175C373.343 50.1325 373.428 50.1575 373.488 50.1925V51.535C373.413 51.5 373.316 51.4775 373.196 51.4675C373.081 51.4525 372.983 51.445 372.903 51.445C372.593 51.425 372.303 51.445 372.033 51.505C371.763 51.56 371.526 51.6575 371.321 51.7975C371.116 51.9375 370.953 52.1225 370.833 52.3525C370.718 52.5775 370.661 52.8525 370.661 53.1775V58H369.281ZM380.43 58V49.3675H378.338V48.46C378.988 48.46 379.493 48.4125 379.853 48.3175C380.213 48.2225 380.468 48.0775 380.618 47.8825C380.773 47.6875 380.858 47.445 380.873 47.155H381.863V58H380.43ZM386.403 58C386.483 57.505 386.626 56.8925 386.831 56.1625C387.041 55.4325 387.316 54.635 387.656 53.77C387.996 52.9 388.406 52.0025 388.886 51.0775C389.366 50.1525 389.916 49.245 390.536 48.355H384.446V47.155H392.058V48.355C391.673 48.88 391.291 49.4775 390.911 50.1475C390.536 50.8125 390.178 51.51 389.838 52.24C389.498 52.965 389.193 53.6825 388.923 54.3925C388.653 55.0975 388.428 55.7625 388.248 56.3875C388.073 57.0075 387.961 57.545 387.911 58H386.403ZM391.593 59.8825L392.433 58.03L391.781 57.9925V56.335H393.513V57.775L392.238 59.8825H391.593ZM399.049 58V57.1525V56.71C399.049 56.155 399.151 55.675 399.356 55.27C399.566 54.865 399.841 54.5125 400.181 54.2125C400.526 53.9075 400.901 53.635 401.306 53.395C401.716 53.155 402.124 52.925 402.529 52.705C402.939 52.48 403.314 52.2475 403.654 52.0075C403.994 51.7625 404.266 51.4875 404.471 51.1825C404.681 50.8725 404.786 50.5075 404.786 50.0875C404.786 49.5375 404.591 49.09 404.201 48.745C403.816 48.4 403.294 48.2275 402.634 48.2275C401.924 48.2275 401.354 48.4275 400.924 48.8275C400.494 49.2275 400.251 49.76 400.196 50.425H398.816C398.831 49.8 398.986 49.23 399.281 48.715C399.576 48.195 400.009 47.78 400.579 47.47C401.149 47.16 401.851 47.005 402.686 47.005C403.411 47.005 404.041 47.135 404.576 47.395C405.111 47.65 405.524 48.01 405.814 48.475C406.109 48.935 406.256 49.4725 406.256 50.0875C406.256 50.6475 406.154 51.1275 405.949 51.5275C405.744 51.9275 405.471 52.275 405.131 52.57C404.796 52.86 404.429 53.12 404.029 53.35C403.629 53.58 403.226 53.8025 402.821 54.0175C402.416 54.2275 402.046 54.45 401.711 54.685C401.376 54.915 401.106 55.18 400.901 55.48C400.696 55.78 400.594 56.1375 400.594 56.5525V56.77H406.316V58H399.049ZM411.637 58.165C410.452 58.165 409.512 57.7 408.817 56.77C408.122 55.835 407.774 54.4525 407.774 52.6225C407.774 51.3875 407.934 50.3525 408.254 49.5175C408.574 48.6825 409.024 48.055 409.604 47.635C410.184 47.215 410.867 47.005 411.652 47.005C412.827 47.005 413.762 47.4775 414.457 48.4225C415.157 49.3625 415.507 50.755 415.507 52.6C415.507 54.435 415.159 55.8225 414.464 56.7625C413.769 57.6975 412.827 58.165 411.637 58.165ZM411.652 56.965C412.427 56.965 413.012 56.625 413.407 55.945C413.807 55.26 414.007 54.1475 414.007 52.6075C414.007 51.0375 413.804 49.9075 413.399 49.2175C412.999 48.5225 412.414 48.175 411.644 48.175C410.879 48.175 410.289 48.525 409.874 49.225C409.464 49.92 409.259 51.0475 409.259 52.6075C409.259 54.1425 409.464 55.2525 409.874 55.9375C410.284 56.6225 410.877 56.965 411.652 56.965ZM417.169 58V57.1525V56.71C417.169 56.155 417.271 55.675 417.476 55.27C417.686 54.865 417.961 54.5125 418.301 54.2125C418.646 53.9075 419.021 53.635 419.426 53.395C419.836 53.155 420.244 52.925 420.649 52.705C421.059 52.48 421.434 52.2475 421.774 52.0075C422.114 51.7625 422.386 51.4875 422.591 51.1825C422.801 50.8725 422.906 50.5075 422.906 50.0875C422.906 49.5375 422.711 49.09 422.321 48.745C421.936 48.4 421.414 48.2275 420.754 48.2275C420.044 48.2275 419.474 48.4275 419.044 48.8275C418.614 49.2275 418.371 49.76 418.316 50.425H416.936C416.951 49.8 417.106 49.23 417.401 48.715C417.696 48.195 418.129 47.78 418.699 47.47C419.269 47.16 419.971 47.005 420.806 47.005C421.531 47.005 422.161 47.135 422.696 47.395C423.231 47.65 423.644 48.01 423.934 48.475C424.229 48.935 424.376 49.4725 424.376 50.0875C424.376 50.6475 424.274 51.1275 424.069 51.5275C423.864 51.9275 423.591 52.275 423.251 52.57C422.916 52.86 422.549 53.12 422.149 53.35C421.749 53.58 421.346 53.8025 420.941 54.0175C420.536 54.2275 420.166 54.45 419.831 54.685C419.496 54.915 419.226 55.18 419.021 55.48C418.816 55.78 418.714 56.1375 418.714 56.5525V56.77H424.436V58H417.169ZM429.727 58.165C428.982 58.16 428.324 58.0225 427.754 57.7525C427.189 57.4825 426.744 57.105 426.419 56.62C426.094 56.13 425.919 55.55 425.894 54.88H427.282C427.387 55.555 427.662 56.0725 428.107 56.4325C428.552 56.7925 429.109 56.9725 429.779 56.9725C430.309 56.9725 430.772 56.89 431.167 56.725C431.562 56.555 431.867 56.3225 432.082 56.0275C432.297 55.7325 432.404 55.3875 432.404 54.9925C432.404 54.5575 432.284 54.19 432.044 53.89C431.804 53.59 431.477 53.3625 431.062 53.2075C430.647 53.0475 430.184 52.965 429.674 52.96L428.699 52.9375V51.76L429.629 51.7375C430.104 51.7275 430.529 51.6375 430.904 51.4675C431.279 51.2925 431.574 51.065 431.789 50.785C432.009 50.5 432.119 50.1875 432.119 49.8475C432.119 49.5475 432.027 49.27 431.842 49.015C431.657 48.755 431.389 48.5475 431.039 48.3925C430.694 48.2375 430.274 48.16 429.779 48.16C429.389 48.16 429.017 48.2375 428.662 48.3925C428.307 48.5425 428.014 48.775 427.784 49.09C427.554 49.405 427.432 49.8125 427.417 50.3125H426.037C426.037 49.6125 426.207 49.0175 426.547 48.5275C426.887 48.0325 427.339 47.655 427.904 47.395C428.474 47.135 429.102 47.005 429.787 47.005C430.537 47.005 431.199 47.115 431.774 47.335C432.349 47.55 432.799 47.865 433.124 48.28C433.449 48.695 433.612 49.2025 433.612 49.8025C433.612 50.3375 433.442 50.8225 433.102 51.2575C432.762 51.6875 432.242 52.025 431.542 52.27C432.017 52.4 432.432 52.59 432.787 52.84C433.142 53.09 433.417 53.3975 433.612 53.7625C433.807 54.1225 433.904 54.5375 433.904 55.0075C433.904 55.5025 433.799 55.9475 433.589 56.3425C433.384 56.7325 433.094 57.065 432.719 57.34C432.344 57.61 431.902 57.8175 431.392 57.9625C430.882 58.1025 430.327 58.17 429.727 58.165Z" fill="#2F2B3D" fill-opacity="0.7"/>
<path d="M464.8 45C464.8 42.7909 466.591 41 468.8 41H519.8C522.009 41 523.8 42.7909 523.8 45V61C523.8 63.2091 522.009 65 519.8 65H468.8C466.591 65 464.8 63.2091 464.8 61V45Z" fill="#28C76F" fill-opacity="0.16"/>
<path d="M475.675 58L479.068 48.601H480.602L483.988 58H482.584L481.7 55.5365H477.976L477.085 58H475.675ZM478.32 54.2755H481.336L479.828 49.953L478.32 54.2755ZM488.007 58.13C487.401 58.13 486.861 57.9978 486.389 57.7335C485.917 57.4648 485.546 57.0727 485.277 56.557C485.009 56.037 484.874 55.4065 484.874 54.6655C484.874 53.9678 484.998 53.3547 485.245 52.826C485.496 52.2973 485.856 51.8857 486.324 51.591C486.792 51.2963 487.353 51.149 488.007 51.149C488.514 51.149 488.963 51.2487 489.353 51.448C489.743 51.643 490.059 51.916 490.302 52.267C490.549 52.618 490.698 53.0275 490.75 53.4955H489.541C489.507 53.2745 489.424 53.0687 489.294 52.878C489.164 52.6873 488.993 52.5357 488.781 52.423C488.569 52.306 488.315 52.2475 488.02 52.2475C487.479 52.2475 487.039 52.4447 486.701 52.839C486.363 53.2333 486.194 53.8378 486.194 54.6525C486.194 55.3978 486.352 55.9915 486.668 56.4335C486.985 56.8755 487.442 57.0965 488.04 57.0965C488.335 57.0965 488.588 57.0358 488.8 56.9145C489.013 56.7932 489.182 56.6372 489.307 56.4465C489.437 56.2558 489.52 56.0587 489.554 55.855H490.737C490.685 56.3057 490.536 56.7022 490.289 57.0445C490.046 57.3868 489.73 57.6533 489.34 57.844C488.95 58.0347 488.506 58.13 488.007 58.13ZM494.63 58.0455C494.132 58.0455 493.746 57.9783 493.473 57.844C493.2 57.7097 493.009 57.5168 492.901 57.2655C492.793 57.0098 492.739 56.7022 492.739 56.3425V52.28H491.647V51.279H492.784L493.122 49.303H494.136V51.2725H495.644V52.28H494.136L494.143 56.2905C494.143 56.5115 494.164 56.674 494.208 56.778C494.255 56.8777 494.333 56.9427 494.442 56.973C494.554 56.999 494.706 57.012 494.897 57.012H495.677V57.9155C495.594 57.9502 495.466 57.9805 495.293 58.0065C495.124 58.0325 494.903 58.0455 494.63 58.0455ZM497.236 58V51.279H498.575V58H497.236ZM497.204 49.979V48.6075H498.601V49.979H497.204ZM502.279 58L499.822 51.279H501.109L502.812 56.2385H502.903L504.606 51.279H505.893L503.449 58H502.279ZM509.866 58.13C509.229 58.13 508.668 57.9935 508.182 57.7205C507.697 57.4432 507.318 57.0488 507.045 56.5375C506.776 56.0262 506.642 55.4173 506.642 54.711C506.642 54.0133 506.765 53.398 507.012 52.865C507.259 52.3277 507.617 51.9073 508.085 51.604C508.553 51.3007 509.116 51.149 509.775 51.149C510.421 51.149 510.967 51.2877 511.413 51.565C511.859 51.8423 512.197 52.2323 512.427 52.735C512.657 53.2333 512.771 53.8227 512.771 54.503V54.9645H508.039C508.035 55.3675 508.1 55.7293 508.234 56.05C508.369 56.3663 508.568 56.6177 508.832 56.804C509.101 56.986 509.435 57.077 509.833 57.077C510.236 57.077 510.583 56.986 510.873 56.804C511.168 56.622 511.361 56.3512 511.452 55.9915H512.739C512.661 56.4508 512.477 56.8408 512.186 57.1615C511.896 57.4822 511.547 57.7248 511.14 57.8895C510.733 58.0498 510.308 58.13 509.866 58.13ZM508.039 54.061H511.445C511.445 53.71 511.385 53.3915 511.263 53.1055C511.142 52.8152 510.956 52.5877 510.704 52.423C510.457 52.254 510.145 52.1695 509.768 52.1695C509.383 52.1695 509.062 52.2627 508.806 52.449C508.551 52.6353 508.358 52.8737 508.228 53.164C508.102 53.4543 508.039 53.7533 508.039 54.061Z" fill="#28C76F"/>
<path d="M564.333 45.6667H562.5L559.75 54.8333" stroke="#2F2B3D" stroke-opacity="0.7" stroke-width="1.5" stroke-linecap="round" stroke-linejoin="round"/>
<path d="M571.667 45.6667H573.5L576.25 54.8333" stroke="#2F2B3D" stroke-opacity="0.9" stroke-width="1.5" stroke-linecap="round" stroke-linejoin="round"/>
<path d="M566.167 56.6667H569.833" stroke="#2F2B3D" stroke-opacity="0.9" stroke-width="1.5" stroke-linecap="round" stroke-linejoin="round"/>
<path d="M576.25 57.125C576.25 58.8969 574.814 60.3333 573.042 60.3333C571.27 60.3333 569.833 58.8969 569.833 57.125V54.8333H576.25V57.125" stroke="#2F2B3D" stroke-opacity="0.9" stroke-width="1.5" stroke-linecap="round" stroke-linejoin="round"/>
<path d="M566.167 57.125C566.167 58.8969 564.73 60.3333 562.958 60.3333C561.186 60.3333 559.75 58.8969 559.75 57.125V54.8333H566.167V57.125" stroke="#2F2B3D" stroke-opacity="0.9" stroke-width="1.5" stroke-linecap="round" stroke-linejoin="round"/>
<circle cx="606" cy="53" r="1.83333" stroke="#2F2B3D" stroke-opacity="0.7" stroke-width="1.5" stroke-linecap="round" stroke-linejoin="round"/>
<path d="M615.167 53C612.722 57.2781 609.667 59.4167 606 59.4167C602.333 59.4167 599.278 57.2781 596.833 53C599.278 48.7219 602.333 46.5833 606 46.5833C609.667 46.5833 612.722 48.7219 615.167 53" stroke="#2F2B3D" stroke-opacity="0.7" stroke-width="1.5" stroke-linecap="round" stroke-linejoin="round"/>
<circle cx="644" cy="53" r="0.916667" stroke="#2F2B3D" stroke-opacity="0.7" stroke-width="1.5" stroke-linecap="round" stroke-linejoin="round"/>
<circle cx="644" cy="59.4167" r="0.916667" stroke="#2F2B3D" stroke-opacity="0.7" stroke-width="1.5" stroke-linecap="round" stroke-linejoin="round"/>
<ellipse cx="644" cy="46.5833" rx="0.916667" ry="0.916667" stroke="#2F2B3D" stroke-opacity="0.7" stroke-width="1.5" stroke-linecap="round" stroke-linejoin="round"/>
</g>
<defs>
<filter id="filter0_d_9431_106461" x="0" y="0" width="715" height="112" filterUnits="userSpaceOnUse" color-interpolation-filters="sRGB">
<feFlood flood-opacity="0" result="BackgroundImageFix"/>
<feColorMatrix in="SourceAlpha" type="matrix" values="0 0 0 0 0 0 0 0 0 0 0 0 0 0 0 0 0 0 127 0" result="hardAlpha"/>
<feOffset dy="3"/>
<feGaussianBlur stdDeviation="6"/>
<feComposite in2="hardAlpha" operator="out"/>
<feColorMatrix type="matrix" values="0 0 0 0 0.184314 0 0 0 0 0.168627 0 0 0 0 0.239216 0 0 0 0.14 0"/>
<feBlend mode="normal" in2="BackgroundImageFix" result="effect1_dropShadow_9431_106461"/>
<feBlend mode="normal" in="SourceGraphic" in2="effect1_dropShadow_9431_106461" result="shape"/>
</filter>
</defs>
</svg>
