<svg width="366" height="307" viewBox="0 0 366 307" fill="none" xmlns="http://www.w3.org/2000/svg">
<g filter="url(#filter0_ddd_9451_117841)">
<g clip-path="url(#clip0_9451_117841)">
<rect x="32.1201" y="0.227539" width="328" height="259" rx="14" transform="rotate(5.56589 32.1201 0.227539)" fill="white" fill-opacity="0.01" shape-rendering="crispEdges"/>
<g clip-path="url(#clip1_9451_117841)">
<path d="M343.255 30.5878L45.8181 1.60258C37.6046 0.802177 30.2974 6.81168 29.497 15.0252L7.27502 243.06C6.47462 251.274 12.4841 258.581 20.6976 259.381L318.135 288.367C326.348 289.167 333.656 283.158 334.456 274.944L356.678 46.9089C357.478 38.6954 351.469 31.3882 343.255 30.5878Z" fill="white"/>
<path d="M29.497 15.0252C30.2975 6.81145 37.6044 0.802155 45.8181 1.60258L115.22 8.3658L90.0996 266.145L20.6976 259.381C12.4839 258.581 6.4746 251.274 7.27502 243.06L29.497 15.0252Z" fill="#F7F7F5"/>
<g filter="url(#filter1_d_9451_117841)">
<path fill-rule="evenodd" clip-rule="evenodd" d="M44.5031 22.9933C47.6624 23.3012 50.4721 20.9983 50.7789 17.8499C51.0857 14.7015 48.773 11.8994 45.6147 11.5916C42.455 11.2837 39.6458 13.5867 39.339 16.7351C39.0322 19.8834 41.3444 22.6855 44.5031 22.9933Z" fill="#EE6A5F"/>
</g>
<path d="M50.6549 17.8375C50.3548 20.917 47.6066 23.1704 44.5157 22.8692C41.4243 22.5679 39.1628 19.8263 39.4629 16.7469C39.763 13.6674 42.5113 11.414 45.6021 11.7152C48.6935 12.0165 50.955 14.7581 50.6549 17.8375Z" stroke="#CE5347" stroke-width="0.249038"/>
<g filter="url(#filter2_d_9451_117841)">
<path fill-rule="evenodd" clip-rule="evenodd" d="M63.5701 24.8513C66.7288 25.1591 69.5385 22.8562 69.8453 19.7078C70.1521 16.5594 67.8399 13.7573 64.6807 13.4495C61.5219 13.1417 58.7122 15.4446 58.4054 18.593C58.0986 21.7413 60.4113 24.5435 63.5701 24.8513Z" fill="#F5BD4F"/>
</g>
<path d="M69.7213 19.6959C69.4213 22.7754 66.673 25.0288 63.5816 24.7275C60.4907 24.4263 58.2292 21.6847 58.5293 18.6053C58.8294 15.5258 61.5777 13.2724 64.6685 13.5736C67.7599 13.8749 70.0214 16.6165 69.7213 19.6959Z" stroke="#D6A243" stroke-width="0.249038"/>
<g filter="url(#filter3_d_9451_117841)">
<path fill-rule="evenodd" clip-rule="evenodd" d="M82.636 26.7091C85.7952 27.017 88.6049 24.7141 88.9117 21.5657C89.2185 18.4173 86.9063 15.6153 83.7471 15.3074C80.5883 14.9996 77.7786 17.3025 77.4718 20.4509C77.165 23.5993 79.4772 26.4013 82.636 26.7091Z" fill="#61C454"/>
</g>
<path d="M88.7878 21.5538C88.4877 24.6333 85.7394 26.8867 82.648 26.5854C79.5571 26.2842 77.2956 23.5426 77.5957 20.4632C77.8958 17.3837 80.6441 15.1303 83.7349 15.4315C86.8263 15.7328 89.0878 18.4744 88.7878 21.5538Z" stroke="#58A942" stroke-width="0.249038"/>
<path d="M139.658 37.5498C143.328 37.986 146.222 40.8796 146.658 44.5498C148.455 43.5138 149.59 41.623 149.658 39.5498C153.092 38.3419 155.46 35.1845 155.658 31.5498C155.658 29.893 154.315 28.5498 152.658 28.5498C149.024 28.748 145.866 31.116 144.658 34.5498C142.585 34.6183 140.694 35.7527 139.658 37.5498" stroke="#2F2B3D" stroke-opacity="0.9" stroke-width="1.5" stroke-linecap="round" stroke-linejoin="round"/>
<path d="M142.658 38.5498C140.529 39.7518 139.343 42.1254 139.658 44.5498C142.083 44.8657 144.456 43.6789 145.658 41.5498" stroke="#2F2B3D" stroke-opacity="0.9" stroke-width="1.5" stroke-linecap="round" stroke-linejoin="round"/>
<circle cx="150.658" cy="33.5498" r="1" stroke="#2F2B3D" stroke-opacity="0.9" stroke-width="1.5" stroke-linecap="round" stroke-linejoin="round"/>
<path opacity="0.5" d="M288.325 121.819L135.64 106.94C130.986 106.486 126.845 109.892 126.392 114.546C125.938 119.2 129.343 123.341 133.998 123.795L286.682 138.674C291.337 139.127 295.477 135.722 295.931 131.068C296.384 126.413 292.979 122.273 288.325 121.819Z" fill="#E4E4E4"/>
<path d="M79.9798 46.468L43.7916 42.9415C40.2325 42.5946 37.066 45.1988 36.7192 48.7579C36.3723 52.3171 38.9764 55.4836 42.5356 55.8304L78.7238 59.357C82.283 59.7038 85.4495 57.0997 85.7963 53.5405C86.1431 49.9813 83.539 46.8149 79.9798 46.468Z" fill="#E9E8E8"/>
<path d="M99.3129 48.3521L98.3214 48.2555C94.7622 47.9086 91.5958 50.5127 91.2489 54.0719C90.9021 57.6311 93.5062 60.7976 97.0654 61.1444L98.0569 61.241C101.616 61.5879 104.782 58.9837 105.129 55.4246C105.476 51.8654 102.872 48.6989 99.3129 48.3521Z" fill="#EB5757"/>
<path opacity="0.5" d="M285.909 146.606L133.225 131.727C128.57 131.273 124.43 134.678 123.976 139.333C123.523 143.987 126.928 148.128 131.582 148.581L284.267 163.46C288.921 163.914 293.062 160.509 293.515 155.854C293.969 151.2 290.563 147.059 285.909 146.606Z" fill="#E4E4E4"/>
<path d="M78.3918 65.3296L41.7078 61.7547C38.2855 61.4212 35.2409 63.9252 34.9074 67.3475C34.5739 70.7698 37.0778 73.8145 40.5001 74.148L77.184 77.7228C80.6063 78.0563 83.651 75.5523 83.9845 72.13C84.318 68.7078 81.814 65.6631 78.3918 65.3296Z" fill="#E9E8E8"/>
<path opacity="0.5" d="M218.057 165.015L130.809 156.513C126.155 156.059 122.014 159.464 121.561 164.119C121.107 168.773 124.512 172.914 129.167 173.367L216.415 181.87C221.069 182.323 225.21 178.918 225.664 174.264C226.117 169.609 222.712 165.469 218.057 165.015Z" fill="#E4E4E4"/>
<path d="M87.3089 122.748L36.2489 117.772C32.8266 117.439 29.7819 119.943 29.4484 123.365C29.1149 126.787 31.6188 129.832 35.0411 130.166L86.1012 135.141C89.5235 135.475 92.5682 132.971 92.9017 129.549C93.2352 126.126 90.7312 123.082 87.3089 122.748Z" fill="#E9E8E8"/>
<path d="M74.5208 102.485L38.3327 98.9586C34.7735 98.6117 31.607 101.216 31.2602 104.775C30.9133 108.334 33.5174 111.501 37.0766 111.848L73.2648 115.374C76.824 115.721 79.9905 113.117 80.3373 109.558C80.6842 105.998 78.08 102.832 74.5208 102.485Z" fill="#E9E8E8"/>
<path d="M66.1884 139.206L34.4617 136.114C31.0395 135.781 27.9948 138.285 27.6613 141.707C27.3278 145.129 29.8317 148.174 33.254 148.507L64.9807 151.599C68.403 151.933 71.4476 149.429 71.7811 146.006C72.1146 142.584 69.6107 139.539 66.1884 139.206Z" fill="#E9E8E8"/>
<path d="M138.954 81.2313L136.574 75.9714L135.015 75.8194L134.529 80.7997L132.487 80.6006L133.701 68.1496L138.001 68.5689C138.956 68.6621 139.746 68.908 140.37 69.3064C141.007 69.7061 141.459 70.2023 141.726 70.7951C142.006 71.389 142.112 72.0323 142.045 72.7251C141.965 73.5372 141.654 74.2544 141.111 74.8766C140.581 75.4881 139.815 75.8655 138.813 76.0089L141.391 81.4689L138.954 81.2313ZM135.174 74.1891L137.431 74.4092C138.196 74.4838 138.788 74.3486 139.207 74.0037C139.638 73.6599 139.886 73.1656 139.949 72.5206C140.011 71.8757 139.869 71.3554 139.522 70.9599C139.176 70.5524 138.615 70.3107 137.838 70.235L135.581 70.0149L135.174 74.1891ZM153.09 77.3831C153.054 77.7533 152.997 78.0854 152.92 78.3794L145.378 77.6438C145.361 78.4379 145.592 79.0994 146.071 79.6284C146.549 80.1574 147.171 80.4592 147.936 80.5337C149.034 80.6409 149.855 80.2568 150.399 79.3814L152.603 79.5963C152.215 80.4749 151.599 81.1683 150.754 81.6767C149.922 82.1742 148.926 82.3665 147.768 82.2536C146.824 82.1615 145.997 81.8698 145.285 81.3784C144.586 80.8763 144.059 80.222 143.704 79.4157C143.362 78.5986 143.24 77.6825 143.339 76.6673C143.438 75.6521 143.728 74.7822 144.209 74.0574C144.702 73.3218 145.34 72.7812 146.121 72.4354C146.914 72.0907 147.794 71.9656 148.762 72.0599C149.693 72.1508 150.504 72.4347 151.193 72.9119C151.882 73.389 152.393 74.0176 152.727 74.7977C153.062 75.5658 153.183 76.4276 153.09 77.3831ZM151.021 76.5303C151.082 75.7767 150.872 75.1473 150.391 74.6422C149.91 74.1371 149.281 73.8467 148.505 73.771C147.8 73.7023 147.175 73.8704 146.629 74.2753C146.084 74.6683 145.727 75.2423 145.557 75.9974L151.021 76.5303ZM157.189 74.5095C157.58 74.0894 158.089 73.7532 158.716 73.5009C159.344 73.2486 160.034 73.1592 160.786 73.2326C161.646 73.3164 162.407 73.6077 163.07 74.1064C163.746 74.5943 164.25 75.2402 164.581 76.0442C164.913 76.8482 165.03 77.7458 164.934 78.7371C164.837 79.7284 164.547 80.5984 164.064 81.347C163.582 82.0837 162.962 82.6381 162.202 83.0101C161.455 83.3714 160.652 83.5101 159.792 83.4262C159.04 83.3528 158.385 83.1383 157.829 82.7826C157.274 82.415 156.834 81.9863 156.508 81.4963L155.91 87.6232L153.868 87.4241L155.289 72.8592L157.331 73.0583L157.189 74.5095ZM162.855 78.5344C162.922 77.8537 162.836 77.2545 162.597 76.7368C162.371 76.2084 162.037 75.7961 161.596 75.4999C161.168 75.1928 160.691 75.0137 160.165 74.9625C159.652 74.9124 159.149 74.996 158.658 75.2133C158.178 75.4318 157.771 75.7779 157.435 76.2516C157.112 76.7264 156.917 77.3042 156.85 77.985C156.784 78.6657 156.863 79.2763 157.088 79.8167C157.325 80.3462 157.658 80.7645 158.087 81.0715C158.527 81.3797 159.004 81.5588 159.517 81.6089C160.043 81.6602 160.545 81.5766 161.025 81.3581C161.517 81.1288 161.926 80.7708 162.251 80.284C162.587 79.7984 162.789 79.2152 162.855 78.5344ZM170.465 84.467C169.533 84.3762 168.712 84.085 168 83.5936C167.289 83.0903 166.756 82.4355 166.401 81.6292C166.047 80.8109 165.919 79.8942 166.018 78.879C166.116 77.8758 166.424 77.0076 166.941 76.2743C167.459 75.5411 168.12 75.0028 168.925 74.6593C169.731 74.3158 170.605 74.1901 171.548 74.2821C172.492 74.3741 173.325 74.6664 174.049 75.159C174.773 75.6515 175.318 76.3075 175.684 77.1269C176.05 77.9463 176.184 78.8577 176.086 79.8609C175.988 80.8641 175.675 81.7318 175.145 82.4638C174.616 83.1959 173.936 83.7385 173.106 84.0916C172.289 84.4339 171.408 84.559 170.465 84.467ZM170.638 82.6934C171.163 82.7447 171.665 82.667 172.143 82.4605C172.634 82.2551 173.047 81.9156 173.382 81.4419C173.718 80.9682 173.92 80.3731 173.99 79.6565C174.06 78.9399 173.982 78.3234 173.755 77.8069C173.529 77.2785 173.201 76.8667 172.772 76.5717C172.343 76.2766 171.865 76.1034 171.34 76.0522C170.814 76.0009 170.312 76.0786 169.834 76.2851C169.368 76.4929 168.978 76.8347 168.667 77.3107C168.356 77.7748 168.166 78.3651 168.096 79.0817C167.993 80.1446 168.181 80.9949 168.661 81.6326C169.155 82.2594 169.814 82.6131 170.638 82.6934ZM180.22 76.7373C180.567 76.2648 180.999 75.9151 181.515 75.6882C182.045 75.4504 182.65 75.3648 183.331 75.4312L183.125 77.5451L182.605 77.4945C181.805 77.4164 181.176 77.5601 180.719 77.9254C180.273 78.2919 180.001 78.9767 179.903 79.9799L179.397 85.1753L177.354 84.9761L178.317 75.105L180.359 75.3041L180.22 76.7373ZM187.144 77.6477L186.611 83.1118C186.575 83.4821 186.632 83.7589 186.783 83.9425C186.947 84.1152 187.238 84.2219 187.656 84.2627L188.91 84.385L188.745 86.0869L187.132 85.9297C186.213 85.84 185.529 85.5563 185.081 85.0786C184.633 84.6009 184.457 83.8783 184.551 82.9109L185.084 77.4468L183.919 77.3333L184.082 75.6672L185.246 75.7807L185.486 73.3264L187.546 73.5273L187.307 75.9816L189.707 76.2158L189.545 77.8819L187.144 77.6477ZM193.925 86.7549C193.149 86.6792 192.464 86.4738 191.87 86.1385C191.288 85.7924 190.842 85.3631 190.53 84.8504C190.22 84.3258 190.082 83.7637 190.116 83.1642L192.23 83.3704C192.225 83.7919 192.388 84.1635 192.718 84.485C193.061 84.7958 193.508 84.978 194.057 85.0316C194.631 85.0875 195.083 85.0231 195.414 84.8384C195.759 84.643 195.948 84.372 195.982 84.0257C196.018 83.6554 195.866 83.3633 195.525 83.1492C195.196 82.9362 194.66 82.685 193.916 82.3955C193.196 82.1202 192.612 81.8644 192.165 81.6278C191.718 81.3913 191.34 81.0591 191.032 80.6312C190.736 80.2045 190.62 79.6686 190.682 79.0237C190.734 78.4982 190.936 78.0356 191.288 77.6359C191.642 77.2243 192.117 76.921 192.715 76.7261C193.325 76.5324 194.006 76.4722 194.758 76.5456C195.881 76.6551 196.755 77.0296 197.38 77.6693C198.018 78.2982 198.313 79.1047 198.265 80.0887L196.223 79.8895C196.23 79.4441 196.085 79.0743 195.788 78.7801C195.491 78.4859 195.068 78.312 194.519 78.2584C193.981 78.206 193.559 78.2674 193.253 78.4424C192.947 78.6175 192.777 78.8723 192.744 79.2067C192.719 79.4694 192.793 79.6997 192.966 79.8975C193.14 80.0953 193.359 80.2613 193.623 80.3956C193.889 80.5179 194.282 80.6829 194.805 80.8906C195.503 81.1516 196.069 81.4057 196.503 81.653C196.95 81.8895 197.322 82.2152 197.619 82.63C197.916 83.0448 198.04 83.5693 197.99 84.2034C197.935 84.7648 197.731 85.2513 197.378 85.6629C197.024 86.0745 196.548 86.3778 195.951 86.5727C195.365 86.7687 194.69 86.8295 193.925 86.7549Z" fill="#080809"/>
</g>
</g>
</g>
<defs>
<filter id="filter0_ddd_9451_117841" x="-0.000488281" y="0.227539" width="365.574" height="306.592" filterUnits="userSpaceOnUse" color-interpolation-filters="sRGB">
<feFlood flood-opacity="0" result="BackgroundImageFix"/>
<feColorMatrix in="SourceAlpha" type="matrix" values="0 0 0 0 0 0 0 0 0 0 0 0 0 0 0 0 0 0 127 0" result="hardAlpha"/>
<feMorphology radius="3" operator="erode" in="SourceAlpha" result="effect1_dropShadow_9451_117841"/>
<feOffset dy="10"/>
<feGaussianBlur stdDeviation="5"/>
<feComposite in2="hardAlpha" operator="out"/>
<feColorMatrix type="matrix" values="0 0 0 0 0 0 0 0 0 0 0 0 0 0 0 0 0 0 0.1 0"/>
<feBlend mode="normal" in2="BackgroundImageFix" result="effect1_dropShadow_9451_117841"/>
<feColorMatrix in="SourceAlpha" type="matrix" values="0 0 0 0 0 0 0 0 0 0 0 0 0 0 0 0 0 0 127 0" result="hardAlpha"/>
<feMorphology radius="2" operator="erode" in="SourceAlpha" result="effect2_dropShadow_9451_117841"/>
<feOffset dy="2.28853"/>
<feGaussianBlur stdDeviation="1.14427"/>
<feComposite in2="hardAlpha" operator="out"/>
<feColorMatrix type="matrix" values="0 0 0 0 0 0 0 0 0 0 0 0 0 0 0 0 0 0 0.137 0"/>
<feBlend mode="normal" in2="effect1_dropShadow_9451_117841" result="effect2_dropShadow_9451_117841"/>
<feColorMatrix in="SourceAlpha" type="matrix" values="0 0 0 0 0 0 0 0 0 0 0 0 0 0 0 0 0 0 127 0" result="hardAlpha"/>
<feMorphology radius="1" operator="erode" in="SourceAlpha" result="effect3_dropShadow_9451_117841"/>
<feOffset dy="0.602187"/>
<feGaussianBlur stdDeviation="0.301093"/>
<feComposite in2="hardAlpha" operator="out"/>
<feColorMatrix type="matrix" values="0 0 0 0 0 0 0 0 0 0 0 0 0 0 0 0 0 0 0.15 0"/>
<feBlend mode="normal" in2="effect2_dropShadow_9451_117841" result="effect3_dropShadow_9451_117841"/>
<feBlend mode="normal" in="SourceGraphic" in2="effect3_dropShadow_9451_117841" result="shape"/>
</filter>
<filter id="filter1_d_9451_117841" x="36.3231" y="8.5755" width="17.4716" height="17.434" filterUnits="userSpaceOnUse" color-interpolation-filters="sRGB">
<feFlood flood-opacity="0" result="BackgroundImageFix"/>
<feColorMatrix in="SourceAlpha" type="matrix" values="0 0 0 0 0 0 0 0 0 0 0 0 0 0 0 0 0 0 127 0" result="hardAlpha"/>
<feOffset/>
<feGaussianBlur stdDeviation="1.49423"/>
<feComposite in2="hardAlpha" operator="out"/>
<feColorMatrix type="matrix" values="0 0 0 0 0.92549 0 0 0 0 0.427451 0 0 0 0 0.384314 0 0 0 1 0"/>
<feBlend mode="normal" in2="BackgroundImageFix" result="effect1_dropShadow_9451_117841"/>
<feBlend mode="normal" in="SourceGraphic" in2="effect1_dropShadow_9451_117841" result="shape"/>
</filter>
<filter id="filter2_d_9451_117841" x="55.3895" y="10.4334" width="17.4716" height="17.434" filterUnits="userSpaceOnUse" color-interpolation-filters="sRGB">
<feFlood flood-opacity="0" result="BackgroundImageFix"/>
<feColorMatrix in="SourceAlpha" type="matrix" values="0 0 0 0 0 0 0 0 0 0 0 0 0 0 0 0 0 0 127 0" result="hardAlpha"/>
<feOffset/>
<feGaussianBlur stdDeviation="1.49423"/>
<feComposite in2="hardAlpha" operator="out"/>
<feColorMatrix type="matrix" values="0 0 0 0 0.960784 0 0 0 0 0.768627 0 0 0 0 0.317647 0 0 0 1 0"/>
<feBlend mode="normal" in2="BackgroundImageFix" result="effect1_dropShadow_9451_117841"/>
<feBlend mode="normal" in="SourceGraphic" in2="effect1_dropShadow_9451_117841" result="shape"/>
</filter>
<filter id="filter3_d_9451_117841" x="74.4559" y="12.2913" width="17.4716" height="17.434" filterUnits="userSpaceOnUse" color-interpolation-filters="sRGB">
<feFlood flood-opacity="0" result="BackgroundImageFix"/>
<feColorMatrix in="SourceAlpha" type="matrix" values="0 0 0 0 0 0 0 0 0 0 0 0 0 0 0 0 0 0 127 0" result="hardAlpha"/>
<feOffset/>
<feGaussianBlur stdDeviation="1.49423"/>
<feComposite in2="hardAlpha" operator="out"/>
<feColorMatrix type="matrix" values="0 0 0 0 0.407843 0 0 0 0 0.8 0 0 0 0 0.345098 0 0 0 1 0"/>
<feBlend mode="normal" in2="BackgroundImageFix" result="effect1_dropShadow_9451_117841"/>
<feBlend mode="normal" in="SourceGraphic" in2="effect1_dropShadow_9451_117841" result="shape"/>
</filter>
<clipPath id="clip0_9451_117841">
<rect x="32.1201" y="0.227539" width="328" height="259" rx="14" transform="rotate(5.56589 32.1201 0.227539)" fill="white"/>
</clipPath>
<clipPath id="clip1_9451_117841">
<rect width="328.731" height="259" fill="white" transform="translate(30.9463 0.15332) rotate(5.56589)"/>
</clipPath>
</defs>
</svg>
