<svg width="292" height="169" viewBox="0 0 292 169" fill="none" xmlns="http://www.w3.org/2000/svg">
<path fill-rule="evenodd" clip-rule="evenodd" d="M288.636 116.409C229.163 133.113 179.732 95.085 150.276 45.5249C149.769 44.6747 148.666 44.392 147.816 44.8995C146.965 45.407 146.683 46.5098 147.19 47.3601C177.468 98.3098 228.47 137.037 289.609 119.864C290.562 119.598 291.117 118.607 290.85 117.65C290.584 116.697 289.593 116.142 288.636 116.409Z" fill="white"/>
<path fill-rule="evenodd" clip-rule="evenodd" d="M149.285 47.3731C152.022 48.9419 155.435 50.9486 155.829 51.165C166.505 57.0304 177.518 60.9252 189.482 63.3455C190.453 63.5431 191.402 62.9121 191.6 61.9413C191.797 60.9705 191.166 60.0216 190.195 59.8239C178.593 57.4807 167.911 53.7063 157.556 48.0155C156.952 47.6843 149.283 43.1684 147.664 42.3717C147.001 42.0419 146.523 42.0612 146.411 42.0764C145.812 42.1348 145.449 42.4207 145.213 42.6941C144.95 43.0048 144.64 43.6236 144.738 44.5124C144.845 45.442 145.536 47.3066 145.672 47.7914C147.711 55.1115 150.625 63.1037 151.813 71.0307C152.947 78.5902 152.511 86.0995 147.934 92.8291C147.376 93.6479 147.592 94.767 148.411 95.3249C149.23 95.8829 150.349 95.6674 150.907 94.8486C156.022 87.3237 156.633 78.9478 155.366 70.5001C154.184 62.62 151.351 54.6762 149.285 47.3731Z" fill="white"/>
<g clip-path="url(#clip0_9157_46522)">
<path d="M1.02769 136.497L11.875 125.979L22.776 115.411L28.8149 109.556C28.9876 109.387 28.94 109.213 28.7046 109.151C28.4573 109.085 28.076 109.189 27.8913 109.367L17.1184 119.81L6.22046 130.381L0.104127 136.308C-0.0686672 136.476 -0.0209997 136.651 0.214359 136.713C0.461634 136.778 0.842974 136.675 1.02769 136.497Z" fill="#FFAE1E"/>
<path d="M33.6472 105.418C34.4457 104.778 35.2501 104.145 36.0306 103.485C36.0962 103.428 36.1706 103.328 36.1468 103.233C36.123 103.138 36.0038 103.088 35.9204 103.073C35.6284 103.02 35.3245 103.121 35.0951 103.292C34.2639 103.917 33.4506 104.565 32.6343 105.211C32.5628 105.267 32.4824 105.382 32.5092 105.48C32.536 105.578 32.6641 105.637 32.7535 105.652C33.0603 105.708 33.403 105.607 33.6443 105.415L33.6472 105.418Z" fill="#FFAE1E"/>
<path d="M17.2587 107.798C23.229 113.369 29.0623 119.085 34.9403 124.754C36.5789 126.335 38.2205 127.91 39.8709 129.478C40.1629 129.754 41.2473 129.324 40.9405 129.031C35.0297 123.407 29.2143 117.685 23.3124 112.055C21.659 110.477 19.9996 108.908 18.3312 107.351C18.0363 107.075 16.9518 107.511 17.2617 107.798H17.2587Z" fill="#FFAE1E"/>
<path d="M8.38655 99.6719C12.4413 103.574 16.5168 107.457 20.6014 111.332C24.7037 115.222 28.818 119.1 32.9383 122.969C35.2442 125.136 37.5531 127.303 39.859 129.467C40.151 129.742 41.2354 129.31 40.9286 129.02C36.8262 125.174 32.7268 121.326 28.6363 117.469C24.522 113.591 20.4166 109.704 16.3262 105.806C14.0322 103.618 11.7412 101.424 9.45609 99.2279C9.16711 98.9496 8.0797 99.3789 8.38655 99.6749V99.6719Z" fill="#FFAE1E"/>
<path d="M8.2999 99.5743C9.19366 100.43 10.0874 101.288 10.9872 102.138C11.1719 102.312 11.5413 102.244 11.7498 102.15C11.8779 102.09 12.2474 101.874 12.0567 101.691C11.1629 100.823 10.2572 99.968 9.35752 99.1065C9.17281 98.9319 8.80339 99.0029 8.59484 99.0947C8.46673 99.1509 8.09731 99.37 8.28798 99.5535C9.19068 100.412 10.0934 101.267 10.9872 102.138L12.0567 101.691C11.154 100.841 10.2632 99.9828 9.36944 99.1273C9.18473 98.9496 8.8153 99.0237 8.60676 99.1154C8.47865 99.1717 8.10923 99.3907 8.2999 99.5743V99.5743Z" fill="#FFAE1E"/>
<path d="M39.1887 127.294C35.2919 123.65 31.4159 119.982 27.5459 116.308C23.6759 112.635 19.8119 108.958 15.9359 105.287C13.7819 103.251 11.625 101.214 9.46207 99.1835C9.17011 98.9082 8.08567 99.3404 8.39253 99.6305C12.2596 103.257 16.1057 106.907 19.9489 110.557C23.8189 114.23 27.683 117.91 31.5619 121.575C33.7427 123.635 35.9265 125.692 38.1192 127.741C38.4141 128.016 39.4956 127.581 39.1887 127.294V127.294Z" fill="#FFAE1E"/>
<path d="M7.90992 100.208C10.3857 106.226 12.7482 112.291 15.0839 118.366C17.4196 124.44 19.7285 130.523 22.1029 136.583C23.4436 140.008 24.8051 143.424 26.2023 146.825C26.3662 147.222 27.5013 146.879 27.3523 146.517C24.8706 140.479 22.5021 134.392 20.1605 128.297C17.8248 122.223 15.5159 116.14 13.1414 110.08C11.8067 106.676 10.4512 103.28 9.0599 99.8999C8.89604 99.5032 7.76096 99.8466 7.90992 100.208V100.208Z" fill="#FFAE1E"/>
<path d="M0.667424 136.977C5.8453 135.944 11.0351 134.961 16.2279 133.987C21.3968 133.016 26.5687 132.054 31.7317 131.056C34.6543 130.494 37.574 129.917 40.4936 129.327C40.6634 129.292 41.0537 129.117 40.9911 128.889C40.9256 128.647 40.4966 128.724 40.3387 128.756C35.1787 129.804 30.0068 130.793 24.8319 131.77C19.657 132.747 14.491 133.703 9.32503 134.688C6.38752 135.248 3.45001 135.819 0.515484 136.402C0.345668 136.435 -0.0446093 136.613 0.0179542 136.841C0.083497 137.083 0.512504 137.006 0.670403 136.974L0.667424 136.977Z" fill="#FFAE1E"/>
<path d="M35.7896 102.949C34.6545 108.627 33.5164 114.304 32.3486 119.976C31.1778 125.672 29.9771 131.361 28.7199 137.039C28.0109 140.239 27.2869 143.436 26.5391 146.627C26.4408 147.047 27.5997 146.876 27.6891 146.485C29.0119 140.843 30.2661 135.183 31.4727 129.514C32.6852 123.827 33.8561 118.132 35.0061 112.433C35.6555 109.225 36.2961 106.013 36.9396 102.804C37.026 102.372 35.867 102.555 35.7896 102.946V102.949Z" fill="#FFAE1E"/>
<path d="M32.8726 106.128L36.4894 103.02C36.6711 102.863 36.6085 102.665 36.3791 102.614C36.111 102.555 35.7714 102.656 35.5658 102.831L31.949 105.939C31.7673 106.096 31.8299 106.294 32.0593 106.344C32.3274 106.404 32.667 106.303 32.8726 106.128Z" fill="#FFAE1E"/>
<path d="M28.52 109.985C31.2758 107.611 34.0584 105.27 36.8707 102.961C37.0644 102.801 36.981 102.612 36.7605 102.555C36.4954 102.487 36.1527 102.603 35.9472 102.771C33.1378 105.08 30.3522 107.422 27.5964 109.796C27.4087 109.959 27.4832 110.142 27.7067 110.202C27.9659 110.27 28.3204 110.157 28.52 109.985Z" fill="#FFAE1E"/>
<path d="M29.1961 108.955L32.3898 106.436C32.5775 106.288 32.506 106.072 32.2796 106.031C31.9966 105.98 31.6867 106.072 31.4663 106.247L28.2726 108.766C28.0849 108.914 28.1564 109.13 28.3828 109.171C28.6658 109.222 28.9757 109.13 29.1961 108.955Z" fill="#FFAE1E"/>
<path d="M29.6937 108.683C31.2787 107.33 32.8725 105.986 34.4456 104.619C34.6213 104.465 34.5618 104.275 34.3383 104.225C34.0761 104.169 33.7514 104.266 33.5488 104.435C31.946 105.776 30.3611 107.138 28.7702 108.493C28.5854 108.65 28.651 108.849 28.8804 108.899C29.1485 108.958 29.4881 108.858 29.6967 108.683H29.6937Z" fill="#FFAE1E"/>
<path d="M27.7247 110.643C28.8389 109.66 29.974 108.707 31.124 107.768C31.3087 107.617 31.2372 107.419 31.0167 107.372C30.7456 107.312 30.4298 107.416 30.2183 107.585C29.0504 108.511 27.9124 109.47 26.7922 110.453C26.6104 110.613 26.67 110.811 26.9024 110.862C27.1676 110.921 27.5191 110.823 27.7217 110.643H27.7247Z" fill="#FFAE1E"/>
</g>
<defs>
<clipPath id="clip0_9157_46522">
<rect width="41" height="48" fill="white" transform="translate(0 99)"/>
</clipPath>
</defs>
</svg>
