<svg width="1440" height="575" viewBox="0 0 1440 575" fill="none" xmlns="http://www.w3.org/2000/svg">
<g clip-path="url(#clip0_9451_118256)">
<g clip-path="url(#clip1_9451_118256)">
<mask id="mask0_9451_118256" style="mask-type:luminance" maskUnits="userSpaceOnUse" x="-398" y="-122" width="2214" height="767">
<path d="M1815 645L-397.998 645V-122L1815 -122L1815 645Z" fill="white"/>
</mask>
<g mask="url(#mask0_9451_118256)">
<path fill-rule="evenodd" clip-rule="evenodd" d="M-454.826 546.458C-454.89 547.017 -454.945 547.576 -454.995 548.139C-458.612 588.138 -427.695 623.37 -385.948 626.832C-344.2 630.294 -307.428 600.675 -303.816 560.676C-302.911 550.647 -304.174 540.919 -307.234 531.915C-293.677 530.553 -281.03 527.587 -269.845 523.296C-257.939 533.571 -243.65 540.067 -227.914 541.372C-204.062 543.35 -181.355 533.036 -163.872 514.733C-115.905 539.008 -64.6053 536.678 -44.3113 507.894C-30.7585 541.074 -6.97667 564.165 22.8351 568.39C77.9064 576.194 132.719 516.665 145.262 435.429C146.326 428.532 147.063 421.593 147.471 414.632C156.441 419.654 166.685 422.897 177.72 423.813C208.064 426.329 235.652 410.53 248.598 385.99C250.215 386.23 251.847 386.419 253.499 386.556C290.281 389.606 323.018 365.739 330.526 332.012C352.437 348.169 379.268 358.708 408.856 361.161C468.445 366.103 522.899 336.896 551.179 290.486C566.622 312.811 589.862 327.846 616.912 330.089C668.222 334.344 714.278 291.002 721.532 232.566C732.159 237.125 744.782 237.317 757.847 233.739C746.03 265.383 750.23 295.973 770.996 309.878C792.883 324.534 826.61 316.258 854.467 291.924C866.333 319.873 893.741 340.605 927.275 343.386C940.345 344.47 952.987 342.713 964.544 338.65C962.405 345.126 961.02 351.808 960.415 358.576C955.843 409.198 994.963 453.787 1047.8 458.168C1097.37 462.279 1141.4 429.537 1150.43 383.669C1156.98 387.131 1164.38 389.366 1172.31 390.024C1172.47 390.037 1172.63 390.05 1172.78 390.062C1180.09 412.279 1198.83 429.971 1222.93 436.194C1240.1 494.176 1293.17 538.773 1359.57 544.279C1378.35 545.837 1396.65 544.135 1413.85 539.665C1428.76 563.176 1454.77 579.795 1485.57 582.35C1517.96 585.036 1547.91 571.526 1566.72 548.834C1601.46 587.189 1651.2 613.148 1708.18 617.873C1824.52 627.521 1927 544.976 1937.07 433.503C1943.8 359.036 1907.58 290.498 1848.12 250.322L1892.49 -240.93L-361.335 -427.842L-439.562 438.124C-441.97 443.085 -443.482 448.343 -443.98 453.835C-445.338 468.878 -438.875 483.439 -426.785 495.872C-442.258 507.312 -452.875 524.686 -454.696 544.814C-454.746 545.363 -454.791 545.911 -454.826 546.458ZM-58.7842 424.952C-57.9717 425.944 -57.1738 426.947 -56.3911 427.96C-56.3164 426.69 -56.2318 425.416 -56.1373 424.139L-58.7842 424.952Z" fill="#FFAE1E" fill-opacity="0.6"/>
<mask id="mask1_9451_118256" style="mask-type:luminance" maskUnits="userSpaceOnUse" x="-456" y="-428" width="2394" height="1056">
<path fill-rule="evenodd" clip-rule="evenodd" d="M-454.826 546.458C-454.89 547.017 -454.945 547.576 -454.995 548.139C-458.612 588.138 -427.695 623.37 -385.948 626.832C-344.2 630.294 -307.428 600.675 -303.816 560.676C-302.911 550.647 -304.174 540.919 -307.234 531.915C-293.677 530.553 -281.03 527.587 -269.845 523.296C-257.939 533.571 -243.65 540.067 -227.914 541.372C-204.062 543.35 -181.355 533.036 -163.872 514.733C-115.905 539.008 -64.6053 536.678 -44.3113 507.894C-30.7585 541.074 -6.97667 564.165 22.8351 568.39C77.9064 576.194 132.719 516.665 145.262 435.429C146.326 428.532 147.063 421.593 147.471 414.632C156.441 419.654 166.685 422.897 177.72 423.813C208.064 426.329 235.652 410.53 248.598 385.99C250.215 386.23 251.847 386.419 253.499 386.556C290.281 389.606 323.018 365.739 330.526 332.012C352.437 348.169 379.268 358.708 408.856 361.161C468.445 366.103 522.899 336.896 551.179 290.486C566.622 312.811 589.862 327.846 616.912 330.089C668.222 334.344 714.278 291.002 721.532 232.566C732.159 237.125 744.782 237.317 757.847 233.739C746.03 265.383 750.23 295.973 770.996 309.878C792.883 324.534 826.61 316.258 854.467 291.924C866.333 319.873 893.741 340.605 927.275 343.386C940.345 344.47 952.987 342.713 964.544 338.65C962.405 345.126 961.02 351.808 960.415 358.576C955.843 409.198 994.963 453.787 1047.8 458.168C1097.37 462.279 1141.4 429.537 1150.43 383.669C1156.98 387.131 1164.38 389.366 1172.31 390.024C1172.47 390.037 1172.63 390.05 1172.78 390.062C1180.09 412.279 1198.83 429.971 1222.93 436.194C1240.1 494.176 1293.17 538.773 1359.57 544.279C1378.35 545.837 1396.65 544.135 1413.85 539.665C1428.76 563.176 1454.77 579.795 1485.57 582.35C1517.96 585.036 1547.91 571.526 1566.72 548.834C1601.46 587.189 1651.2 613.148 1708.18 617.873C1824.52 627.521 1927 544.976 1937.07 433.503C1943.8 359.036 1907.58 290.498 1848.12 250.322L1892.49 -240.93L-361.335 -427.842L-439.562 438.124C-441.97 443.085 -443.482 448.343 -443.98 453.835C-445.338 468.878 -438.875 483.439 -426.785 495.872C-442.258 507.312 -452.875 524.686 -454.696 544.814C-454.746 545.363 -454.791 545.911 -454.826 546.458ZM-58.7842 424.952C-57.9717 425.944 -57.1738 426.947 -56.3911 427.96C-56.3164 426.69 -56.2318 425.416 -56.1373 424.139L-58.7842 424.952Z" fill="white"/>
</mask>
<g mask="url(#mask1_9451_118256)">
<path d="M-454.826 546.458L-454.328 546.51V546.488L-454.826 546.458ZM-307.234 531.915L-307.289 531.442L-307.901 531.503L-307.707 532.063L-307.234 531.915ZM-269.845 523.296L-269.512 522.942L-269.741 522.743L-270.03 522.853L-269.845 523.296ZM-163.872 514.733L-163.638 514.312L-163.977 514.139L-164.24 514.411L-163.872 514.733ZM-44.3114 507.894L-43.8486 507.72L-44.192 506.875L-44.7244 507.627L-44.3114 507.894ZM147.47 414.633L147.724 414.221L147.023 413.827L146.978 414.606L147.47 414.633ZM248.598 385.99L248.672 385.519L248.319 385.466L248.155 385.775L248.598 385.99ZM330.525 332.012L330.829 331.633L330.207 331.173L330.043 331.912L330.525 332.012ZM551.179 290.486L551.597 290.223L551.154 289.584L550.751 290.246L551.179 290.486ZM721.532 232.566L721.736 232.131L721.114 231.866L721.034 232.51L721.532 232.566ZM757.846 233.739L758.314 233.9L758.638 233.026L757.707 233.281L757.846 233.739ZM854.466 291.924L854.924 291.744L854.655 291.111L854.128 291.572L854.466 291.924ZM964.544 338.65L965.017 338.794L965.32 337.868L964.37 338.203L964.544 338.65ZM1150.43 383.669L1150.66 383.252L1150.06 382.934L1149.93 383.581L1150.43 383.669ZM1172.78 390.062L1173.26 389.918L1173.16 389.611L1172.82 389.587L1172.78 390.062ZM1222.92 436.194L1223.4 436.064L1223.33 435.804L1223.05 435.733L1222.92 436.194ZM1413.85 539.665L1414.28 539.418L1414.08 539.111L1413.72 539.205L1413.85 539.665ZM1566.72 548.834L1567.1 548.522L1566.71 548.088L1566.33 548.538L1566.72 548.834ZM1848.12 250.322L1847.62 250.281L1847.59 250.554L1847.83 250.711L1848.12 250.322ZM1892.49 -240.93L1892.99 -240.892L1893.03 -241.364L1892.54 -241.407L1892.49 -240.93ZM-361.336 -427.842L-361.291 -428.314L-361.788 -428.357L-361.833 -427.88L-361.336 -427.842ZM-439.562 438.124L-439.114 438.325L-439.074 438.249L-439.069 438.165L-439.562 438.124ZM-426.785 495.872L-426.482 496.249L-426.049 495.93L-426.422 495.547L-426.785 495.872ZM-56.3912 427.96L-56.7943 428.244L-55.9734 429.307L-55.8938 427.987L-56.3912 427.96ZM-58.7844 424.952L-58.9387 424.498L-59.6154 424.707L-59.1775 425.246L-58.7844 424.952ZM-56.1376 424.139L-55.64 424.174L-55.5853 423.469L-56.2869 423.685L-56.1376 424.139ZM-454.502 548.18C-454.453 547.621 -454.393 547.065 -454.328 546.51L-455.318 546.406C-455.383 546.968 -455.443 547.532 -455.493 548.097L-454.502 548.18ZM-385.908 626.357C-427.382 622.918 -458.09 587.916 -454.502 548.18L-455.493 548.097C-459.129 588.359 -428.014 623.822 -385.993 627.307L-385.908 626.357ZM-304.314 560.635C-307.901 600.372 -344.435 629.797 -385.908 626.357L-385.993 627.307C-343.972 630.792 -306.956 600.979 -303.319 560.717L-304.314 560.635ZM-307.707 532.063C-304.667 541.007 -303.414 550.671 -304.314 560.635L-303.319 560.717C-302.409 550.624 -303.682 540.831 -306.762 531.768L-307.707 532.063ZM-270.03 522.853C-281.169 527.127 -293.772 530.083 -307.289 531.442L-307.185 532.39C-293.583 531.023 -280.89 528.047 -269.656 523.738L-270.03 522.853ZM-227.869 540.897C-243.491 539.602 -257.676 533.156 -269.512 522.942L-270.179 523.65C-258.203 533.986 -243.815 540.532 -227.959 541.847L-227.869 540.897ZM-164.24 514.411C-181.644 532.63 -204.207 542.86 -227.869 540.897L-227.959 541.847C-203.918 543.84 -181.072 533.441 -163.504 515.055L-164.24 514.411ZM-44.7244 507.627C-54.7594 521.859 -72.4863 529.594 -93.7407 530.735C-114.995 531.875 -139.722 526.415 -163.638 514.312L-164.106 515.154C-140.056 527.325 -115.149 532.838 -93.686 531.687C-72.2277 530.535 -54.1575 522.713 -43.8984 508.16L-44.7244 507.627ZM22.9094 567.918C-6.66356 563.728 -30.3308 540.809 -43.8486 507.72L-44.7742 508.067C-31.1866 541.339 -7.2954 564.603 22.7603 568.861L22.9094 567.918ZM144.769 435.359C138.51 475.9 121.708 511.001 99.6232 534.984C77.538 558.971 50.2238 571.789 22.9094 567.918L22.7603 568.861C50.5222 572.795 78.1449 559.75 100.369 535.615C122.599 511.475 139.47 476.194 145.749 435.498L144.769 435.359ZM146.978 414.606C146.58 421.433 145.848 428.362 144.769 435.359L145.749 435.498C146.819 428.588 147.559 421.634 147.968 414.659L146.978 414.606ZM177.765 423.338C166.804 422.429 156.63 419.208 147.724 414.221L147.222 415.044C156.252 420.101 166.565 423.366 177.68 424.288L177.765 423.338ZM248.155 385.775C235.294 410.147 207.895 425.837 177.765 423.338L177.68 424.288C208.228 426.822 236.005 410.913 249.041 386.205L248.155 385.775ZM253.543 386.081C251.901 385.945 250.279 385.757 248.672 385.519L248.523 386.461C250.145 386.702 251.792 386.893 253.459 387.031L253.543 386.081ZM330.043 331.912C322.585 365.407 290.072 389.11 253.543 386.081L253.459 387.031C290.494 390.102 323.456 366.07 331.013 332.111L330.043 331.912ZM408.896 360.687C379.408 358.241 352.665 347.737 330.829 331.633L330.222 332.389C352.208 348.6 379.129 359.174 408.811 361.636L408.896 360.687ZM550.751 290.246C522.566 336.502 468.291 365.612 408.896 360.687L408.811 361.636C468.599 366.595 523.238 337.289 551.612 290.726L550.751 290.246ZM616.952 329.614C590.075 327.386 566.965 312.448 551.597 290.223L550.766 290.749C566.274 313.175 589.643 328.306 616.867 330.564L616.952 329.614ZM721.034 232.51C713.805 290.772 667.918 333.841 616.952 329.614L616.867 330.564C668.525 334.848 714.751 291.23 722.025 232.623L721.034 232.51ZM757.707 233.281C744.727 236.836 732.234 236.633 721.736 232.131L721.328 233.001C732.089 237.617 744.831 237.798 757.981 234.198L757.707 233.281ZM771.28 309.488C750.791 295.769 746.523 265.469 758.314 233.9L757.374 233.579C745.533 265.298 749.662 296.177 770.713 310.269L771.28 309.488ZM854.128 291.572C840.252 303.695 824.933 311.801 810.38 315.058C795.833 318.315 782.081 316.719 771.28 309.488L770.713 310.269C781.797 317.693 795.858 319.288 810.604 315.987C825.356 312.686 840.824 304.487 854.8 292.276L854.128 291.572ZM927.314 342.911C893.98 340.146 866.725 319.535 854.924 291.744L854.004 292.104C865.939 320.212 893.507 341.064 927.23 343.861L927.314 342.911ZM964.37 338.203C952.882 342.242 940.315 343.989 927.314 342.911L927.23 343.861C940.374 344.951 953.091 343.184 964.713 339.098L964.37 338.203ZM960.907 358.617C961.529 351.741 962.927 345.11 965.017 338.794L964.066 338.506C961.918 345.016 960.526 351.733 959.917 358.535L960.907 358.617ZM1047.84 457.694C995.281 453.335 956.36 408.977 960.907 358.617L959.917 358.535C955.32 409.419 994.649 454.239 1047.76 458.643L1047.84 457.694ZM1149.93 383.581C1140.95 429.211 1097.15 461.783 1047.84 457.694L1047.76 458.643C1097.58 462.776 1141.84 429.864 1150.91 383.758L1149.93 383.581ZM1172.35 389.549C1164.49 388.897 1157.16 386.682 1150.66 383.252L1150.18 384.086C1156.79 387.58 1164.26 389.835 1172.27 390.499L1172.35 389.549ZM1172.82 389.587C1172.66 389.575 1172.51 389.562 1172.35 389.549L1172.27 390.499C1172.43 390.512 1172.58 390.525 1172.74 390.537L1172.82 389.587ZM1223.05 435.733C1199.13 429.553 1180.52 411.984 1173.26 389.918L1172.31 390.205C1179.66 412.575 1198.54 430.388 1222.8 436.654L1223.05 435.733ZM1359.61 543.804C1293.42 538.315 1240.53 493.862 1223.4 436.064L1222.45 436.324C1239.68 494.491 1292.92 539.23 1359.52 544.754L1359.61 543.804ZM1413.72 539.205C1396.58 543.661 1378.34 545.357 1359.61 543.804L1359.52 544.754C1378.37 546.317 1396.73 544.61 1413.98 540.125L1413.72 539.205ZM1485.61 581.875C1454.98 579.334 1429.11 562.804 1414.28 539.418L1413.43 539.912C1428.42 563.548 1454.56 580.257 1485.53 582.825L1485.61 581.875ZM1566.33 548.538C1547.62 571.11 1517.83 584.547 1485.61 581.875L1485.53 582.825C1518.09 585.525 1548.2 571.943 1567.11 549.131L1566.33 548.538ZM1708.22 617.398C1651.38 612.684 1601.76 586.787 1567.1 548.522L1566.35 549.146C1601.17 587.591 1651.02 613.612 1708.13 618.348L1708.22 617.398ZM1936.57 433.462C1926.53 544.673 1824.29 627.024 1708.22 617.398L1708.13 618.348C1824.75 628.019 1927.47 545.279 1937.57 433.544L1936.57 433.462ZM1847.83 250.711C1907.16 290.794 1943.29 359.171 1936.57 433.462L1937.57 433.544C1944.31 358.901 1908.01 290.202 1848.4 249.932L1847.83 250.711ZM1892 -240.973L1847.62 250.281L1848.61 250.363L1892.99 -240.892L1892 -240.973ZM-361.376 -427.365L1892.45 -240.459L1892.54 -241.407L-361.291 -428.314L-361.376 -427.365ZM-439.069 438.165L-360.838 -427.799L-361.833 -427.88L-440.059 438.083L-439.069 438.165ZM-443.487 453.876C-442.995 448.442 -441.497 443.238 -439.114 438.325L-440.015 437.923C-442.448 442.932 -443.975 448.244 -444.477 453.794L-443.487 453.876ZM-426.422 495.547C-438.437 483.186 -444.831 468.753 -443.487 453.876L-444.477 453.794C-445.85 469.004 -439.308 483.692 -427.148 496.197L-426.422 495.547ZM-454.199 544.855C-452.393 524.865 -441.85 507.612 -426.482 496.249L-427.089 495.495C-442.667 507.013 -453.363 524.506 -455.194 544.773L-454.199 544.855ZM-454.328 546.488C-454.294 545.945 -454.249 545.401 -454.199 544.855L-455.194 544.773C-455.244 545.326 -455.284 545.878 -455.324 546.428L-454.328 546.488ZM-55.9934 427.677C-56.7745 426.666 -57.5704 425.659 -58.3914 424.658L-59.1775 425.246C-58.3668 426.233 -57.5724 427.233 -56.7943 428.244L-55.9934 427.677ZM-56.6302 424.104C-56.7297 425.384 -56.8142 426.661 -56.8888 427.934L-55.8938 427.987C-55.8241 426.72 -55.7345 425.448 -55.64 424.174L-56.6302 424.104ZM-58.6351 425.406L-55.9834 424.593L-56.2869 423.685L-58.9387 424.498L-58.6351 425.406Z" fill="white"/>
</g>
<path fill-rule="evenodd" clip-rule="evenodd" d="M-644.687 591.43C-644.662 591.991 -644.632 592.553 -644.597 593.116C-641.931 633.184 -605.87 663.596 -564.053 661.044C-522.236 658.492 -490.493 623.942 -493.155 583.875C-493.822 573.829 -496.593 564.391 -501.021 555.926C-487.827 552.639 -475.787 547.896 -465.393 542.051C-452.02 550.508 -436.88 554.886 -421.113 553.923C-397.222 552.466 -376.381 539.018 -361.942 518.417C-310.225 535.725 -259.372 525.715 -244.337 493.6C-241.337 487.187 -239.969 480.338 -240.088 473.28C-225.729 484.758 -209.286 491.257 -191.828 491.205C-140.513 491.052 -98.3428 434.374 -92.258 361.2C-78.2079 373.716 -59.0232 380.887 -38.3608 379.626C-7.9669 377.771 16.8448 358.201 25.8201 332.083C27.4571 332.089 29.0988 332.043 30.7555 331.941C67.6024 329.693 96.25 301.408 98.4142 266.984C122.599 279.824 150.769 286.405 180.407 284.596C240.1 280.953 289.39 244.28 310.117 194.343C328.864 214.208 354.188 225.748 381.283 224.094C432.683 220.958 471.465 171.509 469.525 112.69C480.749 115.679 493.257 114.063 505.615 108.653C498.869 141.635 507.79 171.28 530.492 182.057C560.697 196.395 603.862 171.9 626.897 127.344C626.957 127.23 627.017 127.12 627.072 127.006C627.146 126.867 627.216 126.724 627.291 126.586C627.37 126.424 627.455 126.262 627.534 126.095L627.549 126.376L627.564 126.596C627.574 126.777 627.584 126.963 627.599 127.144C630.141 165.375 664.545 194.39 704.442 191.955C711.92 191.499 719.054 189.971 725.701 187.538C725.137 192.706 725.028 197.911 725.378 203.097C728.746 253.805 774.384 292.294 827.306 289.065C876.965 286.034 915.394 247.358 917.165 200.712C924.185 203.198 931.847 204.349 939.797 203.864L940.006 203.851L940.275 203.833C952.773 228.304 979.779 244.413 1009.92 242.574C1020.59 241.924 1030.56 239.093 1039.41 234.564C1041.93 237.968 1044.77 241.146 1047.89 244.062C1031.83 269.333 1023.42 299.414 1025.54 331.183C1031.01 413.551 1105.14 476.071 1191.11 470.825C1256.76 466.819 1310.32 424.455 1329.54 367.974C1346.76 380.506 1368.59 387.39 1391.86 385.97C1416.6 384.46 1438.48 373.839 1454.15 357.734C1488.3 434.579 1570.25 486.143 1662.19 480.532C1778.74 473.42 1867.2 377.133 1859.77 265.47C1852.35 153.805 1751.86 69.0491 1635.31 76.1614C1621.01 77.0337 1607.13 79.2504 1593.8 82.6731L1553.53 -523.09L-704.152 -385.316L-646.488 482.133C-648.095 487.381 -648.772 492.794 -648.404 498.294C-647.404 513.363 -638.742 526.835 -624.851 537.398C-638.364 550.925 -646.155 569.623 -644.816 589.786C-644.782 590.336 -644.737 590.884 -644.687 591.43ZM640.863 78.1683C640.779 79.77 640.659 81.386 640.495 83.0163C641.41 81.7578 642.371 80.5327 643.371 79.3362L640.863 78.1683Z" fill="#EAEAEA" fill-opacity="0.6"/>
<mask id="mask2_9451_118256" style="mask-type:luminance" maskUnits="userSpaceOnUse" x="-705" y="-524" width="2566" height="1186">
<path fill-rule="evenodd" clip-rule="evenodd" d="M-644.687 591.43C-644.662 591.991 -644.632 592.553 -644.597 593.116C-641.931 633.184 -605.87 663.596 -564.053 661.044C-522.236 658.492 -490.493 623.942 -493.155 583.875C-493.822 573.829 -496.593 564.391 -501.021 555.926C-487.827 552.639 -475.787 547.896 -465.393 542.051C-452.02 550.508 -436.88 554.886 -421.113 553.923C-397.222 552.466 -376.381 539.018 -361.942 518.417C-310.225 535.725 -259.372 525.715 -244.337 493.6C-241.337 487.187 -239.969 480.338 -240.088 473.28C-225.729 484.758 -209.286 491.257 -191.828 491.205C-140.513 491.052 -98.3428 434.374 -92.258 361.2C-78.2079 373.716 -59.0232 380.887 -38.3608 379.626C-7.9669 377.771 16.8448 358.201 25.8201 332.083C27.4571 332.089 29.0988 332.043 30.7555 331.941C67.6024 329.693 96.25 301.408 98.4142 266.984C122.599 279.824 150.769 286.405 180.407 284.596C240.1 280.953 289.39 244.28 310.117 194.343C328.864 214.208 354.188 225.748 381.283 224.094C432.683 220.958 471.465 171.509 469.525 112.69C480.749 115.679 493.257 114.063 505.615 108.653C498.869 141.635 507.79 171.28 530.492 182.057C560.697 196.395 603.862 171.9 626.897 127.344C626.957 127.23 627.017 127.12 627.072 127.006C627.146 126.867 627.216 126.724 627.291 126.586C627.37 126.424 627.455 126.262 627.534 126.095L627.549 126.376L627.564 126.596C627.574 126.777 627.584 126.963 627.599 127.144C630.141 165.375 664.545 194.39 704.442 191.955C711.92 191.499 719.054 189.971 725.701 187.538C725.137 192.706 725.028 197.911 725.378 203.097C728.746 253.805 774.384 292.294 827.306 289.065C876.965 286.034 915.394 247.358 917.165 200.712C924.185 203.198 931.847 204.349 939.797 203.864L940.006 203.851L940.275 203.833C952.773 228.304 979.779 244.413 1009.92 242.574C1020.59 241.924 1030.56 239.093 1039.41 234.564C1041.93 237.968 1044.77 241.146 1047.89 244.062C1031.83 269.333 1023.42 299.414 1025.54 331.183C1031.01 413.551 1105.14 476.071 1191.11 470.825C1256.76 466.819 1310.32 424.455 1329.54 367.974C1346.76 380.506 1368.59 387.39 1391.86 385.97C1416.6 384.46 1438.48 373.839 1454.15 357.734C1488.3 434.579 1570.25 486.143 1662.19 480.532C1778.74 473.42 1867.2 377.133 1859.77 265.47C1852.35 153.805 1751.86 69.0491 1635.31 76.1614C1621.01 77.0337 1607.13 79.2504 1593.8 82.6731L1553.53 -523.09L-704.152 -385.316L-646.488 482.133C-648.095 487.381 -648.772 492.794 -648.404 498.294C-647.404 513.363 -638.742 526.835 -624.851 537.398C-638.364 550.925 -646.155 569.623 -644.816 589.786C-644.782 590.336 -644.737 590.884 -644.687 591.43ZM640.863 78.1683C640.779 79.77 640.659 81.386 640.495 83.0163C641.41 81.7578 642.371 80.5327 643.371 79.3362L640.863 78.1683Z" fill="white"/>
</mask>
<g mask="url(#mask2_9451_118256)">
<path d="M-644.687 591.43L-644.189 591.411V591.389L-644.687 591.43ZM-501.021 555.927L-501.145 555.465L-501.742 555.613L-501.464 556.14L-501.021 555.927ZM-465.393 542.051L-465.119 541.654L-465.378 541.49L-465.642 541.64L-465.393 542.051ZM-361.942 518.417L-361.778 517.967L-362.141 517.846L-362.355 518.151L-361.942 518.417ZM-240.088 473.28L-239.77 472.914L-240.605 472.247L-240.585 473.287L-240.088 473.28ZM-92.2577 361.2L-91.9194 360.851L-92.6756 360.18L-92.7552 361.162L-92.2577 361.2ZM25.8203 332.084L25.8253 331.607L25.4621 331.606L25.3477 331.934L25.8203 332.084ZM98.4145 266.984L98.6582 266.567L97.9668 266.201L97.917 266.956L98.4145 266.984ZM310.117 194.343L310.485 194.024L309.948 193.456L309.655 194.167L310.117 194.343ZM469.525 112.691L469.659 112.233L469.007 112.061L469.027 112.705L469.525 112.691ZM505.615 108.653L506.103 108.744L506.292 107.833L505.411 108.219L505.615 108.653ZM627.535 126.095L628.032 126.071L627.087 125.89L627.535 126.095ZM627.549 126.376L627.057 126.4V126.405L627.549 126.376ZM725.702 187.538L726.199 187.588L726.284 186.816L725.527 187.093L725.702 187.538ZM917.165 200.713L917.339 200.265L916.692 200.038L916.667 200.695L917.165 200.713ZM940.275 203.833L940.718 203.624L940.573 203.334L940.235 203.358L940.275 203.833ZM1039.41 234.564L1039.81 234.288L1039.56 233.946L1039.17 234.144L1039.41 234.564ZM1047.89 244.062L1048.32 244.309L1048.52 243.985L1048.24 243.72L1047.89 244.062ZM1329.54 367.974L1329.84 367.595L1329.28 367.189L1329.07 367.827L1329.54 367.974ZM1454.15 357.734L1454.61 357.548L1454.31 356.873L1453.79 357.409L1454.15 357.734ZM1593.8 82.6731L1593.3 82.7018L1593.34 83.2833L1593.92 83.1356L1593.8 82.6731ZM1553.53 -523.09L1554.03 -523.119L1553.99 -523.595L1553.5 -523.567L1553.53 -523.09ZM-704.151 -385.316L-704.186 -385.793L-704.679 -385.764L-704.649 -385.287L-704.151 -385.316ZM-646.488 482.133L-646.01 482.267L-645.985 482.187L-645.991 482.103L-646.488 482.133ZM-624.85 537.398L-624.487 537.728L-624.109 537.35L-624.537 537.025L-624.85 537.398ZM640.495 83.0163L639.998 82.9735L639.818 84.7754L640.903 83.2881L640.495 83.0163ZM640.863 78.1684L641.082 77.7442L640.405 77.4247L640.366 78.1446L640.863 78.1684ZM643.371 79.3363L643.759 79.6366L644.152 79.1695L643.59 78.9073L643.371 79.3363ZM-644.1 593.086C-644.135 592.526 -644.165 591.968 -644.189 591.411L-645.184 591.45C-645.159 592.014 -645.13 592.579 -645.09 593.146L-644.1 593.086ZM-564.082 660.568C-605.631 663.103 -641.453 632.891 -644.1 593.086L-645.09 593.146C-642.408 633.476 -606.114 664.089 -564.023 661.52L-564.082 660.568ZM-493.652 583.905C-491.006 623.71 -522.539 658.033 -564.082 660.568L-564.023 661.52C-521.927 658.951 -489.981 624.175 -492.658 583.845L-493.652 583.905ZM-501.464 556.14C-497.066 564.548 -494.314 573.925 -493.652 583.905L-492.658 583.845C-493.329 573.734 -496.116 564.233 -500.578 555.712L-501.464 556.14ZM-465.642 541.64C-475.995 547.461 -487.996 552.188 -501.145 555.465L-500.897 556.388C-487.662 553.09 -475.577 548.331 -465.139 542.463L-465.642 541.64ZM-421.148 553.448C-436.79 554.403 -451.825 550.06 -465.119 541.654L-465.667 542.449C-452.213 550.956 -436.969 555.369 -421.083 554.399L-421.148 553.448ZM-362.355 518.151C-376.729 538.658 -397.441 552.001 -421.148 553.448L-421.083 554.399C-397.003 552.93 -376.032 539.378 -361.529 518.683L-362.355 518.151ZM-244.79 493.405C-252.223 509.283 -268.532 519.744 -289.487 524.076C-310.443 528.408 -335.991 526.597 -361.778 517.967L-362.106 518.867C-336.175 527.545 -310.438 529.383 -289.278 525.008C-268.119 520.634 -251.481 510.032 -243.884 493.795L-244.79 493.405ZM-240.585 473.287C-240.466 480.28 -241.819 487.06 -244.79 493.405L-243.884 493.795C-240.849 487.314 -239.471 480.395 -239.59 473.272L-240.585 473.287ZM-191.828 490.729C-209.152 490.78 -225.486 484.334 -239.77 472.914L-240.406 473.645C-225.978 485.183 -209.421 491.734 -191.828 491.682V490.729ZM-92.7552 361.162C-95.7902 397.677 -107.83 430.052 -125.483 453.305C-143.14 476.559 -166.38 490.653 -191.828 490.729V491.682C-165.967 491.605 -142.458 477.283 -124.682 453.866C-106.9 430.448 -94.81 397.897 -91.7651 361.238L-92.7552 361.162ZM-38.3955 379.15C-58.9084 380.403 -77.9639 373.281 -91.9194 360.851L-92.5961 361.549C-78.4513 374.15 -59.1324 381.371 -38.3308 380.102L-38.3955 379.15ZM25.3477 331.934C16.4369 357.874 -8.21055 377.308 -38.3955 379.15L-38.3308 380.102C-7.72801 378.235 17.258 358.529 26.293 332.233L25.3477 331.934ZM30.726 331.466C29.0791 331.566 27.4473 331.613 25.8253 331.607L25.8203 332.56C27.4622 332.566 29.119 332.519 30.7857 332.417L30.726 331.466ZM97.917 266.956C95.7676 301.142 67.319 329.232 30.726 331.466L30.7857 332.417C67.8863 330.153 96.7328 301.673 98.912 267.013L97.917 266.956ZM180.377 284.121C150.839 285.923 122.758 279.365 98.6582 266.567L98.1757 267.401C122.435 280.284 150.705 286.887 180.442 285.072L180.377 284.121ZM309.655 194.167C288.997 243.939 239.871 280.49 180.377 284.121L180.442 285.072C240.334 281.417 289.783 244.621 310.58 194.519L309.655 194.167ZM381.254 223.619C354.332 225.262 329.148 213.799 310.485 194.024L309.749 194.663C328.581 214.617 354.044 226.235 381.318 224.57L381.254 223.619ZM469.027 112.705C470.963 171.35 432.305 220.503 381.254 223.619L381.318 224.57C433.066 221.412 471.973 171.668 470.022 112.676L469.027 112.705ZM505.411 108.219C493.128 113.591 480.744 115.179 469.659 112.233L469.395 113.153C480.754 116.175 493.386 114.531 505.824 109.087L505.411 108.219ZM530.711 181.63C508.312 170.997 499.372 141.65 506.103 108.744L505.128 108.562C498.362 141.621 507.262 171.563 530.268 182.484L530.711 181.63ZM626.455 127.134C614.972 149.339 598.479 166.528 581.13 176.375C563.771 186.226 545.612 188.703 530.711 181.63L530.268 182.484C545.572 189.749 564.1 187.148 581.638 177.196C599.175 167.243 615.788 149.906 627.345 127.554L626.455 127.134ZM626.629 126.796C626.569 126.91 626.51 127.02 626.455 127.134L627.345 127.554C627.405 127.444 627.46 127.33 627.52 127.215L626.629 126.796ZM626.843 126.376C626.768 126.515 626.699 126.658 626.629 126.796L627.52 127.215C627.594 127.077 627.664 126.934 627.733 126.796L626.843 126.376ZM627.087 125.89C627.007 126.052 626.923 126.214 626.843 126.376L627.733 126.796C627.818 126.629 627.903 126.467 627.982 126.305L627.087 125.89ZM628.047 126.353L628.032 126.071L627.042 126.119L627.057 126.4L628.047 126.353ZM628.062 126.572L628.047 126.353L627.057 126.405L627.067 126.624L628.062 126.572ZM628.097 127.115C628.082 126.934 628.072 126.753 628.062 126.572L627.067 126.624C627.077 126.805 627.092 126.991 627.102 127.177L628.097 127.115ZM704.412 191.479C664.784 193.897 630.619 165.079 628.097 127.115L627.102 127.177C629.659 165.666 664.302 194.882 704.477 192.431L704.412 191.479ZM725.527 187.093C718.925 189.509 711.835 191.026 704.412 191.479L704.477 192.431C712 191.971 719.189 190.434 725.881 187.983L725.527 187.093ZM725.871 203.066C725.522 197.819 725.642 192.647 726.199 187.588L725.209 187.489C724.64 192.683 724.53 197.915 724.881 203.127L725.871 203.066ZM827.277 288.589C774.628 291.802 729.224 253.512 725.871 203.066L724.881 203.127C728.269 254.098 774.141 292.787 827.341 289.541L827.277 288.589ZM916.667 200.695C914.901 247.099 876.671 285.574 827.277 288.589L827.341 289.541C877.253 286.494 915.881 247.618 917.662 200.73L916.667 200.695ZM939.767 203.388C931.887 203.869 924.294 202.728 917.339 200.265L916.996 201.16C924.075 203.668 931.807 204.829 939.827 204.34L939.767 203.388ZM939.971 203.375L939.767 203.388L939.827 204.34L940.041 204.327L939.971 203.375ZM940.235 203.358C940.151 203.364 940.061 203.37 939.971 203.375L940.041 204.327L940.31 204.309L940.235 203.358ZM1009.89 242.099C979.958 243.925 953.136 227.927 940.718 203.624L939.827 204.043C952.415 228.681 979.604 244.902 1009.95 243.05L1009.89 242.099ZM1039.17 234.144C1030.39 238.641 1020.48 241.452 1009.89 242.099L1009.95 243.05C1020.69 242.395 1030.73 239.545 1039.64 234.984L1039.17 234.144ZM1048.24 243.72C1045.14 240.824 1042.32 237.667 1039.81 234.288L1039 234.84C1041.54 238.266 1044.4 241.467 1047.55 244.403L1048.24 243.72ZM1026.03 331.153C1023.92 299.484 1032.31 269.499 1048.32 244.309L1047.47 243.814C1031.36 269.165 1022.92 299.343 1025.04 331.213L1026.03 331.153ZM1191.07 470.35C1105.38 475.579 1031.49 413.258 1026.03 331.153L1025.04 331.213C1030.53 413.844 1104.9 476.564 1191.14 471.301L1191.07 470.35ZM1329.07 367.827C1309.91 424.128 1256.51 466.356 1191.07 470.35L1191.14 471.301C1257 467.282 1310.73 424.782 1330.01 368.122L1329.07 367.827ZM1391.83 385.495C1368.68 386.907 1346.97 380.059 1329.84 367.595L1329.24 368.354C1346.55 380.952 1368.49 387.874 1391.89 386.446L1391.83 385.495ZM1453.79 357.409C1438.2 373.428 1416.44 383.993 1391.83 385.495L1391.89 386.446C1416.77 384.928 1438.76 374.249 1454.51 358.06L1453.79 357.409ZM1662.16 480.056C1570.44 485.654 1488.68 434.212 1454.61 357.548L1453.69 357.921C1487.92 434.946 1570.07 486.632 1662.22 481.008L1662.16 480.056ZM1859.28 265.5C1866.68 376.901 1778.43 472.961 1662.16 480.056L1662.22 481.008C1779.04 473.879 1867.71 377.366 1860.27 265.44L1859.28 265.5ZM1635.34 76.6382C1751.61 69.545 1851.87 154.101 1859.28 265.5L1860.27 265.44C1852.83 153.515 1752.1 68.5583 1635.28 75.6848L1635.34 76.6382ZM1593.92 83.1356C1607.23 79.7176 1621.07 77.5106 1635.34 76.6382L1635.28 75.6848C1620.94 76.5619 1607.03 78.7834 1593.67 82.2156L1593.92 83.1356ZM1553.03 -523.062L1593.3 82.7018L1594.29 82.6446L1554.03 -523.119L1553.03 -523.062ZM-704.121 -384.844L1553.56 -522.613L1553.5 -523.567L-704.186 -385.793L-704.121 -384.844ZM-645.991 482.103L-703.654 -385.349L-704.649 -385.287L-646.985 482.163L-645.991 482.103ZM-647.911 498.264C-648.269 492.822 -647.603 487.465 -646.01 482.267L-646.966 481.999C-648.587 487.298 -649.269 492.767 -648.901 498.325L-647.911 498.264ZM-624.537 537.025C-638.348 526.523 -646.921 513.166 -647.911 498.264L-648.901 498.325C-647.891 513.56 -639.129 527.147 -625.159 537.771L-624.537 537.025ZM-644.319 589.756C-645.652 569.732 -637.916 551.162 -624.487 537.728L-625.209 537.068C-638.816 550.688 -646.662 569.515 -645.314 589.816L-644.319 589.756ZM-644.189 591.389C-644.239 590.846 -644.284 590.302 -644.319 589.756L-645.314 589.816C-645.276 590.368 -645.233 590.92 -645.184 591.472L-644.189 591.389ZM640.988 83.0641C641.152 81.4242 641.276 79.8035 641.361 78.1923L640.366 78.1446C640.286 79.7415 640.162 81.348 639.998 82.9735L640.988 83.0641ZM642.983 79.0408C641.978 80.2421 641.008 81.4767 640.087 82.7447L640.903 83.2881C641.813 82.0439 642.769 80.8236 643.759 79.6366L642.983 79.0408ZM640.649 78.5975L643.157 79.7654L643.59 78.9073L641.082 77.7442L640.649 78.5975Z" fill="white"/>
</g>
<path fill-rule="evenodd" clip-rule="evenodd" d="M-445.761 423.93C-445.761 403.726 -436.746 385.54 -422.357 372.864C-435.522 361.476 -443.273 347.504 -443.273 332.404C-443.273 326.893 -442.238 321.531 -440.288 316.391V-153.586L1821.97 -153.586L1821.97 204.033C1846.92 224.188 1862.76 254.357 1862.76 288.072C1862.76 348.756 1811.42 397.95 1748.08 397.95C1701.94 397.95 1662.16 371.837 1643.97 334.193C1630.94 340.811 1616.09 344.56 1600.32 344.56C1574.13 344.56 1550.46 334.218 1533.51 317.563C1511.8 339.477 1481.11 353.141 1447.08 353.141C1381.27 353.141 1327.92 302.026 1327.92 238.972C1327.92 226.657 1329.96 214.796 1333.72 203.683C1329.35 204.475 1324.83 204.889 1320.21 204.889C1294.2 204.889 1271.38 191.738 1258.62 171.996C1249.49 175.976 1239.35 178.194 1228.67 178.194C1198.46 178.194 1172.58 160.474 1161.73 135.291H1161.25C1153.29 135.291 1145.71 133.675 1138.88 130.767C1134.01 177.211 1093.1 213.469 1043.34 213.469C990.306 213.469 947.315 172.279 947.315 121.466C947.315 116.185 947.778 111.003 948.673 105.96C941.877 107.986 934.653 109.072 927.165 109.072C887.184 109.072 854.775 78.0206 854.775 39.7135C854.775 33.7786 855.551 28.0202 857.019 22.5192C837.351 33.3687 811.475 39.9518 783.131 39.9518C748.991 39.9518 718.437 30.3989 697.994 15.3497C696.163 74.3167 654.122 121.466 602.529 121.466C588.285 121.466 574.767 117.872 562.622 111.427C564.324 120.084 565.214 129.017 565.214 138.151C565.214 217.396 498.167 281.636 415.459 281.636C355.621 281.636 303.983 248.013 279.997 199.409C269.753 204.729 258.021 207.749 245.553 207.749C243.896 207.749 242.249 207.696 240.618 207.591C229.931 233.109 203.865 251.128 173.412 251.128C161.118 251.128 149.54 248.192 139.401 243.011C128.166 254.821 113.798 265.651 96.9517 274.352C62.1696 292.313 25.2829 296.828 -1.69297 288.839C3.9042 304.338 3.75478 319.649 -3.38462 332.631C-22.032 366.515 -81.2875 371.686 -135.732 344.181C-137.845 343.114 -139.935 342.006 -142.001 340.856C-156.324 376.969 -185.932 401.763 -220.132 401.763C-235.929 401.763 -250.75 396.472 -263.532 387.219C-275.741 393.119 -289.975 397.474 -305.478 399.813C-302.568 407.324 -300.98 415.449 -300.98 423.93C-300.98 462.236 -333.389 493.288 -373.371 493.288C-413.352 493.288 -445.761 462.236 -445.761 423.93Z" fill="url(#paint0_linear_9451_118256)"/>
<mask id="mask3_9451_118256" style="mask-type:luminance" maskUnits="userSpaceOnUse" x="-446" y="-154" width="2309" height="648">
<path fill-rule="evenodd" clip-rule="evenodd" d="M-445.761 423.93C-445.761 403.726 -436.746 385.54 -422.357 372.864C-435.522 361.476 -443.273 347.504 -443.273 332.404C-443.273 326.893 -442.238 321.531 -440.288 316.391V-153.586L1821.97 -153.586L1821.97 204.033C1846.92 224.188 1862.76 254.357 1862.76 288.072C1862.76 348.756 1811.42 397.95 1748.08 397.95C1701.94 397.95 1662.16 371.837 1643.97 334.193C1630.94 340.811 1616.09 344.56 1600.32 344.56C1574.13 344.56 1550.46 334.218 1533.51 317.563C1511.8 339.477 1481.11 353.141 1447.08 353.141C1381.27 353.141 1327.92 302.026 1327.92 238.972C1327.92 226.657 1329.96 214.796 1333.72 203.683C1329.35 204.475 1324.83 204.889 1320.21 204.889C1294.2 204.889 1271.38 191.738 1258.62 171.996C1249.49 175.976 1239.35 178.194 1228.67 178.194C1198.46 178.194 1172.58 160.474 1161.73 135.291H1161.25C1153.29 135.291 1145.71 133.675 1138.88 130.767C1134.01 177.211 1093.1 213.469 1043.34 213.469C990.306 213.469 947.315 172.279 947.315 121.466C947.315 116.185 947.778 111.003 948.673 105.96C941.877 107.986 934.653 109.072 927.165 109.072C887.184 109.072 854.775 78.0206 854.775 39.7135C854.775 33.7786 855.551 28.0202 857.019 22.5192C837.351 33.3687 811.475 39.9518 783.131 39.9518C748.991 39.9518 718.437 30.3989 697.994 15.3497C696.163 74.3167 654.122 121.466 602.529 121.466C588.285 121.466 574.767 117.872 562.622 111.427C564.324 120.084 565.214 129.017 565.214 138.151C565.214 217.396 498.167 281.636 415.459 281.636C355.621 281.636 303.983 248.013 279.997 199.409C269.753 204.729 258.021 207.749 245.553 207.749C243.896 207.749 242.249 207.696 240.618 207.591C229.931 233.109 203.865 251.128 173.412 251.128C161.118 251.128 149.54 248.192 139.401 243.011C128.166 254.821 113.798 265.651 96.9517 274.352C62.1696 292.313 25.2829 296.828 -1.69297 288.839C3.9042 304.338 3.75478 319.649 -3.38462 332.631C-22.032 366.515 -81.2875 371.686 -135.732 344.181C-137.845 343.114 -139.935 342.006 -142.001 340.856C-156.324 376.969 -185.932 401.763 -220.132 401.763C-235.929 401.763 -250.75 396.472 -263.532 387.219C-275.741 393.119 -289.975 397.474 -305.478 399.813C-302.568 407.324 -300.98 415.449 -300.98 423.93C-300.98 462.236 -333.389 493.288 -373.371 493.288C-413.352 493.288 -445.761 462.236 -445.761 423.93Z" fill="url(#paint1_linear_9451_118256)"/>
</mask>
<g mask="url(#mask3_9451_118256)">
<path d="M-422.357 372.864L-422.019 373.215L-421.621 372.86L-422.024 372.51L-422.357 372.864ZM-440.288 316.391L-439.82 316.554L-439.79 316.475V316.391H-440.288ZM-440.288 -153.586V-154.062H-440.785V-153.586H-440.288ZM1821.97 -153.586H1822.46V-154.062H1821.97V-153.586ZM1821.97 204.033H1821.47V204.254L1821.65 204.397L1821.97 204.033ZM1643.97 334.193L1644.42 333.993L1644.2 333.536L1643.73 333.772L1643.97 334.193ZM1533.51 317.563L1533.87 317.23L1533.51 316.876L1533.15 317.235L1533.51 317.563ZM1333.72 203.683L1334.2 203.83L1334.46 203.065L1333.63 203.214L1333.72 203.683ZM1258.62 171.996L1259.05 171.745L1258.82 171.388L1258.41 171.562L1258.62 171.996ZM1161.73 135.291L1162.19 135.109L1162.06 134.809L1161.72 134.814L1161.73 135.291ZM1138.88 130.767L1139.08 130.333L1138.45 130.066L1138.38 130.719L1138.88 130.767ZM948.673 105.96L949.166 106.041L949.3 105.273L948.524 105.507L948.673 105.96ZM857.019 22.5191L857.496 22.6383L857.79 21.5419L856.77 22.1092L857.019 22.5191ZM697.994 15.3497L698.293 14.9731L697.521 14.4058L697.497 15.3401L697.994 15.3497ZM562.622 111.427L562.861 111.008L561.935 110.517L562.134 111.513L562.622 111.427ZM279.997 199.409L280.45 199.206L280.221 198.75L279.763 198.99L279.997 199.409ZM240.618 207.591L240.652 207.115L240.294 207.092L240.155 207.413L240.618 207.591ZM139.401 243.011L139.635 242.59L139.291 242.416L139.033 242.69L139.401 243.011ZM-1.69297 288.839L-1.54868 288.384L-2.48411 288.106L-2.16563 288.995L-1.69297 288.839ZM-142.001 340.856L-141.747 340.444L-142.254 340.162L-142.463 340.687L-142.001 340.856ZM-263.532 387.219L-263.233 386.838L-263.482 386.659L-263.755 386.793L-263.532 387.219ZM-305.478 399.813L-305.553 399.342L-306.155 399.433L-305.941 399.979L-305.478 399.813ZM-422.696 372.513C-437.178 385.276 -446.258 403.587 -446.258 423.93H-445.263C-445.263 403.865 -436.308 385.805 -422.019 373.215L-422.696 372.513ZM-443.771 332.404C-443.771 347.671 -435.929 361.763 -422.69 373.217L-422.024 372.51C-435.109 361.188 -442.776 347.336 -442.776 332.404H-443.771ZM-440.756 316.228C-442.726 321.418 -443.771 326.835 -443.771 332.404H-442.776C-442.776 326.95 -441.756 321.644 -439.82 316.554L-440.756 316.228ZM-440.785 -153.586V316.391H-439.79V-153.586H-440.785ZM1821.97 -154.062L-440.288 -154.062V-153.109L1821.97 -153.109V-154.062ZM1822.46 204.033L1822.46 -153.586H1821.47L1821.47 204.033H1822.46ZM1863.26 288.072C1863.26 254.21 1847.34 223.911 1822.29 203.668L1821.65 204.397C1846.49 224.466 1862.27 254.503 1862.27 288.072H1863.26ZM1748.08 398.426C1811.7 398.426 1863.26 349.019 1863.26 288.072H1862.27C1862.27 348.493 1811.15 397.473 1748.08 397.473V398.426ZM1643.51 334.394C1661.79 372.2 1701.74 398.426 1748.08 398.426V397.473C1702.14 397.473 1662.53 371.475 1644.42 333.993L1643.51 334.394ZM1600.32 345.037C1616.17 345.037 1631.11 341.268 1644.2 334.615L1643.73 333.772C1630.78 340.355 1616 344.083 1600.32 344.083V345.037ZM1533.16 317.896C1550.19 334.639 1573.99 345.037 1600.32 345.037V344.083C1574.27 344.083 1550.72 333.797 1533.87 317.23L1533.16 317.896ZM1447.08 353.617C1481.25 353.617 1512.07 339.896 1533.87 317.891L1533.15 317.235C1511.53 339.058 1480.96 352.664 1447.08 352.664V353.617ZM1327.43 238.972C1327.43 302.289 1381 353.617 1447.08 353.617V352.664C1381.55 352.664 1328.42 301.762 1328.42 238.972H1327.43ZM1333.25 203.535C1329.47 214.695 1327.43 226.605 1327.43 238.972H1328.42C1328.42 226.707 1330.45 214.896 1334.2 203.83L1333.25 203.535ZM1320.21 205.365C1324.86 205.365 1329.41 204.948 1333.82 204.151L1333.63 203.214C1329.21 204.013 1324.71 204.414 1320.21 204.412V205.365ZM1258.2 172.247C1271.05 192.123 1294.02 205.365 1320.21 205.365V204.412C1294.37 204.412 1271.72 191.353 1259.05 171.745L1258.2 172.247ZM1228.67 178.671C1239.42 178.671 1249.64 176.438 1258.83 172.43L1258.41 171.562C1249.35 175.515 1239.28 177.717 1228.67 177.717V178.671ZM1161.27 135.472C1172.2 160.827 1198.26 178.671 1228.67 178.671V177.717C1198.67 177.717 1172.97 160.117 1162.19 135.109L1161.27 135.472ZM1161.25 135.767H1161.73L1161.72 134.814H1161.25V135.767ZM1138.67 131.205C1145.57 134.137 1153.22 135.767 1161.25 135.767V134.814C1153.36 134.814 1145.85 133.212 1139.08 130.333L1138.67 131.205ZM1043.34 213.946C1093.35 213.946 1134.48 177.5 1139.37 130.814L1138.38 130.719C1133.54 176.923 1092.84 212.993 1043.34 212.993V213.946ZM946.817 121.466C946.817 172.542 990.033 213.946 1043.34 213.946V212.993C990.58 212.993 947.812 172.015 947.812 121.466H946.817ZM948.181 105.883C947.285 110.951 946.817 116.156 946.817 121.466H947.812C947.812 116.209 948.275 111.055 949.166 106.041L948.181 105.883ZM927.165 109.549C934.703 109.549 941.977 108.453 948.822 106.417L948.524 105.507C941.777 107.514 934.603 108.596 927.165 108.596V109.549ZM854.277 39.7135C854.277 78.2828 886.91 109.549 927.165 109.549V108.596C887.457 108.596 855.272 77.7584 855.272 39.7135H854.277ZM856.536 22.4C855.059 27.9392 854.277 33.7405 854.277 39.7135H855.272C855.272 33.8215 856.044 28.0965 857.496 22.6383L856.536 22.4ZM783.131 40.4285C811.555 40.4285 837.516 33.8263 857.263 22.9339L856.77 22.1092C837.187 32.9063 811.401 39.4751 783.131 39.4751V40.4285ZM697.691 15.7311C718.234 30.8518 748.901 40.4285 783.131 40.4285V39.4751C749.08 39.4751 718.637 29.946 698.293 14.9731L697.691 15.7311ZM602.529 121.943C654.471 121.943 696.656 74.5026 698.492 15.364L697.497 15.3401C695.676 74.126 653.774 120.99 602.529 120.99V121.943ZM562.378 111.842C574.593 118.325 588.195 121.943 602.529 121.943V120.99C588.374 120.99 574.936 117.419 562.861 111.008L562.378 111.842ZM565.712 138.151C565.712 128.989 564.816 120.027 563.11 111.337L562.134 111.513C563.831 120.146 564.717 129.051 564.717 138.151H565.712ZM415.459 282.113C498.441 282.113 565.712 217.659 565.712 138.151H564.717C564.717 217.133 497.894 281.16 415.459 281.16V282.113ZM279.549 199.613C303.61 248.377 355.422 282.113 415.459 282.113V281.16C355.82 281.16 304.351 247.649 280.45 199.206L279.549 199.613ZM245.553 208.226C258.106 208.226 269.922 205.184 280.236 199.829L279.763 198.99C269.589 204.272 257.936 207.272 245.553 207.272V208.226ZM240.588 208.066C242.23 208.172 243.881 208.226 245.553 208.226V207.272C243.906 207.272 242.269 207.219 240.652 207.115L240.588 208.066ZM173.412 251.605C204.079 251.605 230.319 233.461 241.08 207.768L240.155 207.413C229.543 232.757 203.656 250.651 173.412 250.651V251.605ZM139.167 243.432C149.376 248.648 161.033 251.605 173.412 251.605V250.651C161.202 250.651 149.705 247.735 139.635 242.59L139.167 243.432ZM97.1856 274.772C114.082 266.047 128.495 255.183 139.769 243.332L139.033 242.69C127.838 254.458 113.514 265.256 96.7129 273.933L97.1856 274.772ZM-1.84226 289.295C25.2929 297.33 62.3239 292.777 97.1856 274.772L96.7129 273.933C62.0204 291.85 25.273 296.325 -1.54868 288.384L-1.84226 289.295ZM-2.94676 332.853C4.27737 319.729 4.40664 304.274 -1.22532 288.683L-2.16563 288.995C3.40176 304.4 3.23745 319.571 -3.82737 332.408L-2.94676 332.853ZM-135.966 344.603C-108.671 358.392 -80.1481 364.001 -56.0876 361.902C-32.0372 359.802 -12.3749 349.985 -2.94676 332.853L-3.82737 332.408C-13.0466 349.161 -32.3357 358.871 -56.1821 360.952C-80.0187 363.033 -108.348 357.476 -135.498 343.76L-135.966 344.603ZM-142.249 341.268C-140.195 342.413 -138.1 343.525 -135.966 344.603L-135.498 343.76C-137.605 342.697 -139.689 341.591 -141.747 340.444L-142.249 341.268ZM-220.132 402.24C-185.659 402.24 -155.906 377.255 -141.533 341.025L-142.463 340.687C-156.747 376.683 -186.206 401.287 -220.132 401.287V402.24ZM-263.835 387.599C-250.974 396.908 -236.053 402.24 -220.132 402.24V401.287C-235.809 401.287 -250.526 396.037 -263.233 386.838L-263.835 387.599ZM-305.398 400.284C-289.851 397.938 -275.567 393.569 -263.308 387.644L-263.755 386.793C-275.915 392.669 -290.099 397.011 -305.553 399.342L-305.398 400.284ZM-300.483 423.93C-300.483 415.392 -302.08 407.211 -305.011 399.647L-305.941 399.979C-303.055 407.438 -301.478 415.507 -301.478 423.93H-300.483ZM-373.371 493.765C-333.116 493.765 -300.483 462.499 -300.483 423.93H-301.478C-301.478 461.972 -333.663 492.812 -373.371 492.812V493.765ZM-446.258 423.93C-446.258 462.499 -413.626 493.765 -373.371 493.765V492.812C-413.078 492.812 -445.263 461.972 -445.263 423.93H-446.258Z" fill="url(#paint2_linear_9451_118256)"/>
</g>
</g>
</g>
</g>
<defs>
<linearGradient id="paint0_linear_9451_118256" x1="708.502" y1="493.288" x2="708.502" y2="-153.586" gradientUnits="userSpaceOnUse">
<stop offset="0.451923" stop-color="white"/>
<stop offset="1" stop-color="#FFAE1E" stop-opacity="0.3"/>
</linearGradient>
<linearGradient id="paint1_linear_9451_118256" x1="708.502" y1="493.288" x2="708.502" y2="-153.586" gradientUnits="userSpaceOnUse">
<stop offset="0.514423" stop-color="white"/>
<stop offset="1" stop-color="#FFAE1E"/>
</linearGradient>
<linearGradient id="paint2_linear_9451_118256" x1="708.502" y1="493.765" x2="708.502" y2="-154.062" gradientUnits="userSpaceOnUse">
<stop offset="0.451923" stop-color="white"/>
<stop offset="1" stop-color="#FFAE1E" stop-opacity="0.3"/>
</linearGradient>
<clipPath id="clip0_9451_118256">
<rect width="1440" height="575" fill="white" transform="matrix(-1 0 0 -1 1440 575)"/>
</clipPath>
<clipPath id="clip1_9451_118256">
<rect width="2213" height="767" fill="white" transform="matrix(-1 0 0 -1 1815 645)"/>
</clipPath>
</defs>
</svg>
