<svg width="1440" height="575" viewBox="0 0 1440 575" fill="none" xmlns="http://www.w3.org/2000/svg">
<g clip-path="url(#clip0_9451_118256)">
<g clip-path="url(#clip1_9451_118256)">
<path fill-rule="evenodd" clip-rule="evenodd" d="M1894.83 28.5416C1894.89 27.9834 1894.95 27.4238 1895 26.8613C1898.61 -13.1376 1867.7 -48.3705 1825.95 -51.8323C1784.2 -55.2945 1747.43 -25.6751 1743.82 14.3242C1742.91 24.3524 1744.18 34.0808 1747.24 43.0846C1733.68 44.4465 1721.03 47.4125 1709.85 51.7042C1697.94 41.429 1683.65 34.9331 1667.92 33.6279C1644.06 31.6497 1621.36 41.9644 1603.87 60.267C1555.91 35.9923 1504.61 38.3215 1484.31 67.1061C1470.76 33.9259 1446.98 10.8348 1417.17 6.6099C1362.1 -1.19405 1307.28 58.335 1294.74 139.571C1293.68 146.468 1292.94 153.407 1292.53 160.367C1283.56 155.345 1273.32 152.103 1262.28 151.187C1231.94 148.671 1204.35 164.47 1191.4 189.01C1189.79 188.77 1188.16 188.581 1186.5 188.444C1149.72 185.394 1116.98 209.261 1109.48 242.988C1087.57 226.831 1060.73 216.292 1031.15 213.839C971.557 208.897 917.103 238.104 888.823 284.514C873.38 262.189 850.14 247.154 823.09 244.91C771.78 240.655 725.724 283.998 718.47 342.434C707.843 337.875 695.22 337.683 682.155 341.261C693.972 309.617 689.772 279.026 669.006 265.122C647.119 250.466 613.392 258.742 585.536 283.076C573.67 255.126 546.261 234.395 512.727 231.614C499.657 230.53 487.015 232.287 475.458 236.35C477.597 229.874 478.982 223.192 479.587 216.424C484.159 165.802 445.039 121.213 392.202 116.831C342.633 112.72 298.607 145.463 289.577 191.331C283.024 187.869 275.626 185.634 267.69 184.976C267.536 184.962 267.377 184.95 267.218 184.938C259.909 162.721 241.167 145.029 217.077 138.806C199.897 80.8239 146.831 36.2273 80.4358 30.7211C61.6477 29.1632 43.3501 30.8645 26.1506 35.335C11.2372 11.824 -14.767 -4.79547 -45.5679 -7.35007C-77.9569 -10.0358 -107.911 3.47373 -126.722 26.1658C-161.461 -12.189 -211.197 -38.1483 -268.173 -42.8733C-384.519 -52.5216 -486.998 30.0237 -497.068 141.497C-503.796 215.964 -467.582 284.502 -408.114 324.678L-452.492 815.93L1801.34 1002.84L1879.56 136.876C1881.97 131.915 1883.48 126.657 1883.98 121.165C1885.34 106.122 1878.88 91.561 1866.79 79.1279C1882.26 67.6877 1892.88 50.3141 1894.7 30.1857C1894.75 29.6366 1894.79 29.0889 1894.83 28.5416ZM1498.79 150.048C1497.97 149.056 1497.18 148.053 1496.39 147.04C1496.32 148.31 1496.23 149.584 1496.14 150.861L1498.79 150.048Z" fill="#4E71FF" fill-opacity="0.6"/>
<mask id="mask0_9451_118256" style="mask-type:luminance" maskUnits="userSpaceOnUse" x="-498" y="-53" width="2394" height="1056">
<path fill-rule="evenodd" clip-rule="evenodd" d="M1894.83 28.5416C1894.89 27.9834 1894.95 27.4238 1895 26.8613C1898.61 -13.1376 1867.7 -48.3705 1825.95 -51.8323C1784.2 -55.2945 1747.43 -25.6751 1743.82 14.3242C1742.91 24.3524 1744.18 34.0808 1747.24 43.0846C1733.68 44.4465 1721.03 47.4125 1709.85 51.7042C1697.94 41.429 1683.65 34.9331 1667.92 33.6279C1644.06 31.6497 1621.36 41.9644 1603.87 60.267C1555.91 35.9923 1504.61 38.3215 1484.31 67.1061C1470.76 33.9259 1446.98 10.8348 1417.17 6.6099C1362.1 -1.19405 1307.28 58.335 1294.74 139.571C1293.68 146.468 1292.94 153.407 1292.53 160.367C1283.56 155.345 1273.32 152.103 1262.28 151.187C1231.94 148.671 1204.35 164.47 1191.4 189.01C1189.79 188.77 1188.16 188.581 1186.5 188.444C1149.72 185.394 1116.98 209.261 1109.48 242.988C1087.57 226.831 1060.73 216.292 1031.15 213.839C971.557 208.897 917.103 238.104 888.823 284.514C873.38 262.189 850.14 247.154 823.09 244.91C771.78 240.655 725.724 283.998 718.47 342.434C707.843 337.875 695.22 337.683 682.155 341.261C693.972 309.617 689.772 279.026 669.006 265.122C647.12 250.466 613.392 258.742 585.536 283.076C573.67 255.126 546.261 234.395 512.727 231.614C499.657 230.53 487.015 232.287 475.458 236.35C477.597 229.874 478.982 223.192 479.587 216.424C484.159 165.802 445.039 121.213 392.202 116.831C342.633 112.72 298.607 145.463 289.577 191.331C283.024 187.869 275.626 185.634 267.69 184.976C267.536 184.962 267.377 184.95 267.218 184.938C259.909 162.721 241.167 145.029 217.077 138.806C199.897 80.8239 146.831 36.2273 80.4358 30.7211C61.6476 29.1632 43.3501 30.8645 26.1506 35.335C11.2372 11.824 -14.767 -4.79547 -45.5679 -7.35007C-77.9569 -10.0358 -107.911 3.47373 -126.722 26.1658C-161.461 -12.189 -211.197 -38.1483 -268.173 -42.8733C-384.519 -52.5216 -486.998 30.0237 -497.068 141.497C-503.796 215.964 -467.582 284.502 -408.114 324.678L-452.492 815.93L1801.34 1002.84L1879.56 136.876C1881.97 131.915 1883.48 126.657 1883.98 121.165C1885.34 106.122 1878.88 91.561 1866.79 79.1279C1882.26 67.6877 1892.88 50.3141 1894.7 30.1857C1894.75 29.6366 1894.79 29.0889 1894.83 28.5416ZM1498.79 150.048C1497.97 149.056 1497.18 148.053 1496.39 147.04C1496.32 148.31 1496.23 149.584 1496.14 150.861L1498.79 150.048Z" fill="white"/>
</mask>
<g mask="url(#mask0_9451_118256)">
<path d="M1894.83 28.5416L1894.33 28.4897V28.5116L1894.83 28.5416ZM1747.24 43.0846L1747.29 43.5584L1747.9 43.4969L1747.71 42.9368L1747.24 43.0846ZM1709.85 51.7042L1709.51 52.0583L1709.74 52.2571L1710.03 52.147L1709.85 51.7042ZM1603.87 60.267L1603.64 60.6884L1603.98 60.8605L1604.24 60.5888L1603.87 60.267ZM1484.31 67.1061L1483.85 67.2801L1484.19 68.1253L1484.73 67.3731L1484.31 67.1061ZM1292.53 160.367L1292.28 160.779L1292.98 161.173L1293.02 160.394L1292.53 160.367ZM1191.4 189.01L1191.33 189.481L1191.68 189.534L1191.85 189.225L1191.4 189.01ZM1109.48 242.988L1109.17 243.366L1109.79 243.827L1109.96 243.088L1109.48 242.988ZM888.823 284.514L888.405 284.777L888.848 285.416L889.251 284.754L888.823 284.514ZM718.47 342.434L718.266 342.869L718.888 343.134L718.967 342.49L718.47 342.434ZM682.155 341.261L681.688 341.1L681.364 341.974L682.295 341.719L682.155 341.261ZM585.536 283.076L585.078 283.256L585.347 283.889L585.874 283.428L585.536 283.076ZM475.458 236.35L474.985 236.206L474.682 237.132L475.632 236.797L475.458 236.35ZM289.577 191.331L289.338 191.748L289.94 192.066L290.069 191.419L289.577 191.331ZM267.218 184.938L266.745 185.082L266.845 185.389L267.178 185.413L267.218 184.938ZM217.077 138.806L216.599 138.936L216.674 139.196L216.948 139.267L217.077 138.806ZM26.1506 35.335L25.7258 35.5824L25.9198 35.8889L26.2809 35.795L26.1506 35.335ZM-126.722 26.1658L-127.098 26.478L-126.705 26.9118L-126.332 26.4623L-126.722 26.1658ZM-408.113 324.678L-407.618 324.719L-407.593 324.446L-407.827 324.289L-408.113 324.678ZM-452.492 815.93L-452.988 815.892L-453.031 816.364L-452.535 816.407L-452.492 815.93ZM1801.34 1002.84L1801.29 1003.31L1801.79 1003.36L1801.83 1002.88L1801.34 1002.84ZM1879.56 136.876L1879.12 136.675L1879.08 136.751L1879.07 136.835L1879.56 136.876ZM1866.79 79.1279L1866.48 78.7508L1866.05 79.0702L1866.42 79.453L1866.79 79.1279ZM1496.39 147.04L1496.8 146.756L1495.98 145.693L1495.9 147.013L1496.39 147.04ZM1498.79 150.048L1498.94 150.502L1499.62 150.293L1499.18 149.754L1498.79 150.048ZM1496.14 150.861L1495.64 150.826L1495.59 151.53L1496.29 151.315L1496.14 150.861ZM1894.5 26.8203C1894.45 27.379 1894.39 27.9353 1894.33 28.4897L1895.32 28.5936C1895.38 28.032 1895.44 27.4681 1895.49 26.9027L1894.5 26.8203ZM1825.91 -51.3575C1867.38 -47.9177 1898.09 -12.9164 1894.5 26.8203L1895.49 26.9027C1899.13 -13.3588 1868.02 -48.8224 1825.99 -52.3071L1825.91 -51.3575ZM1744.32 14.3652C1747.9 -25.372 1784.44 -54.7968 1825.91 -51.3575L1825.99 -52.3071C1783.97 -55.7917 1746.96 -25.9788 1743.32 14.2828L1744.32 14.3652ZM1747.71 42.9368C1744.67 33.9931 1743.42 24.3286 1744.32 14.3652L1743.32 14.2828C1742.41 24.3763 1743.68 34.169 1746.76 43.2324L1747.71 42.9368ZM1710.03 52.147C1721.17 47.873 1733.77 44.9165 1747.29 43.5584L1747.19 42.6103C1733.58 43.9765 1720.89 46.9525 1709.66 51.2618L1710.03 52.147ZM1667.87 34.1027C1683.49 35.3979 1697.68 41.8442 1709.51 52.0583L1710.18 51.35C1698.2 41.0138 1683.82 34.4683 1667.96 33.1531L1667.87 34.1027ZM1604.24 60.5888C1621.65 42.3695 1644.21 32.1402 1667.87 34.1027L1667.96 33.1531C1643.92 31.1596 1621.07 41.5587 1603.51 59.9452L1604.24 60.5888ZM1484.73 67.3731C1494.76 53.1409 1512.49 45.4056 1533.74 44.2654C1555 43.1246 1579.72 48.5847 1603.64 60.6884L1604.11 59.8456C1580.06 47.6747 1555.15 42.1617 1533.69 43.3134C1512.23 44.4651 1494.16 52.2867 1483.9 66.8397L1484.73 67.3731ZM1417.09 7.08182C1446.67 11.2724 1470.33 34.1904 1483.85 67.2801L1484.78 66.9326C1471.19 33.6608 1447.3 10.3972 1417.24 6.13844L1417.09 7.08182ZM1295.23 139.641C1301.49 99.1004 1318.29 63.9986 1340.38 40.0156C1362.46 16.0294 1389.78 3.21106 1417.09 7.08182L1417.24 6.13844C1389.48 2.20524 1361.86 15.2495 1339.63 39.385C1317.4 63.5252 1300.53 98.8058 1294.25 139.502L1295.23 139.641ZM1293.02 160.394C1293.42 153.567 1294.15 146.638 1295.23 139.641L1294.25 139.502C1293.18 146.412 1292.44 153.366 1292.03 160.341L1293.02 160.394ZM1262.24 151.662C1273.2 152.571 1283.37 155.792 1292.28 160.779L1292.78 159.956C1283.75 154.899 1273.44 151.633 1262.32 150.712L1262.24 151.662ZM1191.85 189.225C1204.71 164.853 1232.11 149.163 1262.24 151.662L1262.32 150.712C1231.77 148.178 1204 164.087 1190.96 188.795L1191.85 189.225ZM1186.46 188.919C1188.1 189.055 1189.72 189.243 1191.33 189.481L1191.48 188.539C1189.86 188.298 1188.21 188.107 1186.54 187.969L1186.46 188.919ZM1109.96 243.088C1117.42 209.593 1149.93 185.89 1186.46 188.919L1186.54 187.969C1149.51 184.898 1116.55 208.93 1108.99 242.889L1109.96 243.088ZM1031.11 214.313C1060.59 216.759 1087.34 227.263 1109.17 243.366L1109.78 242.611C1087.79 226.4 1060.87 215.825 1031.19 213.364L1031.11 214.313ZM889.251 284.754C917.436 238.498 971.711 209.388 1031.11 214.313L1031.19 213.364C971.403 208.405 916.764 237.711 888.39 284.274L889.251 284.754ZM823.05 245.386C849.926 247.614 873.037 262.552 888.405 284.777L889.236 284.251C873.728 261.825 850.359 246.694 823.135 244.436L823.05 245.386ZM718.967 342.49C726.196 284.228 772.083 241.159 823.05 245.386L823.135 244.436C771.476 240.152 725.251 283.77 717.977 342.377L718.967 342.49ZM682.295 341.719C695.275 338.164 707.768 338.367 718.266 342.869L718.674 341.999C707.912 337.383 695.171 337.202 682.021 340.802L682.295 341.719ZM668.722 265.512C689.21 279.231 693.479 309.531 681.688 341.1L682.628 341.421C694.469 309.702 690.34 278.822 669.289 264.731L668.722 265.512ZM585.874 283.428C599.75 271.305 615.069 263.199 629.621 259.942C644.169 256.685 657.921 258.281 668.722 265.512L669.289 264.731C658.204 257.307 644.144 255.712 629.398 259.013C614.646 262.314 599.178 270.513 585.202 282.724L585.874 283.428ZM512.688 232.089C546.022 234.854 573.276 255.465 585.078 283.256L585.998 282.896C574.063 254.788 546.495 233.936 512.772 231.139L512.688 232.089ZM475.632 236.797C487.12 232.758 499.687 231.011 512.688 232.089L512.772 231.139C499.628 230.049 486.911 231.816 475.289 235.902L475.632 236.797ZM479.095 216.383C478.473 223.259 477.075 229.89 474.985 236.206L475.935 236.493C478.084 229.984 479.475 223.267 480.085 216.465L479.095 216.383ZM392.162 117.306C444.721 121.665 483.642 166.023 479.095 216.383L480.085 216.465C484.682 165.581 445.352 120.761 392.246 116.357L392.162 117.306ZM290.069 191.419C299.05 145.789 342.847 113.217 392.162 117.306L392.246 116.357C342.419 112.224 298.164 145.136 289.089 191.242L290.069 191.419ZM267.651 185.451C275.517 186.103 282.845 188.318 289.338 191.748L289.82 190.913C283.208 187.42 275.74 185.165 267.735 184.501L267.651 185.451ZM267.178 185.413C267.337 185.425 267.491 185.438 267.651 185.451L267.735 184.501C267.576 184.488 267.417 184.475 267.258 184.463L267.178 185.413ZM216.948 139.267C240.869 145.446 259.486 163.016 266.745 185.082L267.69 184.795C260.337 162.425 241.466 144.612 217.206 138.346L216.948 139.267ZM80.3925 31.1963C146.578 36.6845 199.47 81.1381 216.599 138.936L217.555 138.676C200.32 80.5093 147.085 35.7702 80.4785 30.2463L80.3925 31.1963ZM26.2809 35.795C43.4252 31.3389 61.6641 29.6432 80.3925 31.1963L80.4785 30.2463C61.6317 28.6832 43.2755 30.3898 26.0203 34.875L26.2809 35.795ZM-45.6107 -6.87482C-14.9745 -4.33452 10.891 12.1958 25.7258 35.5824L26.576 35.0876C11.5835 11.4521 -14.5595 -5.25692 -45.5246 -7.82487L-45.6107 -6.87482ZM-126.332 26.4623C-107.62 3.88987 -77.8266 -9.54668 -45.6107 -6.87482L-45.5246 -7.82487C-78.0873 -10.5253 -108.201 3.0571 -127.112 25.8693L-126.332 26.4623ZM-268.216 -42.398C-211.374 -37.6845 -161.756 -11.7867 -127.098 26.478L-126.346 25.8535C-161.167 -12.5913 -211.021 -38.6121 -268.131 -43.3481L-268.216 -42.398ZM-496.573 141.538C-486.526 30.3268 -384.288 -52.0239 -268.216 -42.398L-268.131 -43.3481C-384.749 -53.0192 -487.47 29.7205 -497.564 141.456L-496.573 141.538ZM-407.827 324.289C-467.157 284.206 -503.284 215.829 -496.573 141.538L-497.564 141.456C-504.307 216.099 -468.008 284.798 -408.4 325.067L-407.827 324.289ZM-451.996 815.973L-407.618 324.719L-408.609 324.637L-452.988 815.892L-451.996 815.973ZM1801.38 1002.37L-452.449 815.458L-452.535 816.407L1801.29 1003.31L1801.38 1002.37ZM1879.07 136.835L1800.84 1002.8L1801.83 1002.88L1880.06 136.917L1879.07 136.835ZM1883.49 121.124C1883 126.558 1881.5 131.762 1879.12 136.675L1880.02 137.077C1882.45 132.068 1883.98 126.756 1884.48 121.206L1883.49 121.124ZM1866.42 79.453C1878.44 91.8136 1884.83 106.247 1883.49 121.124L1884.48 121.206C1885.85 105.996 1879.31 91.3083 1867.15 78.8032L1866.42 79.453ZM1894.2 30.1447C1892.39 50.1349 1881.85 67.3883 1866.48 78.7508L1867.09 79.5054C1882.67 67.9871 1893.36 50.4938 1895.2 30.2272L1894.2 30.1447ZM1894.33 28.5116C1894.3 29.055 1894.25 29.5994 1894.2 30.1447L1895.2 30.2272C1895.25 29.6742 1895.29 29.1222 1895.33 28.5716L1894.33 28.5116ZM1496 147.323C1496.78 148.334 1497.57 149.341 1498.39 150.342L1499.18 149.754C1498.37 148.767 1497.57 147.767 1496.8 146.756L1496 147.323ZM1496.63 150.896C1496.73 149.616 1496.82 148.339 1496.89 147.066L1495.9 147.013C1495.83 148.28 1495.74 149.552 1495.64 150.826L1496.63 150.896ZM1498.64 149.594L1495.99 150.407L1496.29 151.315L1498.94 150.502L1498.64 149.594Z" fill="white"/>
</g>
<path fill-rule="evenodd" clip-rule="evenodd" d="M2084.69 -16.4301C2084.66 -16.9907 2084.63 -17.5527 2084.6 -18.1162C2081.93 -58.1837 2045.87 -88.5958 2004.05 -86.0441C1962.24 -83.4923 1930.5 -48.9421 1933.16 -8.87454C1933.82 1.17083 1936.59 10.6094 1941.02 19.0735C1927.83 22.3608 1915.79 27.1039 1905.4 32.9487C1892.02 24.4921 1876.88 20.1142 1861.12 21.0766C1837.22 22.5343 1816.38 35.9823 1801.94 56.5826C1750.23 39.2753 1699.37 49.2854 1684.34 81.3998C1681.34 87.8132 1679.97 94.6624 1680.09 101.72C1665.73 90.2415 1649.29 83.7427 1631.83 83.7947C1580.51 83.9477 1538.34 140.626 1532.26 213.8C1518.21 201.284 1499.02 194.113 1478.36 195.374C1447.97 197.229 1423.16 216.799 1414.18 242.916C1412.54 242.911 1410.9 242.957 1409.25 243.059C1372.4 245.307 1343.75 273.592 1341.59 308.016C1317.4 295.176 1289.23 288.595 1259.59 290.404C1199.9 294.047 1150.61 330.72 1129.88 380.657C1111.14 360.792 1085.81 349.252 1058.72 350.906C1007.32 354.042 968.537 403.491 970.477 462.309C959.253 459.321 946.745 460.937 934.387 466.347C941.133 433.365 932.212 403.72 909.51 392.943C879.305 378.605 836.14 403.1 813.104 447.656C813.045 447.77 812.985 447.88 812.93 447.994C812.856 448.133 812.786 448.276 812.711 448.414C812.632 448.576 812.547 448.738 812.468 448.905L812.453 448.624L812.438 448.404C812.428 448.223 812.418 448.037 812.403 447.856C809.861 409.625 775.456 380.61 735.56 383.045C728.082 383.501 720.947 385.029 714.3 387.462C714.865 382.294 714.973 377.089 714.624 371.903C711.256 321.195 665.617 282.706 612.695 285.935C563.037 288.966 524.608 327.642 522.837 374.287C515.817 371.802 508.155 370.651 500.205 371.136L499.996 371.149L499.727 371.167C487.229 346.696 460.223 330.587 430.078 332.426C419.416 333.076 409.441 335.907 400.595 340.436C398.069 337.032 395.228 333.854 392.107 330.938C408.172 305.667 416.58 275.586 414.466 243.817C408.993 161.449 334.861 98.9288 248.894 104.175C183.245 108.181 129.681 150.545 110.461 207.026C93.2404 194.494 71.4164 187.61 48.1421 189.03C23.3976 190.54 1.52334 201.161 -14.1478 217.266C-48.296 140.421 -130.249 88.8572 -222.19 94.4679C-338.733 101.58 -427.194 197.867 -419.771 309.53C-412.348 421.195 -311.854 505.951 -195.31 498.839C-181.006 497.966 -167.126 495.75 -153.794 492.327L-113.527 1098.09L2144.15 960.316L2086.49 92.8671C2088.1 87.6187 2088.77 82.2059 2088.41 76.7058C2087.41 61.637 2078.74 48.1652 2064.85 37.6021C2078.37 24.075 2086.16 5.3767 2084.82 -14.786C2084.78 -15.3356 2084.74 -15.8838 2084.69 -16.4301ZM799.139 496.832C799.223 495.23 799.343 493.614 799.507 491.984C798.591 493.242 797.631 494.467 796.631 495.664L799.139 496.832Z" fill="#EAEAEA" fill-opacity="0.6"/>
<mask id="mask1_9451_118256" style="mask-type:luminance" maskUnits="userSpaceOnUse" x="-421" y="-87" width="2566" height="1186">
<path fill-rule="evenodd" clip-rule="evenodd" d="M2084.69 -16.4301C2084.66 -16.9907 2084.63 -17.5527 2084.6 -18.1162C2081.93 -58.1837 2045.87 -88.5958 2004.05 -86.0441C1962.24 -83.4923 1930.5 -48.9421 1933.16 -8.87453C1933.82 1.17083 1936.59 10.6094 1941.02 19.0735C1927.83 22.3608 1915.79 27.1039 1905.4 32.9487C1892.02 24.4921 1876.88 20.1142 1861.11 21.0766C1837.22 22.5343 1816.38 35.9823 1801.94 56.5826C1750.23 39.2753 1699.37 49.2854 1684.34 81.3998C1681.34 87.8132 1679.97 94.6624 1680.09 101.72C1665.73 90.2415 1649.29 83.7427 1631.83 83.7947C1580.51 83.9477 1538.34 140.626 1532.26 213.8C1518.21 201.284 1499.02 194.113 1478.36 195.374C1447.97 197.229 1423.16 216.799 1414.18 242.916C1412.54 242.911 1410.9 242.957 1409.25 243.059C1372.4 245.307 1343.75 273.592 1341.59 308.016C1317.4 295.176 1289.23 288.595 1259.59 290.404C1199.9 294.047 1150.61 330.72 1129.88 380.657C1111.14 360.792 1085.81 349.252 1058.72 350.906C1007.32 354.042 968.537 403.491 970.477 462.309C959.253 459.321 946.745 460.937 934.386 466.347C941.133 433.365 932.212 403.72 909.51 392.943C879.305 378.605 836.14 403.1 813.104 447.656C813.045 447.77 812.985 447.88 812.93 447.994C812.856 448.133 812.786 448.276 812.711 448.414C812.632 448.576 812.547 448.738 812.468 448.905L812.453 448.624L812.438 448.404C812.428 448.223 812.418 448.037 812.403 447.856C809.86 409.625 775.456 380.61 735.56 383.045C728.082 383.501 720.947 385.029 714.3 387.462C714.865 382.294 714.973 377.089 714.624 371.903C711.256 321.195 665.617 282.706 612.695 285.935C563.037 288.966 524.608 327.642 522.837 374.288C515.817 371.802 508.155 370.651 500.205 371.136L499.996 371.149L499.727 371.167C487.229 346.696 460.223 330.587 430.078 332.426C419.416 333.076 409.441 335.907 400.595 340.436C398.069 337.032 395.228 333.854 392.107 330.938C408.172 305.667 416.58 275.586 414.466 243.817C408.993 161.449 334.861 98.9288 248.894 104.175C183.245 108.181 129.681 150.545 110.461 207.026C93.2404 194.494 71.4164 187.61 48.1421 189.03C23.3976 190.54 1.52335 201.161 -14.1478 217.266C-48.296 140.421 -130.249 88.8572 -222.19 94.4679C-338.733 101.58 -427.194 197.867 -419.771 309.53C-412.348 421.195 -311.854 505.951 -195.31 498.839C-181.006 497.966 -167.126 495.75 -153.794 492.327L-113.527 1098.09L2144.15 960.316L2086.49 92.8671C2088.1 87.6187 2088.77 82.2059 2088.41 76.7058C2087.41 61.637 2078.74 48.1652 2064.85 37.6021C2078.37 24.075 2086.16 5.3767 2084.82 -14.786C2084.78 -15.3356 2084.74 -15.8838 2084.69 -16.4301ZM799.139 496.832C799.223 495.23 799.343 493.614 799.507 491.984C798.591 493.242 797.631 494.467 796.631 495.664L799.139 496.832Z" fill="white"/>
</mask>
<g mask="url(#mask1_9451_118256)">
<path d="M2084.69 -16.4301L2084.19 -16.4106V-16.3887L2084.69 -16.4301ZM1941.02 19.0735L1941.15 19.535L1941.74 19.3867L1941.47 18.86L1941.02 19.0735ZM1905.39 32.9486L1905.12 33.3462L1905.38 33.5102L1905.64 33.3596L1905.39 32.9486ZM1801.94 56.5826L1801.78 57.0326L1802.14 57.1542L1802.36 56.8486L1801.94 56.5826ZM1680.09 101.72L1679.77 102.086L1680.61 102.753L1680.59 101.713L1680.09 101.72ZM1532.26 213.8L1531.92 214.149L1532.68 214.82L1532.76 213.838L1532.26 213.8ZM1414.18 242.916L1414.18 243.393L1414.54 243.394L1414.65 243.066L1414.18 242.916ZM1341.59 308.016L1341.34 308.433L1342.03 308.799L1342.08 308.044L1341.59 308.016ZM1129.88 380.657L1129.52 380.976L1130.05 381.544L1130.35 380.833L1129.88 380.657ZM970.477 462.309L970.343 462.767L970.994 462.939L970.974 462.295L970.477 462.309ZM934.386 466.347L933.899 466.256L933.71 467.167L934.59 466.781L934.386 466.347ZM812.467 448.905L811.97 448.929L812.915 449.11L812.467 448.905ZM812.452 448.624L812.945 448.6V448.595L812.452 448.624ZM714.3 387.462L713.803 387.412L713.718 388.184L714.474 387.907L714.3 387.462ZM522.837 374.287L522.663 374.735L523.31 374.962L523.335 374.305L522.837 374.287ZM499.727 371.167L499.284 371.376L499.428 371.666L499.767 371.642L499.727 371.167ZM400.595 340.436L400.192 340.712L400.445 341.054L400.829 340.856L400.595 340.436ZM392.107 330.938L391.684 330.69L391.48 331.015L391.764 331.28L392.107 330.938ZM110.461 207.026L110.161 207.405L110.718 207.811L110.934 207.173L110.461 207.026ZM-14.1478 217.266L-14.6055 217.452L-14.306 218.127L-13.7841 217.591L-14.1478 217.266ZM-153.794 492.327L-153.298 492.298L-153.336 491.717L-153.923 491.864L-153.794 492.327ZM-113.527 1098.09L-114.023 1098.12L-113.991 1098.6L-113.495 1098.57L-113.527 1098.09ZM2144.15 960.316L2144.19 960.793L2144.68 960.764L2144.65 960.287L2144.15 960.316ZM2086.49 92.8671L2086.01 92.7327L2085.99 92.8132L2085.99 92.8971L2086.49 92.8671ZM2064.85 37.6021L2064.49 37.2722L2064.11 37.6503L2064.54 37.9754L2064.85 37.6021ZM799.507 491.984L800.004 492.026L800.183 490.225L799.099 491.712L799.507 491.984ZM799.139 496.832L798.92 497.256L799.596 497.575L799.636 496.855L799.139 496.832ZM796.631 495.664L796.243 495.363L795.85 495.83L796.412 496.093L796.631 495.664ZM2084.1 -18.0857C2084.14 -17.5261 2084.17 -16.9678 2084.19 -16.4106L2085.19 -16.4497C2085.16 -17.0141 2085.13 -17.5795 2085.09 -18.1462L2084.1 -18.0857ZM2004.08 -85.5683C2045.63 -88.1034 2081.45 -57.8906 2084.1 -18.0857L2085.09 -18.1462C2082.41 -58.4764 2046.12 -89.0887 2004.02 -86.5198L2004.08 -85.5683ZM1933.65 -8.90506C1931.01 -48.7099 1962.54 -83.0333 2004.08 -85.5683L2004.02 -86.5198C1961.93 -83.9509 1929.98 -49.1747 1932.66 -8.84452L1933.65 -8.90506ZM1941.47 18.86C1937.07 10.4516 1934.32 1.07548 1933.65 -8.90506L1932.66 -8.84452C1933.33 1.26615 1936.12 10.7667 1940.58 19.2876L1941.47 18.86ZM1905.64 33.3596C1916 27.5391 1928 22.8122 1941.15 19.535L1940.9 18.6121C1927.66 21.9099 1915.58 26.6687 1905.14 32.5373L1905.64 33.3596ZM1861.15 21.5523C1876.79 20.5975 1891.83 24.9402 1905.12 33.3462L1905.67 32.5506C1892.22 24.044 1876.97 19.6312 1861.08 20.6008L1861.15 21.5523ZM1802.36 56.8486C1816.73 36.3422 1837.44 22.9986 1861.15 21.5523L1861.08 20.6008C1837 22.07 1816.03 35.6224 1801.53 56.3171L1802.36 56.8486ZM1684.79 81.5947C1692.22 65.717 1708.53 55.2565 1729.49 50.9238C1750.44 46.5921 1775.99 48.403 1801.78 57.0326L1802.11 56.1326C1776.18 47.4549 1750.44 45.6172 1729.28 49.9919C1708.12 54.3665 1691.48 64.9682 1683.89 81.2048L1684.79 81.5947ZM1680.59 101.713C1680.47 94.7195 1681.82 87.94 1684.79 81.5947L1683.89 81.2048C1680.85 87.6859 1679.47 94.6051 1679.59 101.728L1680.59 101.713ZM1631.83 84.2714C1649.15 84.2199 1665.49 90.6662 1679.77 102.086L1680.41 101.355C1665.98 89.8167 1649.42 83.2655 1631.83 83.318V84.2714ZM1532.76 213.838C1535.79 177.323 1547.83 144.948 1565.48 121.695C1583.14 98.4406 1606.38 84.3472 1631.83 84.2714V83.318C1605.97 83.3952 1582.46 97.7175 1564.68 121.134C1546.9 144.552 1534.81 177.103 1531.77 213.762L1532.76 213.838ZM1478.4 195.85C1498.91 194.597 1517.97 201.719 1531.92 214.149L1532.6 213.451C1518.45 200.85 1499.13 193.629 1478.33 194.898L1478.4 195.85ZM1414.65 243.066C1423.56 217.126 1448.21 197.692 1478.4 195.85L1478.33 194.898C1447.73 196.765 1422.74 216.471 1413.71 242.767L1414.65 243.066ZM1409.28 243.534C1410.92 243.434 1412.55 243.387 1414.18 243.393L1414.18 242.44C1412.54 242.434 1410.88 242.481 1409.22 242.583L1409.28 243.534ZM1342.08 308.044C1344.23 273.858 1372.68 245.768 1409.28 243.534L1409.22 242.583C1372.12 244.847 1343.27 273.327 1341.09 307.987L1342.08 308.044ZM1259.62 290.879C1289.16 289.077 1317.24 295.635 1341.34 308.433L1341.83 307.599C1317.57 294.716 1289.3 288.113 1259.56 289.928L1259.62 290.879ZM1130.35 380.833C1151 331.061 1200.13 294.51 1259.62 290.879L1259.56 289.928C1199.67 293.583 1150.22 330.379 1129.42 380.481L1130.35 380.833ZM1058.75 351.381C1085.67 349.738 1110.85 361.201 1129.52 380.976L1130.25 380.337C1111.42 360.383 1085.96 348.765 1058.68 350.43L1058.75 351.381ZM970.974 462.295C969.039 403.65 1007.7 354.497 1058.75 351.381L1058.68 350.43C1006.94 353.588 968.029 403.332 969.979 462.324L970.974 462.295ZM934.59 466.781C946.874 461.408 959.258 459.821 970.343 462.767L970.606 461.847C959.248 458.825 946.616 460.469 934.177 465.913L934.59 466.781ZM909.291 393.37C931.69 404.003 940.63 433.35 933.899 466.256L934.874 466.438C941.64 433.379 932.74 403.437 909.734 392.516L909.291 393.37ZM813.547 447.866C825.03 425.661 841.523 408.472 858.872 398.625C876.23 388.774 894.39 386.297 909.291 393.37L909.734 392.516C894.43 385.251 875.902 387.852 858.364 397.804C840.826 407.757 824.214 425.094 812.656 447.446L813.547 447.866ZM813.373 448.204C813.433 448.09 813.492 447.98 813.547 447.866L812.656 447.446C812.597 447.556 812.542 447.67 812.482 447.785L813.373 448.204ZM813.159 448.624C813.234 448.485 813.303 448.342 813.373 448.204L812.482 447.785C812.408 447.923 812.338 448.066 812.268 448.204L813.159 448.624ZM812.915 449.11C812.995 448.948 813.079 448.786 813.159 448.624L812.268 448.204C812.184 448.371 812.099 448.533 812.02 448.695L812.915 449.11ZM811.955 448.647L811.97 448.929L812.96 448.881L812.945 448.6L811.955 448.647ZM811.94 448.428L811.955 448.647L812.945 448.595L812.935 448.376L811.94 448.428ZM811.905 447.885C811.92 448.066 811.93 448.247 811.94 448.428L812.935 448.376C812.925 448.194 812.91 448.009 812.9 447.823L811.905 447.885ZM735.589 383.521C775.218 381.103 809.383 409.921 811.905 447.885L812.9 447.823C810.343 409.334 775.7 380.118 735.525 382.569L735.589 383.521ZM714.474 387.907C721.077 385.491 728.166 383.974 735.589 383.521L735.525 382.569C728.002 383.029 720.813 384.566 714.121 387.017L714.474 387.907ZM714.131 371.934C714.479 377.181 714.36 382.353 713.803 387.412L714.793 387.511C715.362 382.317 715.472 377.085 715.121 371.873L714.131 371.934ZM612.725 286.411C665.374 283.198 710.778 321.488 714.131 371.934L715.121 371.873C711.733 320.902 665.861 282.213 612.661 285.459L612.725 286.411ZM523.335 374.305C525.101 327.901 563.331 289.426 612.725 286.411L612.661 285.459C562.749 288.505 524.121 327.382 522.34 374.27L523.335 374.305ZM500.234 371.612C508.115 371.131 515.708 372.272 522.663 374.735L523.006 373.84C515.926 371.332 508.195 370.171 500.175 370.66L500.234 371.612ZM500.03 371.625L500.234 371.612L500.175 370.66L499.961 370.673L500.03 371.625ZM499.767 371.642C499.851 371.636 499.941 371.63 500.03 371.625L499.961 370.673L499.692 370.691L499.767 371.642ZM430.113 332.901C460.044 331.075 486.866 347.073 499.284 371.376L500.175 370.957C487.587 346.319 460.397 330.098 430.048 331.95L430.113 332.901ZM400.829 340.856C409.615 336.359 419.521 333.548 430.113 332.901L430.048 331.95C419.312 332.605 409.272 335.455 400.361 340.016L400.829 340.856ZM391.764 331.28C394.861 334.176 397.682 337.333 400.192 340.712L401.003 340.16C398.458 336.734 395.597 333.533 392.455 330.597L391.764 331.28ZM413.973 243.847C416.078 275.516 407.694 305.501 391.684 330.69L392.535 331.186C408.645 305.835 417.083 275.657 414.963 243.787L413.973 243.847ZM248.929 104.65C334.623 99.4212 408.515 161.742 413.973 243.847L414.963 243.787C409.471 161.156 335.105 98.4363 248.864 103.699L248.929 104.65ZM110.934 207.173C130.089 150.872 183.489 108.644 248.929 104.65L248.864 103.699C183.006 107.718 129.268 150.218 109.989 206.878L110.934 207.173ZM48.1734 189.505C71.3244 188.093 93.031 194.941 110.161 207.405L110.762 206.646C93.4499 194.048 71.5089 187.126 48.1103 188.554L48.1734 189.505ZM-13.7841 217.591C1.80392 201.572 23.5613 191.007 48.1734 189.505L48.1103 188.554C23.2344 190.072 1.24271 200.751 -14.512 216.94L-13.7841 217.591ZM-222.158 94.9436C-130.434 89.3463 -48.6742 140.788 -14.6055 217.452L-13.6901 217.079C-47.9184 140.054 -130.064 88.3681 -222.222 93.9921L-222.158 94.9436ZM-419.275 309.5C-426.68 198.099 -338.428 102.039 -222.158 94.9436L-222.222 93.9921C-339.039 101.121 -427.708 197.634 -420.267 309.56L-419.275 309.5ZM-195.341 498.362C-311.611 505.455 -411.869 420.899 -419.275 309.5L-420.267 309.56C-412.827 421.485 -312.096 506.442 -195.278 499.315L-195.341 498.362ZM-153.923 491.864C-167.223 495.282 -181.071 497.489 -195.341 498.362L-195.278 499.315C-180.942 498.438 -167.029 496.217 -153.665 492.784L-153.923 491.864ZM-113.03 1098.06L-153.298 492.298L-154.291 492.355L-114.023 1098.12L-113.03 1098.06ZM2144.12 959.844L-113.558 1097.61L-113.495 1098.57L2144.19 960.793L2144.12 959.844ZM2085.99 92.8971L2143.66 960.349L2144.65 960.287L2086.99 92.8366L2085.99 92.8971ZM2087.91 76.7358C2088.27 82.1782 2087.6 87.5353 2086.01 92.7327L2086.97 93.0011C2088.59 87.7017 2089.27 82.233 2088.9 76.6753L2087.91 76.7358ZM2064.54 37.9754C2078.35 48.4774 2086.92 61.8344 2087.91 76.7358L2088.9 76.6753C2087.89 61.4401 2079.13 47.8534 2065.16 37.2289L2064.54 37.9754ZM2084.32 -14.7555C2085.65 5.26848 2077.92 23.8376 2064.49 37.2722L2065.21 37.932C2078.82 24.3124 2086.66 5.48489 2085.32 -14.8161L2084.32 -14.7555ZM2084.19 -16.3887C2084.24 -15.8462 2084.29 -15.3018 2084.32 -14.7555L2085.32 -14.8161C2085.28 -15.3683 2085.23 -15.9201 2085.19 -16.4716L2084.19 -16.3887ZM799.014 491.936C798.85 493.576 798.726 495.197 798.641 496.808L799.636 496.855C799.716 495.258 799.84 493.652 800.004 492.026L799.014 491.936ZM797.019 495.959C798.024 494.758 798.994 493.523 799.915 492.255L799.099 491.712C798.188 492.956 797.233 494.176 796.243 495.363L797.019 495.959ZM799.352 496.402L796.845 495.235L796.412 496.093L798.92 497.256L799.352 496.402Z" fill="white"/>
</g>
<path fill-rule="evenodd" clip-rule="evenodd" d="M1885.76 151.07C1885.76 171.274 1876.75 189.46 1862.36 202.136C1875.52 213.524 1883.27 227.496 1883.27 242.596C1883.27 248.107 1882.24 253.469 1880.29 258.609V728.586H-381.965V370.967C-406.914 350.812 -422.763 320.643 -422.763 286.928C-422.763 226.244 -371.419 177.05 -308.083 177.05C-261.938 177.05 -222.159 203.163 -203.964 240.807C-190.941 234.189 -176.086 230.44 -160.317 230.44C-134.125 230.44 -110.455 240.782 -93.5108 257.437C-71.7987 235.523 -41.1043 221.859 -7.07892 221.859C58.73 221.859 112.079 272.974 112.079 336.028C112.079 348.343 110.043 360.204 106.277 371.317C110.655 370.525 115.172 370.111 119.79 370.111C145.806 370.111 168.618 383.262 181.379 403.004C190.509 399.024 200.654 396.806 211.335 396.806C241.54 396.806 267.422 414.526 278.273 439.709H278.75C286.716 439.709 294.288 441.325 301.124 444.233C305.995 397.788 346.907 361.531 396.664 361.531C449.696 361.531 492.687 402.721 492.687 453.534C492.687 458.815 492.224 463.997 491.329 469.04C498.125 467.014 505.349 465.928 512.837 465.928C552.818 465.928 585.227 496.979 585.227 535.286C585.227 541.221 584.451 546.98 582.983 552.481C602.65 541.631 628.527 535.048 656.871 535.048C691.011 535.048 721.564 544.601 742.008 559.65C743.839 500.683 785.88 453.534 837.473 453.534C851.717 453.534 865.235 457.128 877.38 463.573C875.678 454.916 874.788 445.983 874.788 436.849C874.788 357.604 941.834 293.364 1024.54 293.364C1084.38 293.364 1136.02 326.987 1160.01 375.591C1170.25 370.271 1181.98 367.251 1194.45 367.251C1196.11 367.251 1197.75 367.304 1199.38 367.409C1210.07 341.891 1236.14 323.872 1266.59 323.872C1278.88 323.872 1290.46 326.808 1300.6 331.989C1311.84 320.179 1326.2 309.348 1343.05 300.648C1377.83 282.687 1414.72 278.172 1441.69 286.161C1436.1 270.662 1436.25 255.351 1443.39 242.369C1462.03 208.485 1521.29 203.314 1575.73 230.819C1577.85 231.886 1579.94 232.994 1582 234.144C1596.33 198.031 1625.93 173.237 1660.13 173.237C1675.93 173.237 1690.75 178.528 1703.53 187.781C1715.74 181.881 1729.98 177.526 1745.48 175.187C1742.57 167.676 1740.98 159.551 1740.98 151.07C1740.98 112.764 1773.39 81.7115 1813.37 81.7115C1853.35 81.7115 1885.76 112.764 1885.76 151.07Z" fill="#4E71FF" fill-opacity="0.1"/>
<mask id="mask2_9451_118256" style="mask-type:luminance" maskUnits="userSpaceOnUse" x="-423" y="81" width="2309" height="648">
<path fill-rule="evenodd" clip-rule="evenodd" d="M1885.76 151.07C1885.76 171.274 1876.75 189.46 1862.36 202.136C1875.52 213.524 1883.27 227.496 1883.27 242.596C1883.27 248.107 1882.24 253.469 1880.29 258.609V728.586H-381.965V370.967C-406.914 350.812 -422.763 320.643 -422.763 286.928C-422.763 226.244 -371.419 177.05 -308.083 177.05C-261.938 177.05 -222.159 203.163 -203.964 240.807C-190.941 234.189 -176.086 230.44 -160.317 230.44C-134.125 230.44 -110.455 240.782 -93.5108 257.437C-71.7987 235.523 -41.1043 221.859 -7.07892 221.859C58.73 221.859 112.079 272.974 112.079 336.028C112.079 348.343 110.043 360.204 106.277 371.317C110.655 370.525 115.172 370.111 119.79 370.111C145.806 370.111 168.618 383.262 181.379 403.004C190.509 399.024 200.654 396.806 211.335 396.806C241.54 396.806 267.422 414.526 278.273 439.709H278.75C286.716 439.709 294.288 441.325 301.124 444.233C305.995 397.788 346.907 361.531 396.664 361.531C449.696 361.531 492.687 402.721 492.687 453.534C492.687 458.815 492.224 463.997 491.329 469.04C498.125 467.014 505.349 465.928 512.837 465.928C552.818 465.928 585.227 496.979 585.227 535.286C585.227 541.221 584.451 546.98 582.983 552.481C602.65 541.631 628.527 535.048 656.871 535.048C691.011 535.048 721.564 544.601 742.008 559.65C743.839 500.683 785.88 453.534 837.473 453.534C851.717 453.534 865.235 457.128 877.38 463.573C875.678 454.916 874.788 445.983 874.788 436.849C874.788 357.604 941.834 293.364 1024.54 293.364C1084.38 293.364 1136.02 326.987 1160.01 375.591C1170.25 370.271 1181.98 367.251 1194.45 367.251C1196.11 367.251 1197.75 367.304 1199.38 367.409C1210.07 341.891 1236.14 323.872 1266.59 323.872C1278.88 323.872 1290.46 326.808 1300.6 331.989C1311.84 320.179 1326.2 309.348 1343.05 300.648C1377.83 282.687 1414.72 278.172 1441.69 286.161C1436.1 270.662 1436.25 255.351 1443.39 242.369C1462.03 208.485 1521.29 203.314 1575.73 230.819C1577.85 231.886 1579.94 232.994 1582 234.144C1596.33 198.031 1625.93 173.237 1660.13 173.237C1675.93 173.237 1690.75 178.528 1703.53 187.781C1715.74 181.881 1729.98 177.526 1745.48 175.187C1742.57 167.676 1740.98 159.551 1740.98 151.07C1740.98 112.764 1773.39 81.7115 1813.37 81.7115C1853.35 81.7115 1885.76 112.764 1885.76 151.07Z" fill="url(#paint0_linear_9451_118256)"/>
</mask>
<g mask="url(#mask2_9451_118256)">
<path d="M1862.36 202.136L1862.02 201.785L1861.62 202.14L1862.03 202.49L1862.36 202.136ZM1880.29 258.609L1879.82 258.446L1879.79 258.525V258.609H1880.29ZM1880.29 728.586V729.062H1880.79V728.586H1880.29ZM-381.966 728.586H-382.463V729.062H-381.966V728.586ZM-381.966 370.967H-381.468V370.746L-381.645 370.603L-381.966 370.967ZM-203.964 240.807L-204.416 241.007L-204.195 241.464L-203.731 241.228L-203.964 240.807ZM-93.5108 257.437L-93.8671 257.77L-93.5059 258.124L-93.1501 257.765L-93.5108 257.437ZM106.277 371.317L105.804 371.17L105.545 371.935L106.37 371.786L106.277 371.317ZM181.379 403.004L180.956 403.255L181.185 403.612L181.588 403.438L181.379 403.004ZM278.273 439.709L277.815 439.891L277.944 440.191L278.278 440.186L278.273 439.709ZM301.124 444.233L300.925 444.667L301.552 444.934L301.622 444.281L301.124 444.233ZM491.329 469.04L490.836 468.959L490.702 469.727L491.478 469.493L491.329 469.04ZM582.983 552.481L582.505 552.362L582.212 553.458L583.232 552.891L582.983 552.481ZM742.008 559.65L741.709 560.027L742.48 560.594L742.505 559.66L742.008 559.65ZM877.38 463.573L877.141 463.992L878.066 464.483L877.867 463.487L877.38 463.573ZM1160 375.591L1159.55 375.794L1159.78 376.25L1160.24 376.01L1160 375.591ZM1199.38 367.409L1199.35 367.885L1199.71 367.908L1199.85 367.587L1199.38 367.409ZM1300.6 331.989L1300.37 332.41L1300.71 332.584L1300.97 332.31L1300.6 331.989ZM1441.69 286.161L1441.55 286.616L1442.49 286.894L1442.17 286.005L1441.69 286.161ZM1582 234.144L1581.75 234.556L1582.26 234.838L1582.46 234.313L1582 234.144ZM1703.53 187.781L1703.23 188.162L1703.48 188.341L1703.76 188.207L1703.53 187.781ZM1745.48 175.187L1745.55 175.658L1746.16 175.567L1745.94 175.021L1745.48 175.187ZM1862.7 202.487C1877.18 189.724 1886.26 171.413 1886.26 151.07H1885.26C1885.26 171.135 1876.31 189.195 1862.02 201.785L1862.7 202.487ZM1883.77 242.596C1883.77 227.329 1875.93 213.237 1862.69 201.783L1862.03 202.49C1875.11 213.812 1882.78 227.664 1882.78 242.596H1883.77ZM1880.76 258.772C1882.73 253.582 1883.77 248.165 1883.77 242.596H1882.78C1882.78 248.049 1881.76 253.356 1879.82 258.446L1880.76 258.772ZM1880.79 728.586V258.609H1879.79V728.586H1880.79ZM-381.966 729.062H1880.29V728.109H-381.966V729.062ZM-382.463 370.967V728.586H-381.468V370.967H-382.463ZM-423.26 286.928C-423.26 320.79 -407.342 351.089 -382.286 371.332L-381.645 370.603C-406.486 350.534 -422.265 320.497 -422.265 286.928H-423.26ZM-308.083 176.574C-371.694 176.574 -423.26 225.981 -423.26 286.928H-422.265C-422.265 226.507 -371.144 177.527 -308.083 177.527V176.574ZM-203.513 240.606C-221.786 202.8 -261.738 176.574 -308.083 176.574V177.527C-262.139 177.527 -222.532 203.525 -204.416 241.007L-203.513 240.606ZM-160.317 229.963C-176.169 229.963 -191.104 233.732 -204.198 240.385L-203.731 241.228C-190.778 234.645 -176.003 230.917 -160.317 230.917V229.963ZM-93.1546 257.104C-110.188 240.361 -133.986 229.963 -160.317 229.963V230.917C-134.265 230.917 -110.721 241.203 -93.8671 257.77L-93.1546 257.104ZM-7.07895 221.383C-41.2461 221.383 -72.0694 235.104 -93.8715 257.109L-93.1501 257.765C-71.5276 235.942 -40.962 222.336 -7.07895 222.336V221.383ZM112.576 336.028C112.576 272.711 59.0051 221.383 -7.07895 221.383V222.336C58.4553 222.336 111.581 273.238 111.581 336.028H112.576ZM106.75 371.465C110.532 360.305 112.576 348.394 112.576 336.028H111.581C111.581 348.293 109.554 360.104 105.804 371.17L106.75 371.465ZM119.79 369.634C115.141 369.634 110.593 370.052 106.185 370.849L106.37 371.786C110.795 370.987 115.288 370.586 119.79 370.588V369.634ZM181.802 402.753C168.956 382.877 145.985 369.634 119.79 369.634V370.588C145.627 370.588 168.284 383.647 180.956 403.255L181.802 402.753ZM211.335 396.329C200.579 396.329 190.365 398.562 181.175 402.57L181.588 403.438C190.653 399.485 200.723 397.283 211.335 397.283V396.329ZM278.735 439.528C267.805 414.173 241.744 396.329 211.335 396.329V397.283C241.331 397.283 267.034 414.883 277.815 439.891L278.735 439.528ZM278.75 439.233H278.268L278.278 440.186H278.75V439.233ZM301.328 443.795C294.427 440.863 286.785 439.233 278.75 439.233V440.186C286.646 440.186 294.149 441.788 300.925 444.667L301.328 443.795ZM396.664 361.054C346.653 361.054 305.522 397.5 300.632 444.186L301.622 444.281C306.463 398.077 347.165 362.007 396.664 362.007V361.054ZM493.184 453.534C493.184 402.458 449.969 361.054 396.664 361.054V362.007C449.422 362.007 492.189 402.984 492.189 453.534H493.184ZM491.821 469.117C492.717 464.049 493.184 458.844 493.184 453.534H492.189C492.189 458.791 491.727 463.945 490.836 468.959L491.821 469.117ZM512.837 465.451C505.299 465.451 498.025 466.547 491.179 468.583L491.478 469.493C498.224 467.486 505.399 466.404 512.837 466.404V465.451ZM585.724 535.286C585.724 496.717 553.092 465.451 512.837 465.451V466.404C552.544 466.404 584.729 497.242 584.729 535.286H585.724ZM583.466 552.6C584.943 547.061 585.724 541.259 585.724 535.286H584.729C584.729 541.178 583.958 546.903 582.505 552.362L583.466 552.6ZM656.871 534.571C628.447 534.571 602.486 541.174 582.739 552.066L583.232 552.891C602.814 542.094 628.601 535.525 656.871 535.525V534.571ZM742.311 559.269C721.768 544.148 691.101 534.571 656.871 534.571V535.525C690.922 535.525 721.365 545.054 741.709 560.027L742.311 559.269ZM837.473 453.057C785.531 453.057 743.346 500.497 741.51 559.636L742.505 559.66C744.326 500.874 786.228 454.01 837.473 454.01V453.057ZM877.624 463.158C865.409 456.675 851.807 453.057 837.473 453.057V454.01C851.628 454.01 865.066 457.581 877.141 463.992L877.624 463.158ZM874.29 436.849C874.29 446.011 875.186 454.973 876.892 463.663L877.867 463.487C876.171 454.854 875.285 445.949 875.285 436.849H874.29ZM1024.54 292.887C941.561 292.887 874.29 357.341 874.29 436.849H875.285C875.285 357.867 942.108 293.84 1024.54 293.84V292.887ZM1160.45 375.387C1136.39 326.623 1084.58 292.887 1024.54 292.887V293.84C1084.18 293.84 1135.65 327.351 1159.55 375.794L1160.45 375.387ZM1194.45 366.774C1181.9 366.774 1170.08 369.816 1159.77 375.171L1160.24 376.01C1170.41 370.728 1182.07 367.728 1194.45 367.728V366.774ZM1199.41 366.934C1197.77 366.828 1196.12 366.774 1194.45 366.774V367.728C1196.1 367.728 1197.73 367.781 1199.35 367.885L1199.41 366.934ZM1266.59 323.395C1235.92 323.395 1209.68 341.539 1198.92 367.232L1199.85 367.587C1210.46 342.243 1236.35 324.349 1266.59 324.349V323.395ZM1300.83 331.568C1290.63 326.352 1278.97 323.395 1266.59 323.395V324.349C1278.8 324.349 1290.3 327.265 1300.37 332.41L1300.83 331.568ZM1342.82 300.228C1325.92 308.953 1311.51 319.817 1300.23 331.668L1300.97 332.31C1312.16 320.542 1326.49 309.744 1343.29 301.067L1342.82 300.228ZM1441.84 285.705C1414.71 277.67 1377.68 282.223 1342.82 300.228L1343.29 301.067C1377.98 283.15 1414.73 278.675 1441.55 286.616L1441.84 285.705ZM1442.95 242.147C1435.72 255.271 1435.6 270.726 1441.23 286.317L1442.17 286.005C1436.6 270.599 1436.76 255.429 1443.83 242.592L1442.95 242.147ZM1575.97 230.397C1548.67 216.608 1520.15 210.999 1496.09 213.098C1472.04 215.198 1452.38 225.015 1442.95 242.147L1443.83 242.592C1453.05 225.839 1472.34 216.129 1496.18 214.048C1520.02 211.967 1548.35 217.524 1575.5 231.24L1575.97 230.397ZM1582.25 233.732C1580.2 232.587 1578.1 231.475 1575.97 230.397L1575.5 231.24C1577.61 232.303 1579.69 233.409 1581.75 234.556L1582.25 233.732ZM1660.13 172.76C1625.66 172.76 1595.91 197.745 1581.53 233.975L1582.46 234.313C1596.75 198.317 1626.21 173.713 1660.13 173.713V172.76ZM1703.84 187.401C1690.98 178.092 1676.05 172.76 1660.13 172.76V173.713C1675.81 173.713 1690.53 178.963 1703.23 188.162L1703.84 187.401ZM1745.4 174.716C1729.85 177.062 1715.57 181.431 1703.31 187.356L1703.76 188.207C1715.92 182.331 1730.1 177.989 1745.55 175.658L1745.4 174.716ZM1740.48 151.07C1740.48 159.608 1742.08 167.789 1745.01 175.353L1745.94 175.021C1743.06 167.562 1741.48 159.493 1741.48 151.07H1740.48ZM1813.37 81.2349C1773.12 81.2349 1740.48 112.501 1740.48 151.07H1741.48C1741.48 113.028 1773.66 82.1883 1813.37 82.1883V81.2349ZM1886.26 151.07C1886.26 112.501 1853.63 81.2349 1813.37 81.2349V82.1883C1853.08 82.1883 1885.26 113.028 1885.26 151.07H1886.26Z" fill="#4E71FF" fill-opacity="0.1"/>
</g>
</g>
</g>
<defs>
<linearGradient id="paint0_linear_9451_118256" x1="731.5" y1="81.7115" x2="731.5" y2="728.586" gradientUnits="userSpaceOnUse">
<stop offset="0.514423" stop-color="white"/>
<stop offset="1" stop-color="#FFAE1E"/>
</linearGradient>
<clipPath id="clip0_9451_118256">
<rect width="1440" height="575" fill="white"/>
</clipPath>
<clipPath id="clip1_9451_118256">
<rect width="2213" height="767" fill="white" transform="translate(-375 -70)"/>
</clipPath>
</defs>
</svg>
