<svg width="150" height="24" viewBox="0 0 150 24" fill="none" xmlns="http://www.w3.org/2000/svg">
<g clip-path="url(#clip0_9451_118195)">
<path fill-rule="evenodd" clip-rule="evenodd" d="M18.6887 12.086C18.6887 12.3944 18.9564 12.6494 19.4919 12.8451C20.0274 13.0409 20.6712 13.2396 21.4263 13.4353C22.1984 13.6362 22.9554 13.8898 23.6917 14.1944C24.4684 14.5213 25.1387 15.0528 25.6291 15.7305C26.1866 16.5148 26.4687 17.4573 26.4323 18.4143C26.4323 20.0868 25.8026 21.353 24.5431 22.213C23.2835 23.073 21.7312 23.502 19.886 23.5C16.5708 23.5 14.3155 22.2693 13.1201 19.808L17.2116 17.5128C17.6297 18.7345 18.5212 19.3444 19.886 19.3424C21.0172 19.3424 21.5828 19.0222 21.5828 18.3816C21.5828 18.0732 21.315 17.8123 20.7825 17.6077C20.1491 17.3694 19.5022 17.1674 18.8451 17.0027C18.1383 16.8158 17.4449 16.583 16.7693 16.3058L16.7663 13.1802C17.5378 12.5973 18.1659 11.8503 18.604 10.995C19.042 10.1396 19.2787 9.19784 19.2964 8.23981V7.14853C19.528 7.13074 19.7657 7.12184 20.0094 7.12184C21.2497 7.10691 22.4738 7.40065 23.5683 7.97589C24.6413 8.54797 25.5334 9.40066 26.1465 10.4402L22.1183 12.5812C21.6169 11.6718 20.9139 11.2171 20.0094 11.2171C19.1279 11.2171 18.6877 11.5067 18.6887 12.086ZM145.277 10.3156C145.545 9.35661 146.183 8.53911 147.055 8.03816C147.943 7.51142 148.963 7.23739 150 7.24639V12.519C148.889 12.3249 147.744 12.529 146.772 13.0942C145.776 13.6606 145.277 14.6511 145.277 16.0567V23.067H140.556V7.55479H145.277V10.3156ZM128.047 17.1717C128.592 18.6189 129.85 19.3424 131.823 19.3424C133.102 19.3424 134.108 18.95 134.843 18.1652L138.619 20.3062C137.067 22.4354 134.78 23.5 131.76 23.5C129.116 23.5 127.003 22.724 125.418 21.1721C123.834 19.6202 123.041 17.667 123.041 15.3124C123.041 12.9756 123.824 11.0263 125.388 9.46454C126.952 7.90274 128.961 7.12184 131.414 7.12184C132.479 7.0948 133.538 7.28946 134.522 7.69313C135.506 8.09679 136.393 8.70039 137.124 9.46454C138.646 11.0244 139.407 12.9737 139.407 15.3124C139.411 15.937 139.347 16.5603 139.218 17.1717H128.047ZM127.951 13.6992H134.717C134.257 12.0652 133.146 11.2478 131.384 11.2468C129.558 11.2468 128.413 12.0642 127.951 13.6992ZM122.717 5.38409C120.767 5.21802 119.791 5.94159 119.789 7.55479H127.163C124.979 8.41774 123.586 9.93901 122.723 12.0237H119.789V23.067H115.069V12.0237H112.428L113.767 7.55479H115.069C115.069 5.32181 115.709 3.62162 116.989 2.45423C118.268 1.28683 120.177 0.774795 122.717 0.918125V5.38409ZM113.12 5.38409C111.167 5.21802 110.192 5.94159 110.193 7.55479H112.996L111.531 12.0237H110.193V23.067H105.472V12.0237H103.36V7.55479H105.472C105.472 5.32181 106.112 3.62162 107.392 2.45423C108.671 1.28683 110.581 0.774795 113.12 0.918125V5.38409ZM100.722 21.1276C99.5564 22.2837 98.0685 23.0722 96.4473 23.393C94.8261 23.7137 93.1447 23.5522 91.6168 22.929C90.0889 22.3058 88.7834 21.249 87.8661 19.8928C86.9489 18.5366 86.4612 16.9423 86.4652 15.3124C86.4425 14.2305 86.6461 13.1555 87.0632 12.1545C87.4804 11.1535 88.1022 10.248 88.89 9.4942C90.4727 7.97318 92.5956 7.1219 94.806 7.1219C97.0164 7.1219 99.1394 7.97318 100.722 9.4942C101.51 10.248 102.132 11.1535 102.549 12.1545C102.966 13.1555 103.17 14.2305 103.147 15.3124C103.169 16.3938 102.965 17.4681 102.548 18.4686C102.131 19.469 101.509 20.3741 100.722 21.1276ZM92.2263 17.9487C92.92 18.6051 93.8444 18.9717 94.806 18.9717C95.7676 18.9717 96.692 18.6051 97.3857 17.9487C97.7317 17.6021 98.0022 17.1894 98.1807 16.7361C98.3591 16.2828 98.4418 15.7983 98.4236 15.3124C98.4421 14.826 98.3596 14.341 98.1811 13.8872C98.0026 13.4333 97.732 13.0202 97.3857 12.6732C96.692 12.0167 95.7676 11.6501 94.806 11.6501C93.8444 11.6501 92.92 12.0167 92.2263 12.6732C91.8801 13.0202 91.6094 13.4333 91.4309 13.8872C91.2525 14.341 91.1699 14.826 91.1884 15.3124C91.1702 15.7983 91.2529 16.2828 91.4314 16.7361C91.6098 17.1894 91.8803 17.6021 92.2263 17.9487ZM79.2089 7.12184C79.9907 7.1025 80.7681 7.24416 81.4912 7.53777C82.2144 7.83137 82.8674 8.27046 83.4086 8.82697C84.5318 9.9657 85.0934 11.5374 85.0934 13.542V23.067H80.3732V14.2241C80.3732 13.3167 80.1144 12.6168 79.6 12.1305C79.3377 11.887 79.029 11.6971 78.6918 11.5719C78.3546 11.4467 77.9956 11.3886 77.6355 11.401C77.2412 11.3813 76.8471 11.4429 76.4783 11.5817C76.1094 11.7206 75.7741 11.9338 75.4935 12.2076C74.97 12.7473 74.7083 13.542 74.7083 14.5977V23.067H69.9881V1.35108H74.7083V9.01379C75.653 7.75348 77.1532 7.12283 79.2089 7.12184ZM61.36 12.086C61.36 12.3944 61.6277 12.6494 62.1632 12.8451C62.6987 13.0409 63.3425 13.2396 64.0976 13.4353C64.8697 13.6362 65.6267 13.8898 66.363 14.1944C67.1397 14.5213 67.81 15.0528 68.3004 15.7305C68.857 16.5151 69.138 17.4576 69.1006 18.4143C69.1006 20.0868 68.4719 21.353 67.2144 22.213C65.9568 23.073 64.4045 23.502 62.5573 23.5C59.2391 23.5 56.9828 22.2693 55.7884 19.808L59.8829 17.5128C60.301 18.7345 61.1925 19.3444 62.5573 19.3424C63.6885 19.3424 64.2541 19.0222 64.2541 18.3816C64.2541 18.0732 63.9863 17.8123 63.4538 17.6077C62.8214 17.3694 62.1756 17.1674 61.5194 17.0027C60.7452 16.7983 59.9871 16.5387 59.2511 16.2258C58.4857 15.8972 57.8194 15.3793 57.3167 14.7223C56.7674 13.9981 56.4842 13.1113 56.5134 12.2076C56.5134 10.5944 57.1061 9.34395 58.2914 8.45629C59.4767 7.56863 60.9408 7.12382 62.6837 7.12184C63.9221 7.10689 65.1442 7.40067 66.2366 7.97589C67.3111 8.54696 68.2045 9.39982 68.8178 10.4402L64.7896 12.5812C64.2872 11.6708 63.5832 11.2171 62.6837 11.2171C61.8022 11.2171 61.361 11.5067 61.36 12.086ZM50.3913 7.55479H55.1115V23.067H50.3913V21.608C49.2782 22.8713 47.7148 23.502 45.7012 23.5C44.6932 23.5079 43.6955 23.2999 42.7772 22.8903C41.8588 22.4807 41.0417 21.8792 40.3823 21.1276C38.9132 19.5427 38.124 17.4585 38.1802 15.3124C38.1227 13.1652 38.9121 11.0796 40.3823 9.4942C41.0417 8.7426 41.8588 8.14118 42.7772 7.73156C43.6955 7.32195 44.6932 7.1139 45.7012 7.12184C47.7169 7.12184 49.2802 7.75249 50.3913 9.01379V7.55479ZM43.9383 18.0732C44.6818 18.7319 45.6462 19.0963 46.6459 19.0963C47.6455 19.0963 48.6099 18.7319 49.3534 18.0732C50.0454 17.3912 50.3913 16.4709 50.3913 15.3124C50.4172 14.8065 50.3385 14.3006 50.1601 13.8255C49.9817 13.3504 49.7073 12.916 49.3534 12.5486C48.6099 11.8899 47.6455 11.5255 46.6459 11.5255C45.6462 11.5255 44.6818 11.8899 43.9383 12.5486C43.5845 12.916 43.31 13.3504 43.1316 13.8255C42.9532 14.3006 42.8745 14.8065 42.9004 15.3124C42.9004 16.4689 43.2464 17.3892 43.9383 18.0732ZM37.8763 12.0237H33.7578V17.5128C33.7578 18.1355 34.0105 18.5269 34.5129 18.693C35.0153 18.8591 35.8457 18.9095 37.0009 18.8472V23.067C33.9985 23.3755 31.9207 23.0908 30.7675 22.213C29.6142 21.3352 29.0376 19.7685 29.0376 17.5128V12.0237H26.5196V7.55479H29.0376V4.61011L33.7578 3.21338V7.55479H41.7391C40.8266 8.00973 40.0151 8.63918 39.3519 9.40644C38.6887 10.1737 38.1871 11.0634 37.8763 12.0237Z" fill="white"/>
<path fill-rule="evenodd" clip-rule="evenodd" d="M1.07205 13.9068C0.924081 13.9004 0.778859 13.8652 0.644767 13.8032C0.510675 13.7412 0.390369 13.6536 0.290795 13.5456C0.191221 13.4375 0.11435 13.311 0.06462 13.1735C0.0148902 13.036 -0.00671351 12.8901 0.00105592 12.7443L0.0521989 11.226C4.69418 11.487 8.20199 10.5351 11.8963 8.17457C8.69236 9.67806 5.33196 9.86784 0.963748 9.47047C0.395158 9.4171 0.00105592 9.09979 0.00105592 8.53636C0.00105592 5.28623 1.84521 1.85224 5.53954 1.85224H6.51126V1.81962C6.51205 1.46988 6.65335 1.13468 6.90424 0.887374C7.15514 0.640066 7.49519 0.500783 7.85 0.5H9.90174C10.2567 0.500236 10.5971 0.639343 10.8481 0.886769C11.0991 1.1342 11.2402 1.46971 11.2405 1.81962V1.85224H16.6827C16.9805 1.86814 17.2599 1.99908 17.4604 2.21668C17.6609 2.43429 17.7662 2.72101 17.7537 3.0147V7.84244C17.7361 8.80038 17.4991 9.74201 17.0605 10.597C16.6219 11.452 15.9929 12.1982 15.2206 12.7799L15.2236 16.0389L11.7579 13.9068H1.07205ZM10.6388 1.81962C10.6378 1.6275 10.5598 1.44355 10.4217 1.30797C10.2836 1.1724 10.0967 1.09621 9.90174 1.09605H7.85C7.65539 1.09629 7.46882 1.1726 7.33121 1.30824C7.1936 1.44389 7.11619 1.62779 7.11595 1.81962V1.85224H10.6388V1.81962Z" fill="white"/>
</g>
<defs>
<clipPath id="clip0_9451_118195">
<rect width="150" height="23" fill="white" transform="translate(0 0.5)"/>
</clipPath>
</defs>
</svg>
