<svg width="40" height="40" viewBox="0 0 40 40" fill="none" xmlns="http://www.w3.org/2000/svg">
<g clip-path="url(#clip0_9568_1088)">
<g filter="url(#filter0_d_9568_1088)">
<path d="M36.9336 3.88783C36.8951 3.88783 36.8625 3.87987 36.8356 3.86396C36.8087 3.84805 36.7875 3.82021 36.7721 3.78043L36.4377 2.96897L35.5959 2.58711C35.5575 2.5712 35.5306 2.54932 35.5152 2.52148C35.4998 2.49364 35.4922 2.45982 35.4922 2.42005C35.4922 2.38027 35.4998 2.34646 35.5152 2.31862C35.5306 2.29077 35.5575 2.26889 35.5959 2.25298L36.4377 1.88305L36.7721 1.1074C36.7875 1.06762 36.8087 1.03978 36.8356 1.02387C36.8625 1.00796 36.8951 1 36.9336 1C36.972 1 37.0047 1.00796 37.0316 1.02387C37.0585 1.03978 37.0796 1.06762 37.095 1.1074L37.4294 1.88305L38.2712 2.25298C38.3097 2.26889 38.3366 2.29077 38.3519 2.31862C38.3673 2.34646 38.375 2.38027 38.375 2.42005C38.375 2.45982 38.3673 2.49364 38.3519 2.52148C38.3366 2.54932 38.3097 2.5712 38.2712 2.58711L37.4294 2.96897L37.095 3.78043C37.0796 3.82021 37.0585 3.84805 37.0316 3.86396C37.0047 3.87987 36.972 3.88783 36.9336 3.88783ZM36.9336 11C36.9028 11 36.8721 10.992 36.8413 10.9761C36.8106 10.9602 36.7875 10.9324 36.7721 10.8926L36.4377 10.1169L35.6075 9.74702C35.569 9.73111 35.5421 9.70923 35.5268 9.68138C35.5114 9.65354 35.5037 9.61973 35.5037 9.57995C35.5037 9.54017 35.5114 9.50636 35.5268 9.47852C35.5421 9.45068 35.569 9.4288 35.6075 9.41289L36.4377 9.04296L36.7721 8.21957C36.7875 8.17979 36.8087 8.15195 36.8356 8.13604C36.8625 8.12013 36.8951 8.11217 36.9336 8.11217C36.972 8.11217 37.0047 8.12013 37.0316 8.13604C37.0585 8.15195 37.0796 8.17979 37.095 8.21957L37.4294 9.04296L38.2597 9.41289C38.2981 9.4288 38.325 9.45068 38.3404 9.47852C38.3558 9.50636 38.3635 9.54017 38.3635 9.57995C38.3635 9.61973 38.3558 9.65354 38.3404 9.68138C38.325 9.70923 38.2981 9.73111 38.2597 9.74702L37.4294 10.1169L37.095 10.8926C37.0796 10.9324 37.0566 10.9602 37.0258 10.9761C36.9951 10.992 36.9643 11 36.9336 11ZM31.8713 8.93556C31.8098 8.93556 31.7502 8.91766 31.6926 8.88186C31.6349 8.84606 31.5907 8.79634 31.56 8.7327L30.8104 7.07399L29.196 6.3222C29.1345 6.29037 29.0865 6.24463 29.0519 6.18496C29.0173 6.1253 29 6.06364 29 6C29 5.93636 29.0173 5.8747 29.0519 5.81504C29.0865 5.75537 29.1345 5.70963 29.196 5.6778L30.8104 4.92601L31.56 3.27924C31.5907 3.20764 31.6349 3.15394 31.6926 3.11814C31.7502 3.08234 31.8098 3.06444 31.8713 3.06444C31.9328 3.06444 31.9924 3.08234 32.05 3.11814C32.1077 3.15394 32.1519 3.20366 32.1827 3.2673L32.9437 4.92601L34.5466 5.6778C34.6158 5.70963 34.6677 5.75537 34.7023 5.81504C34.7369 5.8747 34.7542 5.93636 34.7542 6C34.7542 6.06364 34.7369 6.1253 34.7023 6.18496C34.6677 6.24463 34.6158 6.29037 34.5466 6.3222L32.9437 7.07399L32.1827 8.7327C32.1519 8.8043 32.1077 8.85601 32.05 8.88783C31.9924 8.91965 31.9328 8.93556 31.8713 8.93556Z" fill="white"/>
</g>
<path fill-rule="evenodd" clip-rule="evenodd" d="M6.37262 29.7952C6.11427 29.7841 5.86072 29.723 5.6266 29.6152C5.39248 29.5075 5.18243 29.3554 5.00857 29.1676C4.83472 28.9798 4.7005 28.7601 4.61368 28.5211C4.52685 28.2822 4.48913 28.0287 4.5027 27.7754L4.59199 25.1372C12.6967 25.5906 18.8213 23.9366 25.2714 19.8351C19.6774 22.4475 13.8103 22.7773 6.18353 22.0868C5.19079 21.9941 4.5027 21.4427 4.5027 20.4637C4.5027 14.8164 7.72254 8.84962 14.1727 8.84962H15.8693V8.79294C15.8707 8.18523 16.1174 7.6028 16.5554 7.17309C16.9935 6.74337 17.5872 6.50136 18.2067 6.5H21.789C22.4088 6.50041 23.0031 6.74212 23.4413 7.17204C23.8796 7.60196 24.126 8.18494 24.1264 8.79294V8.84962H33.6283C34.1482 8.87723 34.6361 9.10475 34.9861 9.48285C35.3361 9.86096 35.5202 10.3592 35.4982 10.8695V19.258C35.4675 20.9225 35.0538 22.5586 34.288 24.0442C33.5221 25.5298 32.424 26.8264 31.0756 27.8372L31.0808 33.5L25.0298 29.7952H6.37262ZM23.0759 8.79294C23.0742 8.45911 22.9379 8.13949 22.6968 7.90391C22.4557 7.66834 22.1293 7.53596 21.789 7.53569H18.2067C17.8669 7.5361 17.5412 7.66869 17.3009 7.90438C17.0607 8.14007 16.9255 8.45962 16.9251 8.79294V8.84962H23.0759V8.79294Z" fill="white"/>
</g>
<defs>
<filter id="filter0_d_9568_1088" x="-11.95" y="-7.45" width="91.275" height="91.9" filterUnits="userSpaceOnUse" color-interpolation-filters="sRGB">
<feFlood flood-opacity="0" result="BackgroundImageFix"/>
<feColorMatrix in="SourceAlpha" type="matrix" values="0 0 0 0 0 0 0 0 0 0 0 0 0 0 0 0 0 0 127 0" result="hardAlpha"/>
<feOffset dy="32.5"/>
<feGaussianBlur stdDeviation="20.475"/>
<feComposite in2="hardAlpha" operator="out"/>
<feColorMatrix type="matrix" values="0 0 0 0 0.262745 0 0 0 0 0.0941176 0 0 0 0 1 0 0 0 0.28 0"/>
<feBlend mode="normal" in2="BackgroundImageFix" result="effect1_dropShadow_9568_1088"/>
<feBlend mode="normal" in="SourceGraphic" in2="effect1_dropShadow_9568_1088" result="shape"/>
</filter>
<clipPath id="clip0_9568_1088">
<rect width="40" height="40" fill="white"/>
</clipPath>
</defs>
</svg>
