<svg width="105" height="78" viewBox="0 0 105 78" fill="none" xmlns="http://www.w3.org/2000/svg">
<path fill-rule="evenodd" clip-rule="evenodd" d="M27.7275 13.7945C27.54 12.682 27.3988 11.5822 27.3075 10.4822C27.17 8.83217 27.255 7.16955 27.2063 5.51955C27.185 4.81955 27.1013 2.99458 27.135 2.73208C27.4413 0.444578 29.2875 0.0945352 29.8275 0.0320352C30.0887 -0.00546475 32.7712 -0.305331 33.35 2.66967C34.06 6.30717 34.2875 9.96962 34.0363 13.5571C34.6225 16.6071 35.625 19.6446 36.9488 22.3946C42.2163 33.3321 52.2537 34.3946 63.1287 34.2946C64.8012 34.2696 66.19 35.5821 66.2775 37.2446C66.365 38.9196 65.12 40.3696 63.455 40.5196C57.3763 41.1071 46.5912 45.9821 42.8625 51.0571C42.0825 52.1196 41.6287 54.6822 41.0287 57.1947C40.1912 60.6822 39.195 64.1321 38.0788 65.5821C37.9113 65.8071 35.875 68.1072 35.2675 68.4447C33.8075 69.2447 32.6388 68.7821 31.975 68.3571C31.3113 67.9321 30.56 67.0946 30.26 65.7071C29.9463 64.2571 30.2113 61.282 30.1625 60.6445C29.985 58.332 29.5225 53.7946 28.5788 49.8946C28.07 47.7946 27.5275 45.8571 26.63 44.8946C23.3075 41.3321 17.995 41.8571 13.5213 42.4446C13.0075 42.5071 12.4938 42.5821 11.9813 42.6446C10.16 43.1821 8.22622 43.5821 6.18247 43.8196C3.09622 44.1821 2.58876 41.3446 2.56126 41.1571C2.50376 40.7446 2.28999 38.6196 4.61624 37.7696C4.86999 37.6821 6.7425 37.2696 7.46376 37.1071C8.46876 36.8821 9.48498 36.7071 10.505 36.5446C21.0412 33.2696 26.7638 24.0695 27.7275 13.7945ZM31.3438 25.1572C35.3213 33.3822 41.3575 37.3571 48.5125 39.1571H48.5113C44.0438 41.4946 39.98 44.4197 37.8262 47.3572C37.0087 48.4697 36.2587 50.7071 35.5825 53.2196C35.2162 50.8821 34.7213 48.3945 34.0675 46.2695C33.3238 43.8445 32.3225 41.8322 31.205 40.6322C29.0475 38.3197 26.34 37.0321 23.4287 36.3946C26.9137 33.3071 29.5563 29.4572 31.3438 25.1572Z" fill="white"/>
<path fill-rule="evenodd" clip-rule="evenodd" d="M58.7494 48.4418C61.114 47.5993 63.6023 46.4794 65.5212 44.8582C67.8002 42.9325 68.7271 40.4524 69.3495 37.8419C70.1485 34.4879 70.4678 30.9151 71.4368 27.5557C71.7956 26.3082 72.486 25.8366 72.7822 25.6273C73.531 25.0987 74.2879 24.9574 75 25.0104C75.844 25.0716 77.0032 25.3909 77.7656 26.8056C77.8743 27.0081 78.0156 27.3166 78.1107 27.7392C78.18 28.0491 78.2249 29.018 78.2983 29.4175C78.4817 30.4014 78.6353 31.3854 78.7793 32.3747C79.2591 35.6675 79.535 38.4642 81.0502 41.4893C83.1063 45.5961 85.1666 48.1089 87.9606 49.2219C90.6623 50.2982 93.8925 50.0957 98.0197 49.2518C98.4125 49.1567 98.8011 49.0751 99.1857 49.0085C101.005 48.6905 102.745 49.8851 103.102 51.6979C103.46 53.5095 102.303 55.2747 100.5 55.6729C100.123 55.7558 99.7524 55.8346 99.3855 55.9067C93.8083 57.2874 87.3518 62.215 83.5996 66.5298C82.4431 67.8602 80.7499 71.5797 79.0226 73.9525C77.7479 75.7028 76.3155 76.8566 75.1128 77.2643C74.307 77.5388 73.6275 77.4967 73.0662 77.3581C72.2509 77.157 71.5741 76.7153 71.055 76.0127C70.7723 75.6281 70.51 75.113 70.385 74.4553C70.3252 74.1386 70.3184 73.3342 70.3198 72.97C69.9678 71.7591 69.537 70.5768 69.2231 69.3551C68.4743 66.4401 67.0052 64.5946 65.2603 62.1566C63.6281 59.8749 61.8751 58.4412 59.3053 57.2969C58.971 57.2154 56.2734 56.5549 55.3208 56.1757C53.9292 55.6199 53.266 54.689 53.0254 54.1875C52.6164 53.3368 52.5743 52.5935 52.6558 51.9738C52.7768 51.0592 53.1872 50.2765 53.9156 49.6445C54.3668 49.2518 55.0408 48.8699 55.9432 48.6837C56.6404 48.5383 58.4898 48.4541 58.7494 48.4418ZM74.5747 43.6908C74.6997 43.9694 74.8329 44.2494 74.9742 44.5321C77.9857 50.5469 81.3533 53.9049 85.4465 55.5343L85.5838 55.5873C82.8454 57.6203 80.3666 59.8925 78.4722 62.071C77.6921 62.9679 76.6594 64.8311 75.5437 66.7418C74.5299 63.4463 72.8719 61.117 70.7872 58.202C69.1945 55.9774 67.5257 54.3031 65.475 52.9387C67.0664 52.122 68.5843 51.1652 69.9066 50.0482C72.1082 48.1877 73.5636 46.0323 74.5747 43.6908Z" fill="white"/>
</svg>
